G04 #@! TF.GenerationSoftware,KiCad,Pcbnew,(5.0.2)-1*
G04 #@! TF.CreationDate,2022-11-06T21:34:21-05:00*
G04 #@! TF.ProjectId,kurako_40,6b757261-6b6f-45f3-9430-2e6b69636164,rev?*
G04 #@! TF.SameCoordinates,Original*
G04 #@! TF.FileFunction,Copper,L1,Top*
G04 #@! TF.FilePolarity,Positive*
%FSLAX46Y46*%
G04 Gerber Fmt 4.6, Leading zero omitted, Abs format (unit mm)*
G04 Created by KiCad (PCBNEW (5.0.2)-1) date 11/6/2022 9:34:21 PM*
%MOMM*%
%LPD*%
G01*
G04 APERTURE LIST*
G04 #@! TA.AperFunction,ComponentPad*
%ADD10R,1.700000X1.700000*%
G04 #@! TD*
G04 #@! TA.AperFunction,ComponentPad*
%ADD11O,1.700000X1.700000*%
G04 #@! TD*
G04 #@! TA.AperFunction,ComponentPad*
%ADD12O,0.800000X1.400000*%
G04 #@! TD*
G04 #@! TA.AperFunction,ViaPad*
%ADD13C,0.800000*%
G04 #@! TD*
G04 #@! TA.AperFunction,Conductor*
%ADD14C,0.250000*%
G04 #@! TD*
G04 APERTURE END LIST*
D10*
G04 #@! TO.P,J1,1*
G04 #@! TO.N,COL03*
X60750000Y-98750000D03*
D11*
G04 #@! TO.P,J1,2*
G04 #@! TO.N,VBUS*
X58210000Y-98750000D03*
G04 #@! TO.P,J1,3*
G04 #@! TO.N,COL01*
X60750000Y-101290000D03*
G04 #@! TO.P,J1,4*
G04 #@! TO.N,COL02*
X58210000Y-101290000D03*
G04 #@! TO.P,J1,5*
G04 #@! TO.N,RST*
X60750000Y-103830000D03*
G04 #@! TO.P,J1,6*
G04 #@! TO.N,GND*
X58210000Y-103830000D03*
G04 #@! TD*
D12*
G04 #@! TO.P,P1,S1*
G04 #@! TO.N,GND*
X74010000Y-59660000D03*
X82990000Y-59660000D03*
X82630000Y-65610000D03*
X74370000Y-65610000D03*
G04 #@! TD*
D13*
G04 #@! TO.N,ROW02*
X106000000Y-121500000D03*
X51500000Y-115500000D03*
X65500000Y-115500000D03*
X113000000Y-100500000D03*
X96500000Y-101000000D03*
X114000000Y-117500000D03*
X117105000Y-110500000D03*
X130000000Y-115500000D03*
X136500000Y-115500000D03*
X146000000Y-115500000D03*
X155000000Y-115500000D03*
X165500000Y-115500000D03*
X174000000Y-115500000D03*
X184000000Y-115500000D03*
X193500000Y-115500000D03*
X203000000Y-115500000D03*
X212000000Y-115500000D03*
X222500000Y-115500000D03*
X231000000Y-115500000D03*
X238500000Y-115500000D03*
X246500000Y-114000000D03*
G04 #@! TO.N,ROW00*
X52500000Y-77000000D03*
X63000000Y-77500000D03*
X71500000Y-77500000D03*
X84000000Y-77500000D03*
X91000000Y-77500000D03*
X103000000Y-77500000D03*
X110000000Y-77500000D03*
X122000000Y-77500000D03*
X107000000Y-121000000D03*
X129000000Y-77500000D03*
X141000000Y-77500000D03*
X148000000Y-77500000D03*
X160000000Y-77500000D03*
X167000000Y-77500000D03*
X179000000Y-77500000D03*
X186000000Y-77500000D03*
X198000000Y-77500000D03*
X205000000Y-77500000D03*
X217000000Y-77500000D03*
X224000000Y-77500000D03*
X236000000Y-77500000D03*
X241000000Y-77500000D03*
X250000000Y-75500000D03*
X115500000Y-107500000D03*
G04 #@! TO.N,ROW01*
X51500000Y-96500000D03*
X65000000Y-96500000D03*
X70000000Y-96500000D03*
X84000000Y-96500000D03*
X91499847Y-96500153D03*
X103000000Y-96500000D03*
X110000000Y-96500000D03*
X122000000Y-96500000D03*
X129500000Y-96500000D03*
X141500000Y-96500000D03*
X149000000Y-96500000D03*
X160000000Y-96500000D03*
X168000000Y-96500000D03*
X179000000Y-96500000D03*
X186500000Y-96500000D03*
X198000000Y-96500000D03*
X206000000Y-96500000D03*
X217000000Y-96500000D03*
X225000000Y-96500000D03*
X236000000Y-96500000D03*
X244000000Y-96500000D03*
X255000000Y-96500000D03*
X107500000Y-116000000D03*
X117500000Y-102500000D03*
G04 #@! TO.N,ROW03*
X105000000Y-122000000D03*
X102560001Y-130254999D03*
G04 #@! TO.N,COL03*
X111365001Y-105544667D03*
X96500000Y-102500000D03*
X88500000Y-99000000D03*
X78407180Y-100907180D03*
X63750000Y-102250000D03*
G04 #@! TO.N,COL04*
X106275000Y-122725000D03*
X127000000Y-122500000D03*
G04 #@! TO.N,COL05*
X108500000Y-122500000D03*
X151500000Y-119500000D03*
G04 #@! TO.N,COL00*
X95500000Y-115000000D03*
X61000000Y-124500000D03*
G04 #@! TO.N,COL06*
X110000000Y-123500000D03*
X170500000Y-122000000D03*
G04 #@! TO.N,COL02*
X91500000Y-124500000D03*
X94500000Y-108500000D03*
X84000000Y-91750000D03*
G04 #@! TO.N,COL01*
X96500000Y-115000000D03*
X79500000Y-124500000D03*
X73250000Y-101200000D03*
G04 #@! TO.N,COL09*
X116500000Y-116500000D03*
X225725001Y-102500000D03*
G04 #@! TO.N,COL10*
X116500000Y-118000000D03*
X244725001Y-103500000D03*
G04 #@! TO.N,COL11*
X115500000Y-119000000D03*
X260550000Y-114500000D03*
G04 #@! TO.N,COL08*
X107000000Y-101500000D03*
X206725001Y-101500000D03*
G04 #@! TO.N,COL07*
X109500000Y-99500000D03*
X187225001Y-99500000D03*
G04 #@! TO.N,Net-(P1-PadA6)*
X78000000Y-69000000D03*
X78000000Y-76500000D03*
G04 #@! TO.N,Net-(P1-PadA7)*
X79000000Y-69000000D03*
X79000000Y-76500000D03*
X78000000Y-64750000D03*
G04 #@! TO.N,VBUS*
X93000000Y-111500000D03*
X90000000Y-114500000D03*
X98000000Y-113000000D03*
X77500000Y-94500000D03*
X82500000Y-81500000D03*
G04 #@! TO.N,D-*
X86500000Y-102000000D03*
X83000000Y-101000000D03*
G04 #@! TO.N,D+*
X87500000Y-102000000D03*
X82000000Y-100000000D03*
G04 #@! TO.N,GND*
X92000000Y-110500000D03*
X97401525Y-115432732D03*
X91500000Y-123000000D03*
X91775000Y-104775000D03*
X90500000Y-99775000D03*
X90000000Y-97225000D03*
X81000000Y-69000000D03*
X95000000Y-83500000D03*
X66250000Y-116500000D03*
X83250000Y-115000000D03*
X73000000Y-116500000D03*
G04 #@! TO.N,X2*
X99500000Y-115500000D03*
X85000000Y-121000000D03*
G04 #@! TO.N,X1*
X100500000Y-115000000D03*
X86987347Y-122512653D03*
G04 #@! TO.N,RST*
X84000000Y-99000000D03*
X100500000Y-110000000D03*
X91000000Y-79500000D03*
X95250000Y-79500000D03*
X68250000Y-99000000D03*
X82000000Y-97480002D03*
G04 #@! TD*
D14*
G04 #@! TO.N,ROW02*
X51500000Y-115500000D02*
X56000000Y-115500000D01*
X56000000Y-115500000D02*
X57500000Y-114000000D01*
X57500000Y-114000000D02*
X61000000Y-114000000D01*
X61000000Y-114000000D02*
X62500000Y-115500000D01*
X62500000Y-115500000D02*
X65500000Y-115500000D01*
X113000000Y-100500000D02*
X97000000Y-100500000D01*
X97000000Y-100500000D02*
X96500000Y-101000000D01*
X93774999Y-98274999D02*
X96500000Y-101000000D01*
X82064667Y-98274999D02*
X93774999Y-98274999D01*
X70984999Y-109354667D02*
X82064667Y-98274999D01*
X70984999Y-111256003D02*
X70984999Y-109354667D01*
X65500000Y-115500000D02*
X66741002Y-115500000D01*
X66741002Y-115500000D02*
X70984999Y-111256003D01*
X117105000Y-114395000D02*
X117105000Y-110500000D01*
X114000000Y-117500000D02*
X117105000Y-114395000D01*
X130000000Y-115500000D02*
X136500000Y-115500000D01*
X146000000Y-115500000D02*
X155000000Y-115500000D01*
X165500000Y-115500000D02*
X174000000Y-115500000D01*
X184000000Y-115500000D02*
X193500000Y-115500000D01*
X203000000Y-115500000D02*
X212000000Y-115500000D01*
X222500000Y-115500000D02*
X231000000Y-115500000D01*
X238500000Y-115500000D02*
X245000000Y-115500000D01*
X245000000Y-115500000D02*
X246500000Y-114000000D01*
G04 #@! TO.N,ROW00*
X52500000Y-77000000D02*
X56500000Y-77000000D01*
X56500000Y-77000000D02*
X57500000Y-76000000D01*
X57500000Y-76000000D02*
X61500000Y-76000000D01*
X61500000Y-76000000D02*
X63000000Y-77500000D01*
X71500000Y-77500000D02*
X84000000Y-77500000D01*
X91000000Y-77500000D02*
X103000000Y-77500000D01*
X110000000Y-77500000D02*
X122000000Y-77500000D01*
X129000000Y-77500000D02*
X141000000Y-77500000D01*
X148000000Y-77500000D02*
X160000000Y-77500000D01*
X167000000Y-77500000D02*
X179000000Y-77500000D01*
X186000000Y-77500000D02*
X198000000Y-77500000D01*
X205000000Y-77500000D02*
X217000000Y-77500000D01*
X224000000Y-77500000D02*
X236000000Y-77500000D01*
X241000000Y-77500000D02*
X246500000Y-77500000D01*
X246500000Y-77500000D02*
X248500000Y-75500000D01*
X248500000Y-75500000D02*
X250000000Y-75500000D01*
X107000000Y-121000000D02*
X108500000Y-121000000D01*
X108500000Y-121000000D02*
X115500000Y-114000000D01*
X115500000Y-114000000D02*
X115500000Y-107500000D01*
G04 #@! TO.N,ROW01*
X51500000Y-96500000D02*
X65000000Y-96500000D01*
X70000000Y-96500000D02*
X84000000Y-96500000D01*
X91499847Y-96500153D02*
X102999847Y-96500153D01*
X102999847Y-96500153D02*
X103000000Y-96500000D01*
X110000000Y-96500000D02*
X122000000Y-96500000D01*
X129500000Y-96500000D02*
X141500000Y-96500000D01*
X149000000Y-96500000D02*
X152000000Y-96500000D01*
X152000000Y-96500000D02*
X153000000Y-95500000D01*
X153000000Y-95500000D02*
X156000000Y-95500000D01*
X156000000Y-95500000D02*
X157000000Y-96500000D01*
X157000000Y-96500000D02*
X160000000Y-96500000D01*
X168000000Y-96500000D02*
X179000000Y-96500000D01*
X186500000Y-96500000D02*
X198000000Y-96500000D01*
X206000000Y-96500000D02*
X217000000Y-96500000D01*
X225000000Y-96500000D02*
X236000000Y-96500000D01*
X244000000Y-96500000D02*
X255000000Y-96500000D01*
X114774999Y-105225001D02*
X117500000Y-102500000D01*
X107500000Y-116000000D02*
X114774999Y-108725001D01*
X114774999Y-108725001D02*
X114774999Y-105225001D01*
G04 #@! TO.N,ROW03*
X102560001Y-130254999D02*
X103500000Y-129315000D01*
X103500000Y-129315000D02*
X103500000Y-126000000D01*
X105000000Y-124500000D02*
X105000000Y-122000000D01*
X103500000Y-126000000D02*
X105000000Y-124500000D01*
G04 #@! TO.N,COL03*
X109044667Y-105544667D02*
X111365001Y-105544667D01*
X96500000Y-102500000D02*
X106000000Y-102500000D01*
X106000000Y-102500000D02*
X109044667Y-105544667D01*
X96500000Y-102500000D02*
X93000000Y-99000000D01*
X93000000Y-99000000D02*
X88500000Y-99000000D01*
X78407180Y-100907180D02*
X77064360Y-102250000D01*
X77064360Y-102250000D02*
X63750000Y-102250000D01*
G04 #@! TO.N,COL04*
X109573002Y-122500000D02*
X127000000Y-122500000D01*
X108848001Y-123225001D02*
X109573002Y-122500000D01*
X106275000Y-122725000D02*
X106775001Y-123225001D01*
X106775001Y-123225001D02*
X108848001Y-123225001D01*
G04 #@! TO.N,COL05*
X109225001Y-121774999D02*
X149725001Y-121774999D01*
X108500000Y-122500000D02*
X109225001Y-121774999D01*
X149725001Y-121774999D02*
X151500000Y-120000000D01*
X151500000Y-120000000D02*
X151500000Y-119500000D01*
G04 #@! TO.N,COL00*
X95500000Y-115000000D02*
X92500000Y-118000000D01*
X92500000Y-118000000D02*
X67500000Y-118000000D01*
X67500000Y-118000000D02*
X61000000Y-124500000D01*
G04 #@! TO.N,COL06*
X110000000Y-123500000D02*
X169000000Y-123500000D01*
X169000000Y-123500000D02*
X170500000Y-122000000D01*
G04 #@! TO.N,COL02*
X91500000Y-124500000D02*
X92500000Y-123500000D01*
X92500000Y-123500000D02*
X92500000Y-122500000D01*
X92500000Y-122500000D02*
X94500000Y-120500000D01*
X94500000Y-120500000D02*
X94500000Y-119500000D01*
X94500000Y-119500000D02*
X98725001Y-115274999D01*
X98725001Y-115274999D02*
X98725001Y-112651999D01*
X98725001Y-112651999D02*
X94573002Y-108500000D01*
X94573002Y-108500000D02*
X94500000Y-108500000D01*
X58210000Y-101290000D02*
X59385001Y-100114999D01*
X63762413Y-100114999D02*
X68652411Y-95225001D01*
X59385001Y-100114999D02*
X63762413Y-100114999D01*
X80524999Y-95225001D02*
X84000000Y-91750000D01*
X68652411Y-95225001D02*
X80524999Y-95225001D01*
G04 #@! TO.N,COL01*
X96225001Y-115348001D02*
X93073002Y-118500000D01*
X96500000Y-115000000D02*
X96225001Y-115274999D01*
X96225001Y-115274999D02*
X96225001Y-115348001D01*
X93073002Y-118500000D02*
X85500000Y-118500000D01*
X85500000Y-118500000D02*
X79500000Y-124500000D01*
X73160000Y-101290000D02*
X73250000Y-101200000D01*
X60750000Y-101290000D02*
X73160000Y-101290000D01*
G04 #@! TO.N,COL09*
X116500000Y-116500000D02*
X118500000Y-114500000D01*
X118500000Y-114500000D02*
X118500000Y-103000000D01*
X118500000Y-103000000D02*
X119000000Y-102500000D01*
X119000000Y-102500000D02*
X147500000Y-102500000D01*
X147500000Y-102500000D02*
X149500000Y-104500000D01*
X149500000Y-104500000D02*
X160000000Y-104500000D01*
X162000000Y-102500000D02*
X225725001Y-102500000D01*
X160000000Y-104500000D02*
X162000000Y-102500000D01*
G04 #@! TO.N,COL10*
X162500000Y-103500000D02*
X244725001Y-103500000D01*
X161049991Y-104950009D02*
X162500000Y-103500000D01*
X148950009Y-104950009D02*
X161049991Y-104950009D01*
X116500000Y-118000000D02*
X119000000Y-115500000D01*
X119000000Y-115500000D02*
X119000000Y-103500000D01*
X119000000Y-103500000D02*
X119500000Y-103000000D01*
X119500000Y-103000000D02*
X147000000Y-103000000D01*
X147000000Y-103000000D02*
X148950009Y-104950009D01*
G04 #@! TO.N,COL11*
X148863097Y-121063901D02*
X151426998Y-118500000D01*
X115500000Y-119000000D02*
X117563901Y-121063901D01*
X117563901Y-121063901D02*
X148863097Y-121063901D01*
X151426998Y-118500000D02*
X244500000Y-118500000D01*
X244500000Y-118500000D02*
X248000000Y-122000000D01*
X248000000Y-122000000D02*
X251500000Y-122000000D01*
X259000000Y-114500000D02*
X260550000Y-114500000D01*
X251500000Y-122000000D02*
X259000000Y-114500000D01*
G04 #@! TO.N,COL08*
X107500000Y-101000000D02*
X111500000Y-101000000D01*
X107000000Y-101500000D02*
X107500000Y-101000000D01*
X111725001Y-101225001D02*
X147725001Y-101225001D01*
X111500000Y-101000000D02*
X111725001Y-101225001D01*
X147725001Y-101225001D02*
X149500000Y-103000000D01*
X149500000Y-103000000D02*
X159500000Y-103000000D01*
X161000000Y-101500000D02*
X206725001Y-101500000D01*
X159500000Y-103000000D02*
X161000000Y-101500000D01*
G04 #@! TO.N,COL07*
X109500000Y-99500000D02*
X147500000Y-99500000D01*
X147500000Y-99500000D02*
X150000000Y-102000000D01*
X150000000Y-102000000D02*
X159000000Y-102000000D01*
X161500000Y-99500000D02*
X187225001Y-99500000D01*
X159000000Y-102000000D02*
X161500000Y-99500000D01*
G04 #@! TO.N,Net-(P1-PadA6)*
X78000000Y-69000000D02*
X78000000Y-76500000D01*
G04 #@! TO.N,Net-(P1-PadA7)*
X79000000Y-69000000D02*
X79000000Y-76500000D01*
X79000000Y-69000000D02*
X79000000Y-65750000D01*
X79000000Y-65750000D02*
X78000000Y-64750000D01*
G04 #@! TO.N,VBUS*
X93000000Y-111500000D02*
X90000000Y-114500000D01*
X98000000Y-113000000D02*
X94500000Y-109500000D01*
X94500000Y-109500000D02*
X91000000Y-109500000D01*
X91000000Y-109500000D02*
X90000000Y-110500000D01*
X90000000Y-110500000D02*
X90000000Y-114500000D01*
X77500000Y-94500000D02*
X77500000Y-88000000D01*
X77500000Y-88000000D02*
X82500000Y-83000000D01*
X82500000Y-81500000D02*
X82500000Y-83000000D01*
X58210000Y-98750000D02*
X59735000Y-97225000D01*
X66016002Y-97225000D02*
X59735000Y-97225000D01*
X68741002Y-94500000D02*
X66016002Y-97225000D01*
X77500000Y-94500000D02*
X68741002Y-94500000D01*
G04 #@! TO.N,D-*
X86500000Y-102000000D02*
X85500000Y-101000000D01*
X85500000Y-101000000D02*
X83000000Y-101000000D01*
G04 #@! TO.N,D+*
X87500000Y-102000000D02*
X87500000Y-101434315D01*
X87500000Y-101434315D02*
X86065685Y-100000000D01*
X86065685Y-100000000D02*
X82000000Y-100000000D01*
G04 #@! TO.N,GND*
X92000000Y-110500000D02*
X93500000Y-110500000D01*
X93500000Y-110500000D02*
X97225001Y-114225001D01*
X97225001Y-114225001D02*
X97225001Y-115348001D01*
X97225001Y-115348001D02*
X97401525Y-115432732D01*
X97401525Y-115432732D02*
X93573002Y-119000000D01*
X93573002Y-119000000D02*
X93573002Y-120426998D01*
X93573002Y-120426998D02*
X91500000Y-122500000D01*
X91500000Y-122500000D02*
X91500000Y-123000000D01*
X92365001Y-104184999D02*
X92365001Y-101365001D01*
X91775000Y-104775000D02*
X92365001Y-104184999D01*
X92365001Y-101365001D02*
X90775000Y-99775000D01*
X90775000Y-99775000D02*
X90500000Y-99775000D01*
X90000000Y-95000000D02*
X85000000Y-90000000D01*
X90000000Y-97225000D02*
X90000000Y-95000000D01*
X85000000Y-81000000D02*
X88500000Y-77500000D01*
X85000000Y-90000000D02*
X85000000Y-81000000D01*
X88500000Y-74500000D02*
X86500000Y-72500000D01*
X86500000Y-72500000D02*
X82500000Y-72500000D01*
X82500000Y-72500000D02*
X81000000Y-71000000D01*
X81000000Y-71000000D02*
X81000000Y-69000000D01*
X88500000Y-77500000D02*
X88500000Y-74500000D01*
X93926998Y-83500000D02*
X95000000Y-83500000D01*
X88500000Y-77500000D02*
X88500000Y-78073002D01*
X88500000Y-78073002D02*
X93926998Y-83500000D01*
X83250000Y-115000000D02*
X81750000Y-116500000D01*
X81750000Y-116500000D02*
X73000000Y-116500000D01*
X73000000Y-116500000D02*
X66250000Y-116500000D01*
G04 #@! TO.N,X2*
X99500000Y-115500000D02*
X95000000Y-120000000D01*
X95000000Y-120636410D02*
X92950010Y-122686400D01*
X95000000Y-120000000D02*
X95000000Y-120636410D01*
X91848001Y-125225001D02*
X90725001Y-125225001D01*
X92950010Y-124122992D02*
X91848001Y-125225001D01*
X92950010Y-122686400D02*
X92950010Y-124122992D01*
X90725001Y-125225001D02*
X86500000Y-121000000D01*
X86500000Y-121000000D02*
X85000000Y-121000000D01*
G04 #@! TO.N,X1*
X99573002Y-116500000D02*
X99136410Y-116500000D01*
X100500000Y-115000000D02*
X100500000Y-115573002D01*
X100500000Y-115573002D02*
X99573002Y-116500000D01*
X95450009Y-120822811D02*
X93500000Y-122772820D01*
X99136410Y-116500000D02*
X95450010Y-120186400D01*
X95450010Y-120186400D02*
X95450009Y-120822811D01*
X93500000Y-124209412D02*
X92034401Y-125675011D01*
X93500000Y-122772820D02*
X93500000Y-124209412D01*
X86987347Y-122555373D02*
X86987347Y-122512653D01*
X92034401Y-125675011D02*
X90106985Y-125675011D01*
X90106985Y-125675011D02*
X86987347Y-122555373D01*
G04 #@! TO.N,RST*
X84000000Y-99000000D02*
X87000000Y-99000000D01*
X88225001Y-100225001D02*
X88225001Y-104225001D01*
X87000000Y-99000000D02*
X88225001Y-100225001D01*
X89500000Y-105500000D02*
X96500000Y-105500000D01*
X88225001Y-104225001D02*
X89500000Y-105500000D01*
X96500000Y-105500000D02*
X100500000Y-109500000D01*
X100500000Y-109500000D02*
X100500000Y-110000000D01*
X91000000Y-79500000D02*
X95250000Y-79500000D01*
X68250000Y-99000000D02*
X69769998Y-97480002D01*
X69769998Y-97480002D02*
X82000000Y-97480002D01*
G04 #@! TD*
M02*
