G04 #@! TF.GenerationSoftware,KiCad,Pcbnew,(5.0.2)-1*
G04 #@! TF.CreationDate,2022-11-06T21:34:21-05:00*
G04 #@! TF.ProjectId,kurako_40,6b757261-6b6f-45f3-9430-2e6b69636164,rev?*
G04 #@! TF.SameCoordinates,Original*
G04 #@! TF.FileFunction,Copper,L2,Bot*
G04 #@! TF.FilePolarity,Positive*
%FSLAX46Y46*%
G04 Gerber Fmt 4.6, Leading zero omitted, Abs format (unit mm)*
G04 Created by KiCad (PCBNEW (5.0.2)-1) date 11/6/2022 9:34:21 PM*
%MOMM*%
%LPD*%
G01*
G04 APERTURE LIST*
G04 #@! TA.AperFunction,Conductor*
%ADD10C,0.100000*%
G04 #@! TD*
G04 #@! TA.AperFunction,SMDPad,CuDef*
%ADD11C,1.150000*%
G04 #@! TD*
G04 #@! TA.AperFunction,ComponentPad*
%ADD12R,1.700000X1.700000*%
G04 #@! TD*
G04 #@! TA.AperFunction,ComponentPad*
%ADD13O,1.700000X1.700000*%
G04 #@! TD*
G04 #@! TA.AperFunction,SMDPad,CuDef*
%ADD14R,1.000000X1.000000*%
G04 #@! TD*
G04 #@! TA.AperFunction,SMDPad,CuDef*
%ADD15R,2.550000X2.500000*%
G04 #@! TD*
G04 #@! TA.AperFunction,SMDPad,CuDef*
%ADD16R,1.700000X1.000000*%
G04 #@! TD*
G04 #@! TA.AperFunction,SMDPad,CuDef*
%ADD17C,0.550000*%
G04 #@! TD*
G04 #@! TA.AperFunction,SMDPad,CuDef*
%ADD18R,1.800000X2.100000*%
G04 #@! TD*
G04 #@! TA.AperFunction,SMDPad,CuDef*
%ADD19R,0.300000X0.700000*%
G04 #@! TD*
G04 #@! TA.AperFunction,ComponentPad*
%ADD20O,0.800000X1.400000*%
G04 #@! TD*
G04 #@! TA.AperFunction,ViaPad*
%ADD21C,0.800000*%
G04 #@! TD*
G04 #@! TA.AperFunction,Conductor*
%ADD22C,0.250000*%
G04 #@! TD*
G04 APERTURE END LIST*
D10*
G04 #@! TO.N,VBUS*
G04 #@! TO.C,C5*
G36*
X108624505Y-117551204D02*
X108648773Y-117554804D01*
X108672572Y-117560765D01*
X108695671Y-117569030D01*
X108717850Y-117579520D01*
X108738893Y-117592132D01*
X108758599Y-117606747D01*
X108776777Y-117623223D01*
X108793253Y-117641401D01*
X108807868Y-117661107D01*
X108820480Y-117682150D01*
X108830970Y-117704329D01*
X108839235Y-117727428D01*
X108845196Y-117751227D01*
X108848796Y-117775495D01*
X108850000Y-117799999D01*
X108850000Y-118700001D01*
X108848796Y-118724505D01*
X108845196Y-118748773D01*
X108839235Y-118772572D01*
X108830970Y-118795671D01*
X108820480Y-118817850D01*
X108807868Y-118838893D01*
X108793253Y-118858599D01*
X108776777Y-118876777D01*
X108758599Y-118893253D01*
X108738893Y-118907868D01*
X108717850Y-118920480D01*
X108695671Y-118930970D01*
X108672572Y-118939235D01*
X108648773Y-118945196D01*
X108624505Y-118948796D01*
X108600001Y-118950000D01*
X107949999Y-118950000D01*
X107925495Y-118948796D01*
X107901227Y-118945196D01*
X107877428Y-118939235D01*
X107854329Y-118930970D01*
X107832150Y-118920480D01*
X107811107Y-118907868D01*
X107791401Y-118893253D01*
X107773223Y-118876777D01*
X107756747Y-118858599D01*
X107742132Y-118838893D01*
X107729520Y-118817850D01*
X107719030Y-118795671D01*
X107710765Y-118772572D01*
X107704804Y-118748773D01*
X107701204Y-118724505D01*
X107700000Y-118700001D01*
X107700000Y-117799999D01*
X107701204Y-117775495D01*
X107704804Y-117751227D01*
X107710765Y-117727428D01*
X107719030Y-117704329D01*
X107729520Y-117682150D01*
X107742132Y-117661107D01*
X107756747Y-117641401D01*
X107773223Y-117623223D01*
X107791401Y-117606747D01*
X107811107Y-117592132D01*
X107832150Y-117579520D01*
X107854329Y-117569030D01*
X107877428Y-117560765D01*
X107901227Y-117554804D01*
X107925495Y-117551204D01*
X107949999Y-117550000D01*
X108600001Y-117550000D01*
X108624505Y-117551204D01*
X108624505Y-117551204D01*
G37*
D11*
G04 #@! TD*
G04 #@! TO.P,C5,1*
G04 #@! TO.N,VBUS*
X108275000Y-118250000D03*
D10*
G04 #@! TO.N,GND*
G04 #@! TO.C,C5*
G36*
X106574505Y-117551204D02*
X106598773Y-117554804D01*
X106622572Y-117560765D01*
X106645671Y-117569030D01*
X106667850Y-117579520D01*
X106688893Y-117592132D01*
X106708599Y-117606747D01*
X106726777Y-117623223D01*
X106743253Y-117641401D01*
X106757868Y-117661107D01*
X106770480Y-117682150D01*
X106780970Y-117704329D01*
X106789235Y-117727428D01*
X106795196Y-117751227D01*
X106798796Y-117775495D01*
X106800000Y-117799999D01*
X106800000Y-118700001D01*
X106798796Y-118724505D01*
X106795196Y-118748773D01*
X106789235Y-118772572D01*
X106780970Y-118795671D01*
X106770480Y-118817850D01*
X106757868Y-118838893D01*
X106743253Y-118858599D01*
X106726777Y-118876777D01*
X106708599Y-118893253D01*
X106688893Y-118907868D01*
X106667850Y-118920480D01*
X106645671Y-118930970D01*
X106622572Y-118939235D01*
X106598773Y-118945196D01*
X106574505Y-118948796D01*
X106550001Y-118950000D01*
X105899999Y-118950000D01*
X105875495Y-118948796D01*
X105851227Y-118945196D01*
X105827428Y-118939235D01*
X105804329Y-118930970D01*
X105782150Y-118920480D01*
X105761107Y-118907868D01*
X105741401Y-118893253D01*
X105723223Y-118876777D01*
X105706747Y-118858599D01*
X105692132Y-118838893D01*
X105679520Y-118817850D01*
X105669030Y-118795671D01*
X105660765Y-118772572D01*
X105654804Y-118748773D01*
X105651204Y-118724505D01*
X105650000Y-118700001D01*
X105650000Y-117799999D01*
X105651204Y-117775495D01*
X105654804Y-117751227D01*
X105660765Y-117727428D01*
X105669030Y-117704329D01*
X105679520Y-117682150D01*
X105692132Y-117661107D01*
X105706747Y-117641401D01*
X105723223Y-117623223D01*
X105741401Y-117606747D01*
X105761107Y-117592132D01*
X105782150Y-117579520D01*
X105804329Y-117569030D01*
X105827428Y-117560765D01*
X105851227Y-117554804D01*
X105875495Y-117551204D01*
X105899999Y-117550000D01*
X106550001Y-117550000D01*
X106574505Y-117551204D01*
X106574505Y-117551204D01*
G37*
D11*
G04 #@! TD*
G04 #@! TO.P,C5,2*
G04 #@! TO.N,GND*
X106225000Y-118250000D03*
D12*
G04 #@! TO.P,J1,1*
G04 #@! TO.N,COL03*
X60750000Y-98750000D03*
D13*
G04 #@! TO.P,J1,2*
G04 #@! TO.N,VBUS*
X58210000Y-98750000D03*
G04 #@! TO.P,J1,3*
G04 #@! TO.N,COL01*
X60750000Y-101290000D03*
G04 #@! TO.P,J1,4*
G04 #@! TO.N,COL02*
X58210000Y-101290000D03*
G04 #@! TO.P,J1,5*
G04 #@! TO.N,RST*
X60750000Y-103830000D03*
G04 #@! TO.P,J1,6*
G04 #@! TO.N,GND*
X58210000Y-103830000D03*
G04 #@! TD*
D14*
G04 #@! TO.P,D20,2*
G04 #@! TO.N,Net-(D20-Pad2)*
X136725000Y-119500000D03*
G04 #@! TO.P,D20,1*
G04 #@! TO.N,COL04*
X134225000Y-119500000D03*
G04 #@! TD*
G04 #@! TO.P,D2,2*
G04 #@! TO.N,Net-(D2-Pad2)*
X55500000Y-80500000D03*
G04 #@! TO.P,D2,1*
G04 #@! TO.N,COL00*
X53000000Y-80500000D03*
G04 #@! TD*
G04 #@! TO.P,D23,2*
G04 #@! TO.N,Net-(D23-Pad2)*
X149250000Y-115500000D03*
G04 #@! TO.P,D23,1*
G04 #@! TO.N,COL05*
X151750000Y-115500000D03*
G04 #@! TD*
G04 #@! TO.P,D22,2*
G04 #@! TO.N,Net-(D22-Pad2)*
X149275000Y-81500000D03*
G04 #@! TO.P,D22,1*
G04 #@! TO.N,COL05*
X151775000Y-81500000D03*
G04 #@! TD*
G04 #@! TO.P,D21,2*
G04 #@! TO.N,Net-(D21-Pad2)*
X149275000Y-77500000D03*
G04 #@! TO.P,D21,1*
G04 #@! TO.N,COL05*
X151775000Y-77500000D03*
G04 #@! TD*
G04 #@! TO.P,D19,2*
G04 #@! TO.N,Net-(D19-Pad2)*
X131750000Y-115500000D03*
G04 #@! TO.P,D19,1*
G04 #@! TO.N,COL04*
X134250000Y-115500000D03*
G04 #@! TD*
G04 #@! TO.P,D18,2*
G04 #@! TO.N,Net-(D18-Pad2)*
X130275000Y-81500000D03*
G04 #@! TO.P,D18,1*
G04 #@! TO.N,COL04*
X132775000Y-81500000D03*
G04 #@! TD*
G04 #@! TO.P,D17,2*
G04 #@! TO.N,Net-(D17-Pad2)*
X130250000Y-77500000D03*
G04 #@! TO.P,D17,1*
G04 #@! TO.N,COL04*
X132750000Y-77500000D03*
G04 #@! TD*
G04 #@! TO.P,D16,2*
G04 #@! TO.N,Net-(D16-Pad2)*
X115500000Y-126750000D03*
G04 #@! TO.P,D16,1*
G04 #@! TO.N,COL03*
X115500000Y-124250000D03*
G04 #@! TD*
G04 #@! TO.P,D15,2*
G04 #@! TO.N,Net-(D15-Pad2)*
X111275000Y-98500000D03*
G04 #@! TO.P,D15,1*
G04 #@! TO.N,COL03*
X113775000Y-98500000D03*
G04 #@! TD*
G04 #@! TO.P,D14,2*
G04 #@! TO.N,Net-(D14-Pad2)*
X111275000Y-81500000D03*
G04 #@! TO.P,D14,1*
G04 #@! TO.N,COL03*
X113775000Y-81500000D03*
G04 #@! TD*
G04 #@! TO.P,D13,2*
G04 #@! TO.N,Net-(D13-Pad2)*
X111275000Y-77500000D03*
G04 #@! TO.P,D13,1*
G04 #@! TO.N,COL03*
X113775000Y-77500000D03*
G04 #@! TD*
G04 #@! TO.P,D11,2*
G04 #@! TO.N,Net-(D11-Pad2)*
X92250000Y-98500000D03*
G04 #@! TO.P,D11,1*
G04 #@! TO.N,COL02*
X94750000Y-98500000D03*
G04 #@! TD*
G04 #@! TO.P,D1,2*
G04 #@! TO.N,Net-(D1-Pad2)*
X55500000Y-78500000D03*
G04 #@! TO.P,D1,1*
G04 #@! TO.N,COL00*
X53000000Y-78500000D03*
G04 #@! TD*
G04 #@! TO.P,D3,2*
G04 #@! TO.N,Net-(D3-Pad2)*
X54250000Y-116250000D03*
G04 #@! TO.P,D3,1*
G04 #@! TO.N,COL00*
X54250000Y-118750000D03*
G04 #@! TD*
G04 #@! TO.P,D4,2*
G04 #@! TO.N,Net-(D4-Pad2)*
X58500000Y-126775000D03*
G04 #@! TO.P,D4,1*
G04 #@! TO.N,COL00*
X58500000Y-124275000D03*
G04 #@! TD*
G04 #@! TO.P,D5,2*
G04 #@! TO.N,Net-(D5-Pad2)*
X73250000Y-77500000D03*
G04 #@! TO.P,D5,1*
G04 #@! TO.N,COL01*
X75750000Y-77500000D03*
G04 #@! TD*
G04 #@! TO.P,D6,2*
G04 #@! TO.N,Net-(D6-Pad2)*
X73250000Y-81500000D03*
G04 #@! TO.P,D6,1*
G04 #@! TO.N,COL01*
X75750000Y-81500000D03*
G04 #@! TD*
G04 #@! TO.P,D7,2*
G04 #@! TO.N,Net-(D7-Pad2)*
X77500000Y-107725000D03*
G04 #@! TO.P,D7,1*
G04 #@! TO.N,COL01*
X77500000Y-105225000D03*
G04 #@! TD*
G04 #@! TO.P,D8,2*
G04 #@! TO.N,Net-(D8-Pad2)*
X77500000Y-126775000D03*
G04 #@! TO.P,D8,1*
G04 #@! TO.N,COL01*
X77500000Y-124275000D03*
G04 #@! TD*
G04 #@! TO.P,D9,2*
G04 #@! TO.N,Net-(D9-Pad2)*
X92250000Y-77500000D03*
G04 #@! TO.P,D9,1*
G04 #@! TO.N,COL02*
X94750000Y-77500000D03*
G04 #@! TD*
G04 #@! TO.P,D10,2*
G04 #@! TO.N,Net-(D10-Pad2)*
X92250000Y-81500000D03*
G04 #@! TO.P,D10,1*
G04 #@! TO.N,COL02*
X94750000Y-81500000D03*
G04 #@! TD*
G04 #@! TO.P,D46,2*
G04 #@! TO.N,Net-(D46-Pad2)*
X263250000Y-115500000D03*
G04 #@! TO.P,D46,1*
G04 #@! TO.N,COL11*
X265750000Y-115500000D03*
G04 #@! TD*
G04 #@! TO.P,D25,2*
G04 #@! TO.N,Net-(D25-Pad2)*
X168250000Y-81500000D03*
G04 #@! TO.P,D25,1*
G04 #@! TO.N,COL06*
X170750000Y-81500000D03*
G04 #@! TD*
G04 #@! TO.P,D24,2*
G04 #@! TO.N,Net-(D24-Pad2)*
X168275000Y-77500000D03*
G04 #@! TO.P,D24,1*
G04 #@! TO.N,COL06*
X170775000Y-77500000D03*
G04 #@! TD*
G04 #@! TO.P,D47,2*
G04 #@! TO.N,Net-(D47-Pad2)*
X263275000Y-119500000D03*
G04 #@! TO.P,D47,1*
G04 #@! TO.N,COL11*
X265775000Y-119500000D03*
G04 #@! TD*
G04 #@! TO.P,D45,2*
G04 #@! TO.N,Net-(D45-Pad2)*
X263250000Y-81500000D03*
G04 #@! TO.P,D45,1*
G04 #@! TO.N,COL11*
X265750000Y-81500000D03*
G04 #@! TD*
G04 #@! TO.P,D44,2*
G04 #@! TO.N,Net-(D44-Pad2)*
X263250000Y-77500000D03*
G04 #@! TO.P,D44,1*
G04 #@! TO.N,COL11*
X265750000Y-77500000D03*
G04 #@! TD*
G04 #@! TO.P,D43,2*
G04 #@! TO.N,Net-(D43-Pad2)*
X240750000Y-119250000D03*
G04 #@! TO.P,D43,1*
G04 #@! TO.N,COL10*
X243250000Y-119250000D03*
G04 #@! TD*
G04 #@! TO.P,D42,2*
G04 #@! TO.N,Net-(D42-Pad2)*
X240750000Y-116000000D03*
G04 #@! TO.P,D42,1*
G04 #@! TO.N,COL10*
X243250000Y-116000000D03*
G04 #@! TD*
G04 #@! TO.P,D41,2*
G04 #@! TO.N,Net-(D41-Pad2)*
X242750000Y-80750000D03*
G04 #@! TO.P,D41,1*
G04 #@! TO.N,COL10*
X245250000Y-80750000D03*
G04 #@! TD*
G04 #@! TO.P,D40,2*
G04 #@! TO.N,Net-(D40-Pad2)*
X242750000Y-78500000D03*
G04 #@! TO.P,D40,1*
G04 #@! TO.N,COL10*
X245250000Y-78500000D03*
G04 #@! TD*
G04 #@! TO.P,D39,2*
G04 #@! TO.N,Net-(D39-Pad2)*
X225250000Y-119500000D03*
G04 #@! TO.P,D39,1*
G04 #@! TO.N,COL09*
X227750000Y-119500000D03*
G04 #@! TD*
G04 #@! TO.P,D38,2*
G04 #@! TO.N,Net-(D38-Pad2)*
X225250000Y-115500000D03*
G04 #@! TO.P,D38,1*
G04 #@! TO.N,COL09*
X227750000Y-115500000D03*
G04 #@! TD*
G04 #@! TO.P,D37,2*
G04 #@! TO.N,Net-(D37-Pad2)*
X225275000Y-81500000D03*
G04 #@! TO.P,D37,1*
G04 #@! TO.N,COL09*
X227775000Y-81500000D03*
G04 #@! TD*
G04 #@! TO.P,D36,2*
G04 #@! TO.N,Net-(D36-Pad2)*
X225275000Y-77500000D03*
G04 #@! TO.P,D36,1*
G04 #@! TO.N,COL09*
X227775000Y-77500000D03*
G04 #@! TD*
G04 #@! TO.P,D34,2*
G04 #@! TO.N,Net-(D34-Pad2)*
X206250000Y-115500000D03*
G04 #@! TO.P,D34,1*
G04 #@! TO.N,COL08*
X208750000Y-115500000D03*
G04 #@! TD*
G04 #@! TO.P,D12,2*
G04 #@! TO.N,Net-(D12-Pad2)*
X98500000Y-129250000D03*
G04 #@! TO.P,D12,1*
G04 #@! TO.N,COL02*
X98500000Y-126750000D03*
G04 #@! TD*
G04 #@! TO.P,D26,2*
G04 #@! TO.N,Net-(D26-Pad2)*
X168275000Y-115500000D03*
G04 #@! TO.P,D26,1*
G04 #@! TO.N,COL06*
X170775000Y-115500000D03*
G04 #@! TD*
G04 #@! TO.P,D27,2*
G04 #@! TO.N,Net-(D27-Pad2)*
X168250000Y-119500000D03*
G04 #@! TO.P,D27,1*
G04 #@! TO.N,COL06*
X170750000Y-119500000D03*
G04 #@! TD*
G04 #@! TO.P,D28,2*
G04 #@! TO.N,Net-(D28-Pad2)*
X187250000Y-77500000D03*
G04 #@! TO.P,D28,1*
G04 #@! TO.N,COL07*
X189750000Y-77500000D03*
G04 #@! TD*
G04 #@! TO.P,D29,2*
G04 #@! TO.N,Net-(D29-Pad2)*
X187250000Y-81500000D03*
G04 #@! TO.P,D29,1*
G04 #@! TO.N,COL07*
X189750000Y-81500000D03*
G04 #@! TD*
G04 #@! TO.P,D30,2*
G04 #@! TO.N,Net-(D30-Pad2)*
X187250000Y-115500000D03*
G04 #@! TO.P,D30,1*
G04 #@! TO.N,COL07*
X189750000Y-115500000D03*
G04 #@! TD*
G04 #@! TO.P,D31,2*
G04 #@! TO.N,Net-(D31-Pad2)*
X187275000Y-119500000D03*
G04 #@! TO.P,D31,1*
G04 #@! TO.N,COL07*
X189775000Y-119500000D03*
G04 #@! TD*
G04 #@! TO.P,D32,2*
G04 #@! TO.N,Net-(D32-Pad2)*
X206250000Y-77500000D03*
G04 #@! TO.P,D32,1*
G04 #@! TO.N,COL08*
X208750000Y-77500000D03*
G04 #@! TD*
G04 #@! TO.P,D33,2*
G04 #@! TO.N,Net-(D33-Pad2)*
X206250000Y-81500000D03*
G04 #@! TO.P,D33,1*
G04 #@! TO.N,COL08*
X208750000Y-81500000D03*
G04 #@! TD*
G04 #@! TO.P,D35,2*
G04 #@! TO.N,Net-(D35-Pad2)*
X206275000Y-119500000D03*
G04 #@! TO.P,D35,1*
G04 #@! TO.N,COL08*
X208775000Y-119500000D03*
G04 #@! TD*
D15*
G04 #@! TO.P,SW17,1*
G04 #@! TO.N,ROW00*
X119710000Y-75080000D03*
G04 #@! TO.P,SW17,2*
G04 #@! TO.N,Net-(D17-Pad2)*
X133560000Y-72540000D03*
G04 #@! TD*
G04 #@! TO.P,SW19,1*
G04 #@! TO.N,ROW02*
X119710000Y-113080000D03*
G04 #@! TO.P,SW19,2*
G04 #@! TO.N,Net-(D19-Pad2)*
X133560000Y-110540000D03*
G04 #@! TD*
G04 #@! TO.P,SW24,1*
G04 #@! TO.N,ROW00*
X157710000Y-75080000D03*
G04 #@! TO.P,SW24,2*
G04 #@! TO.N,Net-(D24-Pad2)*
X171560000Y-72540000D03*
G04 #@! TD*
G04 #@! TO.P,SW34,1*
G04 #@! TO.N,ROW02*
X195710000Y-113080000D03*
G04 #@! TO.P,SW34,2*
G04 #@! TO.N,Net-(D34-Pad2)*
X209560000Y-110540000D03*
G04 #@! TD*
G04 #@! TO.P,SW33,1*
G04 #@! TO.N,ROW01*
X195710000Y-94080000D03*
G04 #@! TO.P,SW33,2*
G04 #@! TO.N,Net-(D33-Pad2)*
X209560000Y-91540000D03*
G04 #@! TD*
G04 #@! TO.P,SW32,1*
G04 #@! TO.N,ROW00*
X195710000Y-75080000D03*
G04 #@! TO.P,SW32,2*
G04 #@! TO.N,Net-(D32-Pad2)*
X209560000Y-72540000D03*
G04 #@! TD*
G04 #@! TO.P,SW31,1*
G04 #@! TO.N,ROW03*
X176710000Y-132080000D03*
G04 #@! TO.P,SW31,2*
G04 #@! TO.N,Net-(D31-Pad2)*
X190560000Y-129540000D03*
G04 #@! TD*
G04 #@! TO.P,SW30,1*
G04 #@! TO.N,ROW02*
X176710000Y-113080000D03*
G04 #@! TO.P,SW30,2*
G04 #@! TO.N,Net-(D30-Pad2)*
X190560000Y-110540000D03*
G04 #@! TD*
G04 #@! TO.P,SW29,1*
G04 #@! TO.N,ROW01*
X176710000Y-94080000D03*
G04 #@! TO.P,SW29,2*
G04 #@! TO.N,Net-(D29-Pad2)*
X190560000Y-91540000D03*
G04 #@! TD*
G04 #@! TO.P,SW28,1*
G04 #@! TO.N,ROW00*
X176710000Y-75080000D03*
G04 #@! TO.P,SW28,2*
G04 #@! TO.N,Net-(D28-Pad2)*
X190560000Y-72540000D03*
G04 #@! TD*
G04 #@! TO.P,SW27,1*
G04 #@! TO.N,ROW03*
X157710000Y-132080000D03*
G04 #@! TO.P,SW27,2*
G04 #@! TO.N,Net-(D27-Pad2)*
X171560000Y-129540000D03*
G04 #@! TD*
G04 #@! TO.P,SW26,1*
G04 #@! TO.N,ROW02*
X157710000Y-113080000D03*
G04 #@! TO.P,SW26,2*
G04 #@! TO.N,Net-(D26-Pad2)*
X171560000Y-110540000D03*
G04 #@! TD*
G04 #@! TO.P,SW23,1*
G04 #@! TO.N,ROW02*
X138710000Y-113080000D03*
G04 #@! TO.P,SW23,2*
G04 #@! TO.N,Net-(D23-Pad2)*
X152560000Y-110540000D03*
G04 #@! TD*
G04 #@! TO.P,SW35,1*
G04 #@! TO.N,ROW03*
X195710000Y-132080000D03*
G04 #@! TO.P,SW35,2*
G04 #@! TO.N,Net-(D35-Pad2)*
X209560000Y-129540000D03*
G04 #@! TD*
G04 #@! TO.P,SW38,1*
G04 #@! TO.N,ROW02*
X214710000Y-113080000D03*
G04 #@! TO.P,SW38,2*
G04 #@! TO.N,Net-(D38-Pad2)*
X228560000Y-110540000D03*
G04 #@! TD*
G04 #@! TO.P,SW39,1*
G04 #@! TO.N,ROW03*
X214710000Y-132080000D03*
G04 #@! TO.P,SW39,2*
G04 #@! TO.N,Net-(D39-Pad2)*
X228560000Y-129540000D03*
G04 #@! TD*
G04 #@! TO.P,SW40,1*
G04 #@! TO.N,ROW00*
X233710000Y-75080000D03*
G04 #@! TO.P,SW40,2*
G04 #@! TO.N,Net-(D40-Pad2)*
X247560000Y-72540000D03*
G04 #@! TD*
G04 #@! TO.P,SW41,1*
G04 #@! TO.N,ROW01*
X233710000Y-94080000D03*
G04 #@! TO.P,SW41,2*
G04 #@! TO.N,Net-(D41-Pad2)*
X247560000Y-91540000D03*
G04 #@! TD*
G04 #@! TO.P,SW42,1*
G04 #@! TO.N,ROW02*
X233710000Y-113180000D03*
G04 #@! TO.P,SW42,2*
G04 #@! TO.N,Net-(D42-Pad2)*
X247560000Y-110640000D03*
G04 #@! TD*
G04 #@! TO.P,SW43,1*
G04 #@! TO.N,ROW03*
X233710000Y-132080000D03*
G04 #@! TO.P,SW43,2*
G04 #@! TO.N,Net-(D43-Pad2)*
X247560000Y-129540000D03*
G04 #@! TD*
G04 #@! TO.P,SW44,1*
G04 #@! TO.N,ROW00*
X252710000Y-75080000D03*
G04 #@! TO.P,SW44,2*
G04 #@! TO.N,Net-(D44-Pad2)*
X266560000Y-72540000D03*
G04 #@! TD*
G04 #@! TO.P,SW45,1*
G04 #@! TO.N,ROW01*
X252710000Y-94080000D03*
G04 #@! TO.P,SW45,2*
G04 #@! TO.N,Net-(D45-Pad2)*
X266560000Y-91540000D03*
G04 #@! TD*
G04 #@! TO.P,SW46,1*
G04 #@! TO.N,ROW02*
X252710000Y-113080000D03*
G04 #@! TO.P,SW46,2*
G04 #@! TO.N,Net-(D46-Pad2)*
X266560000Y-110540000D03*
G04 #@! TD*
G04 #@! TO.P,SW47,1*
G04 #@! TO.N,ROW03*
X252710000Y-132080000D03*
G04 #@! TO.P,SW47,2*
G04 #@! TO.N,Net-(D47-Pad2)*
X266560000Y-129540000D03*
G04 #@! TD*
G04 #@! TO.P,SW12,1*
G04 #@! TO.N,ROW03*
X81710000Y-132080000D03*
G04 #@! TO.P,SW12,2*
G04 #@! TO.N,Net-(D12-Pad2)*
X95560000Y-129540000D03*
G04 #@! TD*
G04 #@! TO.P,SW36,1*
G04 #@! TO.N,ROW00*
X214710000Y-75080000D03*
G04 #@! TO.P,SW36,2*
G04 #@! TO.N,Net-(D36-Pad2)*
X228560000Y-72540000D03*
G04 #@! TD*
G04 #@! TO.P,SW10,1*
G04 #@! TO.N,ROW01*
X81710000Y-94080000D03*
G04 #@! TO.P,SW10,2*
G04 #@! TO.N,Net-(D10-Pad2)*
X95560000Y-91540000D03*
G04 #@! TD*
G04 #@! TO.P,SW9,1*
G04 #@! TO.N,ROW00*
X81710000Y-75080000D03*
G04 #@! TO.P,SW9,2*
G04 #@! TO.N,Net-(D9-Pad2)*
X95560000Y-72540000D03*
G04 #@! TD*
G04 #@! TO.P,SW8,1*
G04 #@! TO.N,ROW03*
X62710000Y-132080000D03*
G04 #@! TO.P,SW8,2*
G04 #@! TO.N,Net-(D8-Pad2)*
X76560000Y-129540000D03*
G04 #@! TD*
G04 #@! TO.P,SW7,1*
G04 #@! TO.N,ROW02*
X62710000Y-113080000D03*
G04 #@! TO.P,SW7,2*
G04 #@! TO.N,Net-(D7-Pad2)*
X76560000Y-110540000D03*
G04 #@! TD*
G04 #@! TO.P,SW6,1*
G04 #@! TO.N,ROW01*
X62710000Y-94080000D03*
G04 #@! TO.P,SW6,2*
G04 #@! TO.N,Net-(D6-Pad2)*
X76560000Y-91540000D03*
G04 #@! TD*
G04 #@! TO.P,SW5,1*
G04 #@! TO.N,ROW00*
X62710000Y-75080000D03*
G04 #@! TO.P,SW5,2*
G04 #@! TO.N,Net-(D5-Pad2)*
X76560000Y-72540000D03*
G04 #@! TD*
G04 #@! TO.P,SW4,1*
G04 #@! TO.N,ROW03*
X43710000Y-132080000D03*
G04 #@! TO.P,SW4,2*
G04 #@! TO.N,Net-(D4-Pad2)*
X57560000Y-129540000D03*
G04 #@! TD*
G04 #@! TO.P,SW3,1*
G04 #@! TO.N,ROW02*
X43710000Y-113080000D03*
G04 #@! TO.P,SW3,2*
G04 #@! TO.N,Net-(D3-Pad2)*
X57560000Y-110540000D03*
G04 #@! TD*
G04 #@! TO.P,SW2,1*
G04 #@! TO.N,ROW01*
X43710000Y-94080000D03*
G04 #@! TO.P,SW2,2*
G04 #@! TO.N,Net-(D2-Pad2)*
X57560000Y-91540000D03*
G04 #@! TD*
G04 #@! TO.P,SW25,1*
G04 #@! TO.N,ROW01*
X157710000Y-94080000D03*
G04 #@! TO.P,SW25,2*
G04 #@! TO.N,Net-(D25-Pad2)*
X171560000Y-91540000D03*
G04 #@! TD*
G04 #@! TO.P,SW13,1*
G04 #@! TO.N,ROW00*
X100710000Y-75080000D03*
G04 #@! TO.P,SW13,2*
G04 #@! TO.N,Net-(D13-Pad2)*
X114560000Y-72540000D03*
G04 #@! TD*
G04 #@! TO.P,SW14,1*
G04 #@! TO.N,ROW01*
X100710000Y-94080000D03*
G04 #@! TO.P,SW14,2*
G04 #@! TO.N,Net-(D14-Pad2)*
X114560000Y-91540000D03*
G04 #@! TD*
G04 #@! TO.P,SW15,1*
G04 #@! TO.N,ROW02*
X113290000Y-102920000D03*
G04 #@! TO.P,SW15,2*
G04 #@! TO.N,Net-(D15-Pad2)*
X99440000Y-105460000D03*
G04 #@! TD*
G04 #@! TO.P,SW16,1*
G04 #@! TO.N,ROW03*
X100710000Y-132080000D03*
G04 #@! TO.P,SW16,2*
G04 #@! TO.N,Net-(D16-Pad2)*
X114560000Y-129540000D03*
G04 #@! TD*
G04 #@! TO.P,SW18,1*
G04 #@! TO.N,ROW01*
X119710000Y-94080000D03*
G04 #@! TO.P,SW18,2*
G04 #@! TO.N,Net-(D18-Pad2)*
X133560000Y-91540000D03*
G04 #@! TD*
G04 #@! TO.P,SW20,1*
G04 #@! TO.N,ROW03*
X129210000Y-132080000D03*
G04 #@! TO.P,SW20,2*
G04 #@! TO.N,Net-(D20-Pad2)*
X143060000Y-129540000D03*
G04 #@! TD*
G04 #@! TO.P,SW21,1*
G04 #@! TO.N,ROW00*
X138710000Y-75080000D03*
G04 #@! TO.P,SW21,2*
G04 #@! TO.N,Net-(D21-Pad2)*
X152560000Y-72540000D03*
G04 #@! TD*
G04 #@! TO.P,SW22,1*
G04 #@! TO.N,ROW01*
X138710000Y-94080000D03*
G04 #@! TO.P,SW22,2*
G04 #@! TO.N,Net-(D22-Pad2)*
X152560000Y-91540000D03*
G04 #@! TD*
G04 #@! TO.P,SW37,1*
G04 #@! TO.N,ROW01*
X214710000Y-94080000D03*
G04 #@! TO.P,SW37,2*
G04 #@! TO.N,Net-(D37-Pad2)*
X228560000Y-91540000D03*
G04 #@! TD*
G04 #@! TO.P,SW11,1*
G04 #@! TO.N,ROW02*
X94290000Y-102920000D03*
G04 #@! TO.P,SW11,2*
G04 #@! TO.N,Net-(D11-Pad2)*
X80440000Y-105460000D03*
G04 #@! TD*
G04 #@! TO.P,SW1,1*
G04 #@! TO.N,ROW00*
X43710000Y-75080000D03*
G04 #@! TO.P,SW1,2*
G04 #@! TO.N,Net-(D1-Pad2)*
X57560000Y-72540000D03*
G04 #@! TD*
D16*
G04 #@! TO.P,SW48,2*
G04 #@! TO.N,RST*
X103150000Y-79600000D03*
X96850000Y-79600000D03*
G04 #@! TO.P,SW48,1*
G04 #@! TO.N,GND*
X103150000Y-83400000D03*
X96850000Y-83400000D03*
G04 #@! TD*
D17*
G04 #@! TO.P,U1,44*
G04 #@! TO.N,VBUS*
X90641064Y-118702082D03*
D10*
G04 #@! TD*
G04 #@! TO.N,VBUS*
G04 #@! TO.C,U1*
G36*
X90976940Y-117977298D02*
X91365848Y-118366206D01*
X90305188Y-119426866D01*
X89916280Y-119037958D01*
X90976940Y-117977298D01*
X90976940Y-117977298D01*
G37*
D17*
G04 #@! TO.P,U1,43*
G04 #@! TO.N,GND*
X91206750Y-119267767D03*
D10*
G04 #@! TD*
G04 #@! TO.N,GND*
G04 #@! TO.C,U1*
G36*
X91542626Y-118542983D02*
X91931534Y-118931891D01*
X90870874Y-119992551D01*
X90481966Y-119603643D01*
X91542626Y-118542983D01*
X91542626Y-118542983D01*
G37*
D17*
G04 #@! TO.P,U1,42*
G04 #@! TO.N,AREF*
X91772435Y-119833452D03*
D10*
G04 #@! TD*
G04 #@! TO.N,AREF*
G04 #@! TO.C,U1*
G36*
X92108311Y-119108668D02*
X92497219Y-119497576D01*
X91436559Y-120558236D01*
X91047651Y-120169328D01*
X92108311Y-119108668D01*
X92108311Y-119108668D01*
G37*
D17*
G04 #@! TO.P,U1,41*
G04 #@! TO.N,Net-(U1-Pad41)*
X92338120Y-120399138D03*
D10*
G04 #@! TD*
G04 #@! TO.N,Net-(U1-Pad41)*
G04 #@! TO.C,U1*
G36*
X92673996Y-119674354D02*
X93062904Y-120063262D01*
X92002244Y-121123922D01*
X91613336Y-120735014D01*
X92673996Y-119674354D01*
X92673996Y-119674354D01*
G37*
D17*
G04 #@! TO.P,U1,40*
G04 #@! TO.N,Net-(U1-Pad40)*
X92903806Y-120964823D03*
D10*
G04 #@! TD*
G04 #@! TO.N,Net-(U1-Pad40)*
G04 #@! TO.C,U1*
G36*
X93239682Y-120240039D02*
X93628590Y-120628947D01*
X92567930Y-121689607D01*
X92179022Y-121300699D01*
X93239682Y-120240039D01*
X93239682Y-120240039D01*
G37*
D17*
G04 #@! TO.P,U1,39*
G04 #@! TO.N,Net-(U1-Pad39)*
X93469491Y-121530509D03*
D10*
G04 #@! TD*
G04 #@! TO.N,Net-(U1-Pad39)*
G04 #@! TO.C,U1*
G36*
X93805367Y-120805725D02*
X94194275Y-121194633D01*
X93133615Y-122255293D01*
X92744707Y-121866385D01*
X93805367Y-120805725D01*
X93805367Y-120805725D01*
G37*
D17*
G04 #@! TO.P,U1,38*
G04 #@! TO.N,Net-(U1-Pad38)*
X94035177Y-122096194D03*
D10*
G04 #@! TD*
G04 #@! TO.N,Net-(U1-Pad38)*
G04 #@! TO.C,U1*
G36*
X94371053Y-121371410D02*
X94759961Y-121760318D01*
X93699301Y-122820978D01*
X93310393Y-122432070D01*
X94371053Y-121371410D01*
X94371053Y-121371410D01*
G37*
D17*
G04 #@! TO.P,U1,37*
G04 #@! TO.N,Net-(U1-Pad37)*
X94600862Y-122661880D03*
D10*
G04 #@! TD*
G04 #@! TO.N,Net-(U1-Pad37)*
G04 #@! TO.C,U1*
G36*
X94936738Y-121937096D02*
X95325646Y-122326004D01*
X94264986Y-123386664D01*
X93876078Y-122997756D01*
X94936738Y-121937096D01*
X94936738Y-121937096D01*
G37*
D17*
G04 #@! TO.P,U1,36*
G04 #@! TO.N,Net-(U1-Pad36)*
X95166548Y-123227565D03*
D10*
G04 #@! TD*
G04 #@! TO.N,Net-(U1-Pad36)*
G04 #@! TO.C,U1*
G36*
X95502424Y-122502781D02*
X95891332Y-122891689D01*
X94830672Y-123952349D01*
X94441764Y-123563441D01*
X95502424Y-122502781D01*
X95502424Y-122502781D01*
G37*
D17*
G04 #@! TO.P,U1,35*
G04 #@! TO.N,GND*
X95732233Y-123793250D03*
D10*
G04 #@! TD*
G04 #@! TO.N,GND*
G04 #@! TO.C,U1*
G36*
X96068109Y-123068466D02*
X96457017Y-123457374D01*
X95396357Y-124518034D01*
X95007449Y-124129126D01*
X96068109Y-123068466D01*
X96068109Y-123068466D01*
G37*
D17*
G04 #@! TO.P,U1,34*
G04 #@! TO.N,VBUS*
X96297918Y-124358936D03*
D10*
G04 #@! TD*
G04 #@! TO.N,VBUS*
G04 #@! TO.C,U1*
G36*
X96633794Y-123634152D02*
X97022702Y-124023060D01*
X95962042Y-125083720D01*
X95573134Y-124694812D01*
X96633794Y-123634152D01*
X96633794Y-123634152D01*
G37*
D17*
G04 #@! TO.P,U1,33*
G04 #@! TO.N,GND*
X98702082Y-124358936D03*
D10*
G04 #@! TD*
G04 #@! TO.N,GND*
G04 #@! TO.C,U1*
G36*
X97977298Y-124023060D02*
X98366206Y-123634152D01*
X99426866Y-124694812D01*
X99037958Y-125083720D01*
X97977298Y-124023060D01*
X97977298Y-124023060D01*
G37*
D17*
G04 #@! TO.P,U1,32*
G04 #@! TO.N,Net-(U1-Pad32)*
X99267767Y-123793250D03*
D10*
G04 #@! TD*
G04 #@! TO.N,Net-(U1-Pad32)*
G04 #@! TO.C,U1*
G36*
X98542983Y-123457374D02*
X98931891Y-123068466D01*
X99992551Y-124129126D01*
X99603643Y-124518034D01*
X98542983Y-123457374D01*
X98542983Y-123457374D01*
G37*
D17*
G04 #@! TO.P,U1,31*
G04 #@! TO.N,Net-(U1-Pad31)*
X99833452Y-123227565D03*
D10*
G04 #@! TD*
G04 #@! TO.N,Net-(U1-Pad31)*
G04 #@! TO.C,U1*
G36*
X99108668Y-122891689D02*
X99497576Y-122502781D01*
X100558236Y-123563441D01*
X100169328Y-123952349D01*
X99108668Y-122891689D01*
X99108668Y-122891689D01*
G37*
D17*
G04 #@! TO.P,U1,30*
G04 #@! TO.N,COL06*
X100399138Y-122661880D03*
D10*
G04 #@! TD*
G04 #@! TO.N,COL06*
G04 #@! TO.C,U1*
G36*
X99674354Y-122326004D02*
X100063262Y-121937096D01*
X101123922Y-122997756D01*
X100735014Y-123386664D01*
X99674354Y-122326004D01*
X99674354Y-122326004D01*
G37*
D17*
G04 #@! TO.P,U1,29*
G04 #@! TO.N,COL05*
X100964823Y-122096194D03*
D10*
G04 #@! TD*
G04 #@! TO.N,COL05*
G04 #@! TO.C,U1*
G36*
X100240039Y-121760318D02*
X100628947Y-121371410D01*
X101689607Y-122432070D01*
X101300699Y-122820978D01*
X100240039Y-121760318D01*
X100240039Y-121760318D01*
G37*
D17*
G04 #@! TO.P,U1,28*
G04 #@! TO.N,COL04*
X101530509Y-121530509D03*
D10*
G04 #@! TD*
G04 #@! TO.N,COL04*
G04 #@! TO.C,U1*
G36*
X100805725Y-121194633D02*
X101194633Y-120805725D01*
X102255293Y-121866385D01*
X101866385Y-122255293D01*
X100805725Y-121194633D01*
X100805725Y-121194633D01*
G37*
D17*
G04 #@! TO.P,U1,27*
G04 #@! TO.N,ROW03*
X102096194Y-120964823D03*
D10*
G04 #@! TD*
G04 #@! TO.N,ROW03*
G04 #@! TO.C,U1*
G36*
X101371410Y-120628947D02*
X101760318Y-120240039D01*
X102820978Y-121300699D01*
X102432070Y-121689607D01*
X101371410Y-120628947D01*
X101371410Y-120628947D01*
G37*
D17*
G04 #@! TO.P,U1,26*
G04 #@! TO.N,ROW02*
X102661880Y-120399138D03*
D10*
G04 #@! TD*
G04 #@! TO.N,ROW02*
G04 #@! TO.C,U1*
G36*
X101937096Y-120063262D02*
X102326004Y-119674354D01*
X103386664Y-120735014D01*
X102997756Y-121123922D01*
X101937096Y-120063262D01*
X101937096Y-120063262D01*
G37*
D17*
G04 #@! TO.P,U1,25*
G04 #@! TO.N,ROW00*
X103227565Y-119833452D03*
D10*
G04 #@! TD*
G04 #@! TO.N,ROW00*
G04 #@! TO.C,U1*
G36*
X102502781Y-119497576D02*
X102891689Y-119108668D01*
X103952349Y-120169328D01*
X103563441Y-120558236D01*
X102502781Y-119497576D01*
X102502781Y-119497576D01*
G37*
D17*
G04 #@! TO.P,U1,24*
G04 #@! TO.N,VBUS*
X103793250Y-119267767D03*
D10*
G04 #@! TD*
G04 #@! TO.N,VBUS*
G04 #@! TO.C,U1*
G36*
X103068466Y-118931891D02*
X103457374Y-118542983D01*
X104518034Y-119603643D01*
X104129126Y-119992551D01*
X103068466Y-118931891D01*
X103068466Y-118931891D01*
G37*
D17*
G04 #@! TO.P,U1,23*
G04 #@! TO.N,GND*
X104358936Y-118702082D03*
D10*
G04 #@! TD*
G04 #@! TO.N,GND*
G04 #@! TO.C,U1*
G36*
X103634152Y-118366206D02*
X104023060Y-117977298D01*
X105083720Y-119037958D01*
X104694812Y-119426866D01*
X103634152Y-118366206D01*
X103634152Y-118366206D01*
G37*
D17*
G04 #@! TO.P,U1,22*
G04 #@! TO.N,ROW01*
X104358936Y-116297918D03*
D10*
G04 #@! TD*
G04 #@! TO.N,ROW01*
G04 #@! TO.C,U1*
G36*
X104694812Y-115573134D02*
X105083720Y-115962042D01*
X104023060Y-117022702D01*
X103634152Y-116633794D01*
X104694812Y-115573134D01*
X104694812Y-115573134D01*
G37*
D17*
G04 #@! TO.P,U1,21*
G04 #@! TO.N,COL11*
X103793250Y-115732233D03*
D10*
G04 #@! TD*
G04 #@! TO.N,COL11*
G04 #@! TO.C,U1*
G36*
X104129126Y-115007449D02*
X104518034Y-115396357D01*
X103457374Y-116457017D01*
X103068466Y-116068109D01*
X104129126Y-115007449D01*
X104129126Y-115007449D01*
G37*
D17*
G04 #@! TO.P,U1,20*
G04 #@! TO.N,COL10*
X103227565Y-115166548D03*
D10*
G04 #@! TD*
G04 #@! TO.N,COL10*
G04 #@! TO.C,U1*
G36*
X103563441Y-114441764D02*
X103952349Y-114830672D01*
X102891689Y-115891332D01*
X102502781Y-115502424D01*
X103563441Y-114441764D01*
X103563441Y-114441764D01*
G37*
D17*
G04 #@! TO.P,U1,19*
G04 #@! TO.N,COL09*
X102661880Y-114600862D03*
D10*
G04 #@! TD*
G04 #@! TO.N,COL09*
G04 #@! TO.C,U1*
G36*
X102997756Y-113876078D02*
X103386664Y-114264986D01*
X102326004Y-115325646D01*
X101937096Y-114936738D01*
X102997756Y-113876078D01*
X102997756Y-113876078D01*
G37*
D17*
G04 #@! TO.P,U1,18*
G04 #@! TO.N,COL08*
X102096194Y-114035177D03*
D10*
G04 #@! TD*
G04 #@! TO.N,COL08*
G04 #@! TO.C,U1*
G36*
X102432070Y-113310393D02*
X102820978Y-113699301D01*
X101760318Y-114759961D01*
X101371410Y-114371053D01*
X102432070Y-113310393D01*
X102432070Y-113310393D01*
G37*
D17*
G04 #@! TO.P,U1,17*
G04 #@! TO.N,X1*
X101530509Y-113469491D03*
D10*
G04 #@! TD*
G04 #@! TO.N,X1*
G04 #@! TO.C,U1*
G36*
X101866385Y-112744707D02*
X102255293Y-113133615D01*
X101194633Y-114194275D01*
X100805725Y-113805367D01*
X101866385Y-112744707D01*
X101866385Y-112744707D01*
G37*
D17*
G04 #@! TO.P,U1,16*
G04 #@! TO.N,X2*
X100964823Y-112903806D03*
D10*
G04 #@! TD*
G04 #@! TO.N,X2*
G04 #@! TO.C,U1*
G36*
X101300699Y-112179022D02*
X101689607Y-112567930D01*
X100628947Y-113628590D01*
X100240039Y-113239682D01*
X101300699Y-112179022D01*
X101300699Y-112179022D01*
G37*
D17*
G04 #@! TO.P,U1,15*
G04 #@! TO.N,GND*
X100399138Y-112338120D03*
D10*
G04 #@! TD*
G04 #@! TO.N,GND*
G04 #@! TO.C,U1*
G36*
X100735014Y-111613336D02*
X101123922Y-112002244D01*
X100063262Y-113062904D01*
X99674354Y-112673996D01*
X100735014Y-111613336D01*
X100735014Y-111613336D01*
G37*
D17*
G04 #@! TO.P,U1,14*
G04 #@! TO.N,VBUS*
X99833452Y-111772435D03*
D10*
G04 #@! TD*
G04 #@! TO.N,VBUS*
G04 #@! TO.C,U1*
G36*
X100169328Y-111047651D02*
X100558236Y-111436559D01*
X99497576Y-112497219D01*
X99108668Y-112108311D01*
X100169328Y-111047651D01*
X100169328Y-111047651D01*
G37*
D17*
G04 #@! TO.P,U1,13*
G04 #@! TO.N,RST*
X99267767Y-111206750D03*
D10*
G04 #@! TD*
G04 #@! TO.N,RST*
G04 #@! TO.C,U1*
G36*
X99603643Y-110481966D02*
X99992551Y-110870874D01*
X98931891Y-111931534D01*
X98542983Y-111542626D01*
X99603643Y-110481966D01*
X99603643Y-110481966D01*
G37*
D17*
G04 #@! TO.P,U1,12*
G04 #@! TO.N,COL07*
X98702082Y-110641064D03*
D10*
G04 #@! TD*
G04 #@! TO.N,COL07*
G04 #@! TO.C,U1*
G36*
X99037958Y-109916280D02*
X99426866Y-110305188D01*
X98366206Y-111365848D01*
X97977298Y-110976940D01*
X99037958Y-109916280D01*
X99037958Y-109916280D01*
G37*
D17*
G04 #@! TO.P,U1,11*
G04 #@! TO.N,COL03*
X96297918Y-110641064D03*
D10*
G04 #@! TD*
G04 #@! TO.N,COL03*
G04 #@! TO.C,U1*
G36*
X95573134Y-110305188D02*
X95962042Y-109916280D01*
X97022702Y-110976940D01*
X96633794Y-111365848D01*
X95573134Y-110305188D01*
X95573134Y-110305188D01*
G37*
D17*
G04 #@! TO.P,U1,10*
G04 #@! TO.N,COL02*
X95732233Y-111206750D03*
D10*
G04 #@! TD*
G04 #@! TO.N,COL02*
G04 #@! TO.C,U1*
G36*
X95007449Y-110870874D02*
X95396357Y-110481966D01*
X96457017Y-111542626D01*
X96068109Y-111931534D01*
X95007449Y-110870874D01*
X95007449Y-110870874D01*
G37*
D17*
G04 #@! TO.P,U1,9*
G04 #@! TO.N,COL01*
X95166548Y-111772435D03*
D10*
G04 #@! TD*
G04 #@! TO.N,COL01*
G04 #@! TO.C,U1*
G36*
X94441764Y-111436559D02*
X94830672Y-111047651D01*
X95891332Y-112108311D01*
X95502424Y-112497219D01*
X94441764Y-111436559D01*
X94441764Y-111436559D01*
G37*
D17*
G04 #@! TO.P,U1,8*
G04 #@! TO.N,COL00*
X94600862Y-112338120D03*
D10*
G04 #@! TD*
G04 #@! TO.N,COL00*
G04 #@! TO.C,U1*
G36*
X93876078Y-112002244D02*
X94264986Y-111613336D01*
X95325646Y-112673996D01*
X94936738Y-113062904D01*
X93876078Y-112002244D01*
X93876078Y-112002244D01*
G37*
D17*
G04 #@! TO.P,U1,7*
G04 #@! TO.N,VBUS*
X94035177Y-112903806D03*
D10*
G04 #@! TD*
G04 #@! TO.N,VBUS*
G04 #@! TO.C,U1*
G36*
X93310393Y-112567930D02*
X93699301Y-112179022D01*
X94759961Y-113239682D01*
X94371053Y-113628590D01*
X93310393Y-112567930D01*
X93310393Y-112567930D01*
G37*
D17*
G04 #@! TO.P,U1,6*
G04 #@! TO.N,UCAP*
X93469491Y-113469491D03*
D10*
G04 #@! TD*
G04 #@! TO.N,UCAP*
G04 #@! TO.C,U1*
G36*
X92744707Y-113133615D02*
X93133615Y-112744707D01*
X94194275Y-113805367D01*
X93805367Y-114194275D01*
X92744707Y-113133615D01*
X92744707Y-113133615D01*
G37*
D17*
G04 #@! TO.P,U1,5*
G04 #@! TO.N,GND*
X92903806Y-114035177D03*
D10*
G04 #@! TD*
G04 #@! TO.N,GND*
G04 #@! TO.C,U1*
G36*
X92179022Y-113699301D02*
X92567930Y-113310393D01*
X93628590Y-114371053D01*
X93239682Y-114759961D01*
X92179022Y-113699301D01*
X92179022Y-113699301D01*
G37*
D17*
G04 #@! TO.P,U1,4*
G04 #@! TO.N,D+*
X92338120Y-114600862D03*
D10*
G04 #@! TD*
G04 #@! TO.N,D+*
G04 #@! TO.C,U1*
G36*
X91613336Y-114264986D02*
X92002244Y-113876078D01*
X93062904Y-114936738D01*
X92673996Y-115325646D01*
X91613336Y-114264986D01*
X91613336Y-114264986D01*
G37*
D17*
G04 #@! TO.P,U1,3*
G04 #@! TO.N,D-*
X91772435Y-115166548D03*
D10*
G04 #@! TD*
G04 #@! TO.N,D-*
G04 #@! TO.C,U1*
G36*
X91047651Y-114830672D02*
X91436559Y-114441764D01*
X92497219Y-115502424D01*
X92108311Y-115891332D01*
X91047651Y-114830672D01*
X91047651Y-114830672D01*
G37*
D17*
G04 #@! TO.P,U1,2*
G04 #@! TO.N,VBUS*
X91206750Y-115732233D03*
D10*
G04 #@! TD*
G04 #@! TO.N,VBUS*
G04 #@! TO.C,U1*
G36*
X90481966Y-115396357D02*
X90870874Y-115007449D01*
X91931534Y-116068109D01*
X91542626Y-116457017D01*
X90481966Y-115396357D01*
X90481966Y-115396357D01*
G37*
D17*
G04 #@! TO.P,U1,1*
G04 #@! TO.N,Net-(U1-Pad1)*
X90641064Y-116297918D03*
D10*
G04 #@! TD*
G04 #@! TO.N,Net-(U1-Pad1)*
G04 #@! TO.C,U1*
G36*
X89916280Y-115962042D02*
X90305188Y-115573134D01*
X91365848Y-116633794D01*
X90976940Y-117022702D01*
X89916280Y-115962042D01*
X89916280Y-115962042D01*
G37*
D18*
G04 #@! TO.P,Y1,4*
G04 #@! TO.N,GND*
X75350000Y-116050000D03*
G04 #@! TO.P,Y1,3*
G04 #@! TO.N,X2*
X75350000Y-118950000D03*
G04 #@! TO.P,Y1,2*
G04 #@! TO.N,GND*
X77650000Y-118950000D03*
G04 #@! TO.P,Y1,1*
G04 #@! TO.N,X1*
X77650000Y-116050000D03*
G04 #@! TD*
D10*
G04 #@! TO.N,GND*
G04 #@! TO.C,C1*
G36*
X88888108Y-119978412D02*
X88912376Y-119982012D01*
X88936175Y-119987973D01*
X88959274Y-119996238D01*
X88981453Y-120006728D01*
X89002496Y-120019340D01*
X89022202Y-120033955D01*
X89040380Y-120050431D01*
X89500001Y-120510052D01*
X89516477Y-120528230D01*
X89531092Y-120547936D01*
X89543704Y-120568979D01*
X89554194Y-120591158D01*
X89562459Y-120614257D01*
X89568420Y-120638056D01*
X89572020Y-120662324D01*
X89573224Y-120686828D01*
X89572020Y-120711332D01*
X89568420Y-120735600D01*
X89562459Y-120759399D01*
X89554194Y-120782498D01*
X89543704Y-120804677D01*
X89531092Y-120825720D01*
X89516477Y-120845426D01*
X89500001Y-120863604D01*
X88863604Y-121500001D01*
X88845426Y-121516477D01*
X88825720Y-121531092D01*
X88804677Y-121543704D01*
X88782498Y-121554194D01*
X88759399Y-121562459D01*
X88735600Y-121568420D01*
X88711332Y-121572020D01*
X88686828Y-121573224D01*
X88662324Y-121572020D01*
X88638056Y-121568420D01*
X88614257Y-121562459D01*
X88591158Y-121554194D01*
X88568979Y-121543704D01*
X88547936Y-121531092D01*
X88528230Y-121516477D01*
X88510052Y-121500001D01*
X88050431Y-121040380D01*
X88033955Y-121022202D01*
X88019340Y-121002496D01*
X88006728Y-120981453D01*
X87996238Y-120959274D01*
X87987973Y-120936175D01*
X87982012Y-120912376D01*
X87978412Y-120888108D01*
X87977208Y-120863604D01*
X87978412Y-120839100D01*
X87982012Y-120814832D01*
X87987973Y-120791033D01*
X87996238Y-120767934D01*
X88006728Y-120745755D01*
X88019340Y-120724712D01*
X88033955Y-120705006D01*
X88050431Y-120686828D01*
X88686828Y-120050431D01*
X88705006Y-120033955D01*
X88724712Y-120019340D01*
X88745755Y-120006728D01*
X88767934Y-119996238D01*
X88791033Y-119987973D01*
X88814832Y-119982012D01*
X88839100Y-119978412D01*
X88863604Y-119977208D01*
X88888108Y-119978412D01*
X88888108Y-119978412D01*
G37*
D11*
G04 #@! TD*
G04 #@! TO.P,C1,2*
G04 #@! TO.N,GND*
X88775216Y-120775216D03*
D10*
G04 #@! TO.N,AREF*
G04 #@! TO.C,C1*
G36*
X90337676Y-121427980D02*
X90361944Y-121431580D01*
X90385743Y-121437541D01*
X90408842Y-121445806D01*
X90431021Y-121456296D01*
X90452064Y-121468908D01*
X90471770Y-121483523D01*
X90489948Y-121499999D01*
X90949569Y-121959620D01*
X90966045Y-121977798D01*
X90980660Y-121997504D01*
X90993272Y-122018547D01*
X91003762Y-122040726D01*
X91012027Y-122063825D01*
X91017988Y-122087624D01*
X91021588Y-122111892D01*
X91022792Y-122136396D01*
X91021588Y-122160900D01*
X91017988Y-122185168D01*
X91012027Y-122208967D01*
X91003762Y-122232066D01*
X90993272Y-122254245D01*
X90980660Y-122275288D01*
X90966045Y-122294994D01*
X90949569Y-122313172D01*
X90313172Y-122949569D01*
X90294994Y-122966045D01*
X90275288Y-122980660D01*
X90254245Y-122993272D01*
X90232066Y-123003762D01*
X90208967Y-123012027D01*
X90185168Y-123017988D01*
X90160900Y-123021588D01*
X90136396Y-123022792D01*
X90111892Y-123021588D01*
X90087624Y-123017988D01*
X90063825Y-123012027D01*
X90040726Y-123003762D01*
X90018547Y-122993272D01*
X89997504Y-122980660D01*
X89977798Y-122966045D01*
X89959620Y-122949569D01*
X89499999Y-122489948D01*
X89483523Y-122471770D01*
X89468908Y-122452064D01*
X89456296Y-122431021D01*
X89445806Y-122408842D01*
X89437541Y-122385743D01*
X89431580Y-122361944D01*
X89427980Y-122337676D01*
X89426776Y-122313172D01*
X89427980Y-122288668D01*
X89431580Y-122264400D01*
X89437541Y-122240601D01*
X89445806Y-122217502D01*
X89456296Y-122195323D01*
X89468908Y-122174280D01*
X89483523Y-122154574D01*
X89499999Y-122136396D01*
X90136396Y-121499999D01*
X90154574Y-121483523D01*
X90174280Y-121468908D01*
X90195323Y-121456296D01*
X90217502Y-121445806D01*
X90240601Y-121437541D01*
X90264400Y-121431580D01*
X90288668Y-121427980D01*
X90313172Y-121426776D01*
X90337676Y-121427980D01*
X90337676Y-121427980D01*
G37*
D11*
G04 #@! TD*
G04 #@! TO.P,C1,1*
G04 #@! TO.N,AREF*
X90224784Y-122224784D03*
D10*
G04 #@! TO.N,GND*
G04 #@! TO.C,C2*
G36*
X86474505Y-117951204D02*
X86498773Y-117954804D01*
X86522572Y-117960765D01*
X86545671Y-117969030D01*
X86567850Y-117979520D01*
X86588893Y-117992132D01*
X86608599Y-118006747D01*
X86626777Y-118023223D01*
X86643253Y-118041401D01*
X86657868Y-118061107D01*
X86670480Y-118082150D01*
X86680970Y-118104329D01*
X86689235Y-118127428D01*
X86695196Y-118151227D01*
X86698796Y-118175495D01*
X86700000Y-118199999D01*
X86700000Y-118850001D01*
X86698796Y-118874505D01*
X86695196Y-118898773D01*
X86689235Y-118922572D01*
X86680970Y-118945671D01*
X86670480Y-118967850D01*
X86657868Y-118988893D01*
X86643253Y-119008599D01*
X86626777Y-119026777D01*
X86608599Y-119043253D01*
X86588893Y-119057868D01*
X86567850Y-119070480D01*
X86545671Y-119080970D01*
X86522572Y-119089235D01*
X86498773Y-119095196D01*
X86474505Y-119098796D01*
X86450001Y-119100000D01*
X85549999Y-119100000D01*
X85525495Y-119098796D01*
X85501227Y-119095196D01*
X85477428Y-119089235D01*
X85454329Y-119080970D01*
X85432150Y-119070480D01*
X85411107Y-119057868D01*
X85391401Y-119043253D01*
X85373223Y-119026777D01*
X85356747Y-119008599D01*
X85342132Y-118988893D01*
X85329520Y-118967850D01*
X85319030Y-118945671D01*
X85310765Y-118922572D01*
X85304804Y-118898773D01*
X85301204Y-118874505D01*
X85300000Y-118850001D01*
X85300000Y-118199999D01*
X85301204Y-118175495D01*
X85304804Y-118151227D01*
X85310765Y-118127428D01*
X85319030Y-118104329D01*
X85329520Y-118082150D01*
X85342132Y-118061107D01*
X85356747Y-118041401D01*
X85373223Y-118023223D01*
X85391401Y-118006747D01*
X85411107Y-117992132D01*
X85432150Y-117979520D01*
X85454329Y-117969030D01*
X85477428Y-117960765D01*
X85501227Y-117954804D01*
X85525495Y-117951204D01*
X85549999Y-117950000D01*
X86450001Y-117950000D01*
X86474505Y-117951204D01*
X86474505Y-117951204D01*
G37*
D11*
G04 #@! TD*
G04 #@! TO.P,C2,2*
G04 #@! TO.N,GND*
X86000000Y-118525000D03*
D10*
G04 #@! TO.N,UCAP*
G04 #@! TO.C,C2*
G36*
X86474505Y-115901204D02*
X86498773Y-115904804D01*
X86522572Y-115910765D01*
X86545671Y-115919030D01*
X86567850Y-115929520D01*
X86588893Y-115942132D01*
X86608599Y-115956747D01*
X86626777Y-115973223D01*
X86643253Y-115991401D01*
X86657868Y-116011107D01*
X86670480Y-116032150D01*
X86680970Y-116054329D01*
X86689235Y-116077428D01*
X86695196Y-116101227D01*
X86698796Y-116125495D01*
X86700000Y-116149999D01*
X86700000Y-116800001D01*
X86698796Y-116824505D01*
X86695196Y-116848773D01*
X86689235Y-116872572D01*
X86680970Y-116895671D01*
X86670480Y-116917850D01*
X86657868Y-116938893D01*
X86643253Y-116958599D01*
X86626777Y-116976777D01*
X86608599Y-116993253D01*
X86588893Y-117007868D01*
X86567850Y-117020480D01*
X86545671Y-117030970D01*
X86522572Y-117039235D01*
X86498773Y-117045196D01*
X86474505Y-117048796D01*
X86450001Y-117050000D01*
X85549999Y-117050000D01*
X85525495Y-117048796D01*
X85501227Y-117045196D01*
X85477428Y-117039235D01*
X85454329Y-117030970D01*
X85432150Y-117020480D01*
X85411107Y-117007868D01*
X85391401Y-116993253D01*
X85373223Y-116976777D01*
X85356747Y-116958599D01*
X85342132Y-116938893D01*
X85329520Y-116917850D01*
X85319030Y-116895671D01*
X85310765Y-116872572D01*
X85304804Y-116848773D01*
X85301204Y-116824505D01*
X85300000Y-116800001D01*
X85300000Y-116149999D01*
X85301204Y-116125495D01*
X85304804Y-116101227D01*
X85310765Y-116077428D01*
X85319030Y-116054329D01*
X85329520Y-116032150D01*
X85342132Y-116011107D01*
X85356747Y-115991401D01*
X85373223Y-115973223D01*
X85391401Y-115956747D01*
X85411107Y-115942132D01*
X85432150Y-115929520D01*
X85454329Y-115919030D01*
X85477428Y-115910765D01*
X85501227Y-115904804D01*
X85525495Y-115901204D01*
X85549999Y-115900000D01*
X86450001Y-115900000D01*
X86474505Y-115901204D01*
X86474505Y-115901204D01*
G37*
D11*
G04 #@! TD*
G04 #@! TO.P,C2,1*
G04 #@! TO.N,UCAP*
X86000000Y-116475000D03*
D10*
G04 #@! TO.N,GND*
G04 #@! TO.C,C3*
G36*
X84374505Y-115801204D02*
X84398773Y-115804804D01*
X84422572Y-115810765D01*
X84445671Y-115819030D01*
X84467850Y-115829520D01*
X84488893Y-115842132D01*
X84508599Y-115856747D01*
X84526777Y-115873223D01*
X84543253Y-115891401D01*
X84557868Y-115911107D01*
X84570480Y-115932150D01*
X84580970Y-115954329D01*
X84589235Y-115977428D01*
X84595196Y-116001227D01*
X84598796Y-116025495D01*
X84600000Y-116049999D01*
X84600000Y-116950001D01*
X84598796Y-116974505D01*
X84595196Y-116998773D01*
X84589235Y-117022572D01*
X84580970Y-117045671D01*
X84570480Y-117067850D01*
X84557868Y-117088893D01*
X84543253Y-117108599D01*
X84526777Y-117126777D01*
X84508599Y-117143253D01*
X84488893Y-117157868D01*
X84467850Y-117170480D01*
X84445671Y-117180970D01*
X84422572Y-117189235D01*
X84398773Y-117195196D01*
X84374505Y-117198796D01*
X84350001Y-117200000D01*
X83699999Y-117200000D01*
X83675495Y-117198796D01*
X83651227Y-117195196D01*
X83627428Y-117189235D01*
X83604329Y-117180970D01*
X83582150Y-117170480D01*
X83561107Y-117157868D01*
X83541401Y-117143253D01*
X83523223Y-117126777D01*
X83506747Y-117108599D01*
X83492132Y-117088893D01*
X83479520Y-117067850D01*
X83469030Y-117045671D01*
X83460765Y-117022572D01*
X83454804Y-116998773D01*
X83451204Y-116974505D01*
X83450000Y-116950001D01*
X83450000Y-116049999D01*
X83451204Y-116025495D01*
X83454804Y-116001227D01*
X83460765Y-115977428D01*
X83469030Y-115954329D01*
X83479520Y-115932150D01*
X83492132Y-115911107D01*
X83506747Y-115891401D01*
X83523223Y-115873223D01*
X83541401Y-115856747D01*
X83561107Y-115842132D01*
X83582150Y-115829520D01*
X83604329Y-115819030D01*
X83627428Y-115810765D01*
X83651227Y-115804804D01*
X83675495Y-115801204D01*
X83699999Y-115800000D01*
X84350001Y-115800000D01*
X84374505Y-115801204D01*
X84374505Y-115801204D01*
G37*
D11*
G04 #@! TD*
G04 #@! TO.P,C3,2*
G04 #@! TO.N,GND*
X84025000Y-116500000D03*
D10*
G04 #@! TO.N,X1*
G04 #@! TO.C,C3*
G36*
X82324505Y-115801204D02*
X82348773Y-115804804D01*
X82372572Y-115810765D01*
X82395671Y-115819030D01*
X82417850Y-115829520D01*
X82438893Y-115842132D01*
X82458599Y-115856747D01*
X82476777Y-115873223D01*
X82493253Y-115891401D01*
X82507868Y-115911107D01*
X82520480Y-115932150D01*
X82530970Y-115954329D01*
X82539235Y-115977428D01*
X82545196Y-116001227D01*
X82548796Y-116025495D01*
X82550000Y-116049999D01*
X82550000Y-116950001D01*
X82548796Y-116974505D01*
X82545196Y-116998773D01*
X82539235Y-117022572D01*
X82530970Y-117045671D01*
X82520480Y-117067850D01*
X82507868Y-117088893D01*
X82493253Y-117108599D01*
X82476777Y-117126777D01*
X82458599Y-117143253D01*
X82438893Y-117157868D01*
X82417850Y-117170480D01*
X82395671Y-117180970D01*
X82372572Y-117189235D01*
X82348773Y-117195196D01*
X82324505Y-117198796D01*
X82300001Y-117200000D01*
X81649999Y-117200000D01*
X81625495Y-117198796D01*
X81601227Y-117195196D01*
X81577428Y-117189235D01*
X81554329Y-117180970D01*
X81532150Y-117170480D01*
X81511107Y-117157868D01*
X81491401Y-117143253D01*
X81473223Y-117126777D01*
X81456747Y-117108599D01*
X81442132Y-117088893D01*
X81429520Y-117067850D01*
X81419030Y-117045671D01*
X81410765Y-117022572D01*
X81404804Y-116998773D01*
X81401204Y-116974505D01*
X81400000Y-116950001D01*
X81400000Y-116049999D01*
X81401204Y-116025495D01*
X81404804Y-116001227D01*
X81410765Y-115977428D01*
X81419030Y-115954329D01*
X81429520Y-115932150D01*
X81442132Y-115911107D01*
X81456747Y-115891401D01*
X81473223Y-115873223D01*
X81491401Y-115856747D01*
X81511107Y-115842132D01*
X81532150Y-115829520D01*
X81554329Y-115819030D01*
X81577428Y-115810765D01*
X81601227Y-115804804D01*
X81625495Y-115801204D01*
X81649999Y-115800000D01*
X82300001Y-115800000D01*
X82324505Y-115801204D01*
X82324505Y-115801204D01*
G37*
D11*
G04 #@! TD*
G04 #@! TO.P,C3,1*
G04 #@! TO.N,X1*
X81975000Y-116500000D03*
D10*
G04 #@! TO.N,GND*
G04 #@! TO.C,C4*
G36*
X84374505Y-117801204D02*
X84398773Y-117804804D01*
X84422572Y-117810765D01*
X84445671Y-117819030D01*
X84467850Y-117829520D01*
X84488893Y-117842132D01*
X84508599Y-117856747D01*
X84526777Y-117873223D01*
X84543253Y-117891401D01*
X84557868Y-117911107D01*
X84570480Y-117932150D01*
X84580970Y-117954329D01*
X84589235Y-117977428D01*
X84595196Y-118001227D01*
X84598796Y-118025495D01*
X84600000Y-118049999D01*
X84600000Y-118950001D01*
X84598796Y-118974505D01*
X84595196Y-118998773D01*
X84589235Y-119022572D01*
X84580970Y-119045671D01*
X84570480Y-119067850D01*
X84557868Y-119088893D01*
X84543253Y-119108599D01*
X84526777Y-119126777D01*
X84508599Y-119143253D01*
X84488893Y-119157868D01*
X84467850Y-119170480D01*
X84445671Y-119180970D01*
X84422572Y-119189235D01*
X84398773Y-119195196D01*
X84374505Y-119198796D01*
X84350001Y-119200000D01*
X83699999Y-119200000D01*
X83675495Y-119198796D01*
X83651227Y-119195196D01*
X83627428Y-119189235D01*
X83604329Y-119180970D01*
X83582150Y-119170480D01*
X83561107Y-119157868D01*
X83541401Y-119143253D01*
X83523223Y-119126777D01*
X83506747Y-119108599D01*
X83492132Y-119088893D01*
X83479520Y-119067850D01*
X83469030Y-119045671D01*
X83460765Y-119022572D01*
X83454804Y-118998773D01*
X83451204Y-118974505D01*
X83450000Y-118950001D01*
X83450000Y-118049999D01*
X83451204Y-118025495D01*
X83454804Y-118001227D01*
X83460765Y-117977428D01*
X83469030Y-117954329D01*
X83479520Y-117932150D01*
X83492132Y-117911107D01*
X83506747Y-117891401D01*
X83523223Y-117873223D01*
X83541401Y-117856747D01*
X83561107Y-117842132D01*
X83582150Y-117829520D01*
X83604329Y-117819030D01*
X83627428Y-117810765D01*
X83651227Y-117804804D01*
X83675495Y-117801204D01*
X83699999Y-117800000D01*
X84350001Y-117800000D01*
X84374505Y-117801204D01*
X84374505Y-117801204D01*
G37*
D11*
G04 #@! TD*
G04 #@! TO.P,C4,2*
G04 #@! TO.N,GND*
X84025000Y-118500000D03*
D10*
G04 #@! TO.N,X2*
G04 #@! TO.C,C4*
G36*
X82324505Y-117801204D02*
X82348773Y-117804804D01*
X82372572Y-117810765D01*
X82395671Y-117819030D01*
X82417850Y-117829520D01*
X82438893Y-117842132D01*
X82458599Y-117856747D01*
X82476777Y-117873223D01*
X82493253Y-117891401D01*
X82507868Y-117911107D01*
X82520480Y-117932150D01*
X82530970Y-117954329D01*
X82539235Y-117977428D01*
X82545196Y-118001227D01*
X82548796Y-118025495D01*
X82550000Y-118049999D01*
X82550000Y-118950001D01*
X82548796Y-118974505D01*
X82545196Y-118998773D01*
X82539235Y-119022572D01*
X82530970Y-119045671D01*
X82520480Y-119067850D01*
X82507868Y-119088893D01*
X82493253Y-119108599D01*
X82476777Y-119126777D01*
X82458599Y-119143253D01*
X82438893Y-119157868D01*
X82417850Y-119170480D01*
X82395671Y-119180970D01*
X82372572Y-119189235D01*
X82348773Y-119195196D01*
X82324505Y-119198796D01*
X82300001Y-119200000D01*
X81649999Y-119200000D01*
X81625495Y-119198796D01*
X81601227Y-119195196D01*
X81577428Y-119189235D01*
X81554329Y-119180970D01*
X81532150Y-119170480D01*
X81511107Y-119157868D01*
X81491401Y-119143253D01*
X81473223Y-119126777D01*
X81456747Y-119108599D01*
X81442132Y-119088893D01*
X81429520Y-119067850D01*
X81419030Y-119045671D01*
X81410765Y-119022572D01*
X81404804Y-118998773D01*
X81401204Y-118974505D01*
X81400000Y-118950001D01*
X81400000Y-118049999D01*
X81401204Y-118025495D01*
X81404804Y-118001227D01*
X81410765Y-117977428D01*
X81419030Y-117954329D01*
X81429520Y-117932150D01*
X81442132Y-117911107D01*
X81456747Y-117891401D01*
X81473223Y-117873223D01*
X81491401Y-117856747D01*
X81511107Y-117842132D01*
X81532150Y-117829520D01*
X81554329Y-117819030D01*
X81577428Y-117810765D01*
X81601227Y-117804804D01*
X81625495Y-117801204D01*
X81649999Y-117800000D01*
X82300001Y-117800000D01*
X82324505Y-117801204D01*
X82324505Y-117801204D01*
G37*
D11*
G04 #@! TD*
G04 #@! TO.P,C4,1*
G04 #@! TO.N,X2*
X81975000Y-118500000D03*
D10*
G04 #@! TO.N,D-*
G04 #@! TO.C,R2*
G36*
X80474505Y-79951204D02*
X80498773Y-79954804D01*
X80522572Y-79960765D01*
X80545671Y-79969030D01*
X80567850Y-79979520D01*
X80588893Y-79992132D01*
X80608599Y-80006747D01*
X80626777Y-80023223D01*
X80643253Y-80041401D01*
X80657868Y-80061107D01*
X80670480Y-80082150D01*
X80680970Y-80104329D01*
X80689235Y-80127428D01*
X80695196Y-80151227D01*
X80698796Y-80175495D01*
X80700000Y-80199999D01*
X80700000Y-80850001D01*
X80698796Y-80874505D01*
X80695196Y-80898773D01*
X80689235Y-80922572D01*
X80680970Y-80945671D01*
X80670480Y-80967850D01*
X80657868Y-80988893D01*
X80643253Y-81008599D01*
X80626777Y-81026777D01*
X80608599Y-81043253D01*
X80588893Y-81057868D01*
X80567850Y-81070480D01*
X80545671Y-81080970D01*
X80522572Y-81089235D01*
X80498773Y-81095196D01*
X80474505Y-81098796D01*
X80450001Y-81100000D01*
X79549999Y-81100000D01*
X79525495Y-81098796D01*
X79501227Y-81095196D01*
X79477428Y-81089235D01*
X79454329Y-81080970D01*
X79432150Y-81070480D01*
X79411107Y-81057868D01*
X79391401Y-81043253D01*
X79373223Y-81026777D01*
X79356747Y-81008599D01*
X79342132Y-80988893D01*
X79329520Y-80967850D01*
X79319030Y-80945671D01*
X79310765Y-80922572D01*
X79304804Y-80898773D01*
X79301204Y-80874505D01*
X79300000Y-80850001D01*
X79300000Y-80199999D01*
X79301204Y-80175495D01*
X79304804Y-80151227D01*
X79310765Y-80127428D01*
X79319030Y-80104329D01*
X79329520Y-80082150D01*
X79342132Y-80061107D01*
X79356747Y-80041401D01*
X79373223Y-80023223D01*
X79391401Y-80006747D01*
X79411107Y-79992132D01*
X79432150Y-79979520D01*
X79454329Y-79969030D01*
X79477428Y-79960765D01*
X79501227Y-79954804D01*
X79525495Y-79951204D01*
X79549999Y-79950000D01*
X80450001Y-79950000D01*
X80474505Y-79951204D01*
X80474505Y-79951204D01*
G37*
D11*
G04 #@! TD*
G04 #@! TO.P,R2,2*
G04 #@! TO.N,D-*
X80000000Y-80525000D03*
D10*
G04 #@! TO.N,Net-(P1-PadA7)*
G04 #@! TO.C,R2*
G36*
X80474505Y-77901204D02*
X80498773Y-77904804D01*
X80522572Y-77910765D01*
X80545671Y-77919030D01*
X80567850Y-77929520D01*
X80588893Y-77942132D01*
X80608599Y-77956747D01*
X80626777Y-77973223D01*
X80643253Y-77991401D01*
X80657868Y-78011107D01*
X80670480Y-78032150D01*
X80680970Y-78054329D01*
X80689235Y-78077428D01*
X80695196Y-78101227D01*
X80698796Y-78125495D01*
X80700000Y-78149999D01*
X80700000Y-78800001D01*
X80698796Y-78824505D01*
X80695196Y-78848773D01*
X80689235Y-78872572D01*
X80680970Y-78895671D01*
X80670480Y-78917850D01*
X80657868Y-78938893D01*
X80643253Y-78958599D01*
X80626777Y-78976777D01*
X80608599Y-78993253D01*
X80588893Y-79007868D01*
X80567850Y-79020480D01*
X80545671Y-79030970D01*
X80522572Y-79039235D01*
X80498773Y-79045196D01*
X80474505Y-79048796D01*
X80450001Y-79050000D01*
X79549999Y-79050000D01*
X79525495Y-79048796D01*
X79501227Y-79045196D01*
X79477428Y-79039235D01*
X79454329Y-79030970D01*
X79432150Y-79020480D01*
X79411107Y-79007868D01*
X79391401Y-78993253D01*
X79373223Y-78976777D01*
X79356747Y-78958599D01*
X79342132Y-78938893D01*
X79329520Y-78917850D01*
X79319030Y-78895671D01*
X79310765Y-78872572D01*
X79304804Y-78848773D01*
X79301204Y-78824505D01*
X79300000Y-78800001D01*
X79300000Y-78149999D01*
X79301204Y-78125495D01*
X79304804Y-78101227D01*
X79310765Y-78077428D01*
X79319030Y-78054329D01*
X79329520Y-78032150D01*
X79342132Y-78011107D01*
X79356747Y-77991401D01*
X79373223Y-77973223D01*
X79391401Y-77956747D01*
X79411107Y-77942132D01*
X79432150Y-77929520D01*
X79454329Y-77919030D01*
X79477428Y-77910765D01*
X79501227Y-77904804D01*
X79525495Y-77901204D01*
X79549999Y-77900000D01*
X80450001Y-77900000D01*
X80474505Y-77901204D01*
X80474505Y-77901204D01*
G37*
D11*
G04 #@! TD*
G04 #@! TO.P,R2,1*
G04 #@! TO.N,Net-(P1-PadA7)*
X80000000Y-78475000D03*
D10*
G04 #@! TO.N,D+*
G04 #@! TO.C,R1*
G36*
X78474505Y-79951204D02*
X78498773Y-79954804D01*
X78522572Y-79960765D01*
X78545671Y-79969030D01*
X78567850Y-79979520D01*
X78588893Y-79992132D01*
X78608599Y-80006747D01*
X78626777Y-80023223D01*
X78643253Y-80041401D01*
X78657868Y-80061107D01*
X78670480Y-80082150D01*
X78680970Y-80104329D01*
X78689235Y-80127428D01*
X78695196Y-80151227D01*
X78698796Y-80175495D01*
X78700000Y-80199999D01*
X78700000Y-80850001D01*
X78698796Y-80874505D01*
X78695196Y-80898773D01*
X78689235Y-80922572D01*
X78680970Y-80945671D01*
X78670480Y-80967850D01*
X78657868Y-80988893D01*
X78643253Y-81008599D01*
X78626777Y-81026777D01*
X78608599Y-81043253D01*
X78588893Y-81057868D01*
X78567850Y-81070480D01*
X78545671Y-81080970D01*
X78522572Y-81089235D01*
X78498773Y-81095196D01*
X78474505Y-81098796D01*
X78450001Y-81100000D01*
X77549999Y-81100000D01*
X77525495Y-81098796D01*
X77501227Y-81095196D01*
X77477428Y-81089235D01*
X77454329Y-81080970D01*
X77432150Y-81070480D01*
X77411107Y-81057868D01*
X77391401Y-81043253D01*
X77373223Y-81026777D01*
X77356747Y-81008599D01*
X77342132Y-80988893D01*
X77329520Y-80967850D01*
X77319030Y-80945671D01*
X77310765Y-80922572D01*
X77304804Y-80898773D01*
X77301204Y-80874505D01*
X77300000Y-80850001D01*
X77300000Y-80199999D01*
X77301204Y-80175495D01*
X77304804Y-80151227D01*
X77310765Y-80127428D01*
X77319030Y-80104329D01*
X77329520Y-80082150D01*
X77342132Y-80061107D01*
X77356747Y-80041401D01*
X77373223Y-80023223D01*
X77391401Y-80006747D01*
X77411107Y-79992132D01*
X77432150Y-79979520D01*
X77454329Y-79969030D01*
X77477428Y-79960765D01*
X77501227Y-79954804D01*
X77525495Y-79951204D01*
X77549999Y-79950000D01*
X78450001Y-79950000D01*
X78474505Y-79951204D01*
X78474505Y-79951204D01*
G37*
D11*
G04 #@! TD*
G04 #@! TO.P,R1,2*
G04 #@! TO.N,D+*
X78000000Y-80525000D03*
D10*
G04 #@! TO.N,Net-(P1-PadA6)*
G04 #@! TO.C,R1*
G36*
X78474505Y-77901204D02*
X78498773Y-77904804D01*
X78522572Y-77910765D01*
X78545671Y-77919030D01*
X78567850Y-77929520D01*
X78588893Y-77942132D01*
X78608599Y-77956747D01*
X78626777Y-77973223D01*
X78643253Y-77991401D01*
X78657868Y-78011107D01*
X78670480Y-78032150D01*
X78680970Y-78054329D01*
X78689235Y-78077428D01*
X78695196Y-78101227D01*
X78698796Y-78125495D01*
X78700000Y-78149999D01*
X78700000Y-78800001D01*
X78698796Y-78824505D01*
X78695196Y-78848773D01*
X78689235Y-78872572D01*
X78680970Y-78895671D01*
X78670480Y-78917850D01*
X78657868Y-78938893D01*
X78643253Y-78958599D01*
X78626777Y-78976777D01*
X78608599Y-78993253D01*
X78588893Y-79007868D01*
X78567850Y-79020480D01*
X78545671Y-79030970D01*
X78522572Y-79039235D01*
X78498773Y-79045196D01*
X78474505Y-79048796D01*
X78450001Y-79050000D01*
X77549999Y-79050000D01*
X77525495Y-79048796D01*
X77501227Y-79045196D01*
X77477428Y-79039235D01*
X77454329Y-79030970D01*
X77432150Y-79020480D01*
X77411107Y-79007868D01*
X77391401Y-78993253D01*
X77373223Y-78976777D01*
X77356747Y-78958599D01*
X77342132Y-78938893D01*
X77329520Y-78917850D01*
X77319030Y-78895671D01*
X77310765Y-78872572D01*
X77304804Y-78848773D01*
X77301204Y-78824505D01*
X77300000Y-78800001D01*
X77300000Y-78149999D01*
X77301204Y-78125495D01*
X77304804Y-78101227D01*
X77310765Y-78077428D01*
X77319030Y-78054329D01*
X77329520Y-78032150D01*
X77342132Y-78011107D01*
X77356747Y-77991401D01*
X77373223Y-77973223D01*
X77391401Y-77956747D01*
X77411107Y-77942132D01*
X77432150Y-77929520D01*
X77454329Y-77919030D01*
X77477428Y-77910765D01*
X77501227Y-77904804D01*
X77525495Y-77901204D01*
X77549999Y-77900000D01*
X78450001Y-77900000D01*
X78474505Y-77901204D01*
X78474505Y-77901204D01*
G37*
D11*
G04 #@! TD*
G04 #@! TO.P,R1,1*
G04 #@! TO.N,Net-(P1-PadA6)*
X78000000Y-78475000D03*
D10*
G04 #@! TO.N,X2*
G04 #@! TO.C,R4*
G36*
X80474505Y-117951204D02*
X80498773Y-117954804D01*
X80522572Y-117960765D01*
X80545671Y-117969030D01*
X80567850Y-117979520D01*
X80588893Y-117992132D01*
X80608599Y-118006747D01*
X80626777Y-118023223D01*
X80643253Y-118041401D01*
X80657868Y-118061107D01*
X80670480Y-118082150D01*
X80680970Y-118104329D01*
X80689235Y-118127428D01*
X80695196Y-118151227D01*
X80698796Y-118175495D01*
X80700000Y-118199999D01*
X80700000Y-118850001D01*
X80698796Y-118874505D01*
X80695196Y-118898773D01*
X80689235Y-118922572D01*
X80680970Y-118945671D01*
X80670480Y-118967850D01*
X80657868Y-118988893D01*
X80643253Y-119008599D01*
X80626777Y-119026777D01*
X80608599Y-119043253D01*
X80588893Y-119057868D01*
X80567850Y-119070480D01*
X80545671Y-119080970D01*
X80522572Y-119089235D01*
X80498773Y-119095196D01*
X80474505Y-119098796D01*
X80450001Y-119100000D01*
X79549999Y-119100000D01*
X79525495Y-119098796D01*
X79501227Y-119095196D01*
X79477428Y-119089235D01*
X79454329Y-119080970D01*
X79432150Y-119070480D01*
X79411107Y-119057868D01*
X79391401Y-119043253D01*
X79373223Y-119026777D01*
X79356747Y-119008599D01*
X79342132Y-118988893D01*
X79329520Y-118967850D01*
X79319030Y-118945671D01*
X79310765Y-118922572D01*
X79304804Y-118898773D01*
X79301204Y-118874505D01*
X79300000Y-118850001D01*
X79300000Y-118199999D01*
X79301204Y-118175495D01*
X79304804Y-118151227D01*
X79310765Y-118127428D01*
X79319030Y-118104329D01*
X79329520Y-118082150D01*
X79342132Y-118061107D01*
X79356747Y-118041401D01*
X79373223Y-118023223D01*
X79391401Y-118006747D01*
X79411107Y-117992132D01*
X79432150Y-117979520D01*
X79454329Y-117969030D01*
X79477428Y-117960765D01*
X79501227Y-117954804D01*
X79525495Y-117951204D01*
X79549999Y-117950000D01*
X80450001Y-117950000D01*
X80474505Y-117951204D01*
X80474505Y-117951204D01*
G37*
D11*
G04 #@! TD*
G04 #@! TO.P,R4,2*
G04 #@! TO.N,X2*
X80000000Y-118525000D03*
D10*
G04 #@! TO.N,X1*
G04 #@! TO.C,R4*
G36*
X80474505Y-115901204D02*
X80498773Y-115904804D01*
X80522572Y-115910765D01*
X80545671Y-115919030D01*
X80567850Y-115929520D01*
X80588893Y-115942132D01*
X80608599Y-115956747D01*
X80626777Y-115973223D01*
X80643253Y-115991401D01*
X80657868Y-116011107D01*
X80670480Y-116032150D01*
X80680970Y-116054329D01*
X80689235Y-116077428D01*
X80695196Y-116101227D01*
X80698796Y-116125495D01*
X80700000Y-116149999D01*
X80700000Y-116800001D01*
X80698796Y-116824505D01*
X80695196Y-116848773D01*
X80689235Y-116872572D01*
X80680970Y-116895671D01*
X80670480Y-116917850D01*
X80657868Y-116938893D01*
X80643253Y-116958599D01*
X80626777Y-116976777D01*
X80608599Y-116993253D01*
X80588893Y-117007868D01*
X80567850Y-117020480D01*
X80545671Y-117030970D01*
X80522572Y-117039235D01*
X80498773Y-117045196D01*
X80474505Y-117048796D01*
X80450001Y-117050000D01*
X79549999Y-117050000D01*
X79525495Y-117048796D01*
X79501227Y-117045196D01*
X79477428Y-117039235D01*
X79454329Y-117030970D01*
X79432150Y-117020480D01*
X79411107Y-117007868D01*
X79391401Y-116993253D01*
X79373223Y-116976777D01*
X79356747Y-116958599D01*
X79342132Y-116938893D01*
X79329520Y-116917850D01*
X79319030Y-116895671D01*
X79310765Y-116872572D01*
X79304804Y-116848773D01*
X79301204Y-116824505D01*
X79300000Y-116800001D01*
X79300000Y-116149999D01*
X79301204Y-116125495D01*
X79304804Y-116101227D01*
X79310765Y-116077428D01*
X79319030Y-116054329D01*
X79329520Y-116032150D01*
X79342132Y-116011107D01*
X79356747Y-115991401D01*
X79373223Y-115973223D01*
X79391401Y-115956747D01*
X79411107Y-115942132D01*
X79432150Y-115929520D01*
X79454329Y-115919030D01*
X79477428Y-115910765D01*
X79501227Y-115904804D01*
X79525495Y-115901204D01*
X79549999Y-115900000D01*
X80450001Y-115900000D01*
X80474505Y-115901204D01*
X80474505Y-115901204D01*
G37*
D11*
G04 #@! TD*
G04 #@! TO.P,R4,1*
G04 #@! TO.N,X1*
X80000000Y-116475000D03*
D10*
G04 #@! TO.N,RST*
G04 #@! TO.C,R3*
G36*
X80474505Y-84451204D02*
X80498773Y-84454804D01*
X80522572Y-84460765D01*
X80545671Y-84469030D01*
X80567850Y-84479520D01*
X80588893Y-84492132D01*
X80608599Y-84506747D01*
X80626777Y-84523223D01*
X80643253Y-84541401D01*
X80657868Y-84561107D01*
X80670480Y-84582150D01*
X80680970Y-84604329D01*
X80689235Y-84627428D01*
X80695196Y-84651227D01*
X80698796Y-84675495D01*
X80700000Y-84699999D01*
X80700000Y-85350001D01*
X80698796Y-85374505D01*
X80695196Y-85398773D01*
X80689235Y-85422572D01*
X80680970Y-85445671D01*
X80670480Y-85467850D01*
X80657868Y-85488893D01*
X80643253Y-85508599D01*
X80626777Y-85526777D01*
X80608599Y-85543253D01*
X80588893Y-85557868D01*
X80567850Y-85570480D01*
X80545671Y-85580970D01*
X80522572Y-85589235D01*
X80498773Y-85595196D01*
X80474505Y-85598796D01*
X80450001Y-85600000D01*
X79549999Y-85600000D01*
X79525495Y-85598796D01*
X79501227Y-85595196D01*
X79477428Y-85589235D01*
X79454329Y-85580970D01*
X79432150Y-85570480D01*
X79411107Y-85557868D01*
X79391401Y-85543253D01*
X79373223Y-85526777D01*
X79356747Y-85508599D01*
X79342132Y-85488893D01*
X79329520Y-85467850D01*
X79319030Y-85445671D01*
X79310765Y-85422572D01*
X79304804Y-85398773D01*
X79301204Y-85374505D01*
X79300000Y-85350001D01*
X79300000Y-84699999D01*
X79301204Y-84675495D01*
X79304804Y-84651227D01*
X79310765Y-84627428D01*
X79319030Y-84604329D01*
X79329520Y-84582150D01*
X79342132Y-84561107D01*
X79356747Y-84541401D01*
X79373223Y-84523223D01*
X79391401Y-84506747D01*
X79411107Y-84492132D01*
X79432150Y-84479520D01*
X79454329Y-84469030D01*
X79477428Y-84460765D01*
X79501227Y-84454804D01*
X79525495Y-84451204D01*
X79549999Y-84450000D01*
X80450001Y-84450000D01*
X80474505Y-84451204D01*
X80474505Y-84451204D01*
G37*
D11*
G04 #@! TD*
G04 #@! TO.P,R3,2*
G04 #@! TO.N,RST*
X80000000Y-85025000D03*
D10*
G04 #@! TO.N,VBUS*
G04 #@! TO.C,R3*
G36*
X80474505Y-82401204D02*
X80498773Y-82404804D01*
X80522572Y-82410765D01*
X80545671Y-82419030D01*
X80567850Y-82429520D01*
X80588893Y-82442132D01*
X80608599Y-82456747D01*
X80626777Y-82473223D01*
X80643253Y-82491401D01*
X80657868Y-82511107D01*
X80670480Y-82532150D01*
X80680970Y-82554329D01*
X80689235Y-82577428D01*
X80695196Y-82601227D01*
X80698796Y-82625495D01*
X80700000Y-82649999D01*
X80700000Y-83300001D01*
X80698796Y-83324505D01*
X80695196Y-83348773D01*
X80689235Y-83372572D01*
X80680970Y-83395671D01*
X80670480Y-83417850D01*
X80657868Y-83438893D01*
X80643253Y-83458599D01*
X80626777Y-83476777D01*
X80608599Y-83493253D01*
X80588893Y-83507868D01*
X80567850Y-83520480D01*
X80545671Y-83530970D01*
X80522572Y-83539235D01*
X80498773Y-83545196D01*
X80474505Y-83548796D01*
X80450001Y-83550000D01*
X79549999Y-83550000D01*
X79525495Y-83548796D01*
X79501227Y-83545196D01*
X79477428Y-83539235D01*
X79454329Y-83530970D01*
X79432150Y-83520480D01*
X79411107Y-83507868D01*
X79391401Y-83493253D01*
X79373223Y-83476777D01*
X79356747Y-83458599D01*
X79342132Y-83438893D01*
X79329520Y-83417850D01*
X79319030Y-83395671D01*
X79310765Y-83372572D01*
X79304804Y-83348773D01*
X79301204Y-83324505D01*
X79300000Y-83300001D01*
X79300000Y-82649999D01*
X79301204Y-82625495D01*
X79304804Y-82601227D01*
X79310765Y-82577428D01*
X79319030Y-82554329D01*
X79329520Y-82532150D01*
X79342132Y-82511107D01*
X79356747Y-82491401D01*
X79373223Y-82473223D01*
X79391401Y-82456747D01*
X79411107Y-82442132D01*
X79432150Y-82429520D01*
X79454329Y-82419030D01*
X79477428Y-82410765D01*
X79501227Y-82404804D01*
X79525495Y-82401204D01*
X79549999Y-82400000D01*
X80450001Y-82400000D01*
X80474505Y-82401204D01*
X80474505Y-82401204D01*
G37*
D11*
G04 #@! TD*
G04 #@! TO.P,R3,1*
G04 #@! TO.N,VBUS*
X80000000Y-82975000D03*
D19*
G04 #@! TO.P,P1,B12*
G04 #@! TO.N,GND*
X75500000Y-65820000D03*
G04 #@! TO.P,P1,B11*
G04 #@! TO.N,N/C*
X76000000Y-65820000D03*
G04 #@! TO.P,P1,B10*
X76500000Y-65820000D03*
G04 #@! TO.P,P1,B9*
G04 #@! TO.N,VBUS*
X77000000Y-65820000D03*
G04 #@! TO.P,P1,B8*
G04 #@! TO.N,Net-(P1-PadB8)*
X77500000Y-65820000D03*
G04 #@! TO.P,P1,B7*
G04 #@! TO.N,Net-(P1-PadA7)*
X78000000Y-65820000D03*
G04 #@! TO.P,P1,B6*
G04 #@! TO.N,Net-(P1-PadA6)*
X78500000Y-65820000D03*
G04 #@! TO.P,P1,B5*
G04 #@! TO.N,Net-(P1-PadB5)*
X79000000Y-65820000D03*
G04 #@! TO.P,P1,B4*
G04 #@! TO.N,VBUS*
X79500000Y-65820000D03*
G04 #@! TO.P,P1,B3*
G04 #@! TO.N,N/C*
X80000000Y-65820000D03*
G04 #@! TO.P,P1,B2*
X80500000Y-65820000D03*
D20*
G04 #@! TO.P,P1,S1*
G04 #@! TO.N,GND*
X74010000Y-59660000D03*
X82990000Y-59660000D03*
X82630000Y-65610000D03*
D19*
G04 #@! TO.P,P1,B1*
X81000000Y-65820000D03*
G04 #@! TO.P,P1,A11*
G04 #@! TO.N,N/C*
X80750000Y-67520000D03*
G04 #@! TO.P,P1,A8*
G04 #@! TO.N,Net-(P1-PadA8)*
X79250000Y-67520000D03*
G04 #@! TO.P,P1,A9*
G04 #@! TO.N,VBUS*
X79750000Y-67520000D03*
G04 #@! TO.P,P1,A10*
G04 #@! TO.N,N/C*
X80250000Y-67520000D03*
G04 #@! TO.P,P1,A12*
G04 #@! TO.N,GND*
X81250000Y-67520000D03*
G04 #@! TO.P,P1,A7*
G04 #@! TO.N,Net-(P1-PadA7)*
X78750000Y-67520000D03*
G04 #@! TO.P,P1,A6*
G04 #@! TO.N,Net-(P1-PadA6)*
X78250000Y-67520000D03*
G04 #@! TO.P,P1,A5*
G04 #@! TO.N,Net-(P1-PadA5)*
X77750000Y-67520000D03*
G04 #@! TO.P,P1,A4*
G04 #@! TO.N,VBUS*
X77250000Y-67520000D03*
G04 #@! TO.P,P1,A3*
G04 #@! TO.N,N/C*
X76750000Y-67520000D03*
G04 #@! TO.P,P1,A2*
X76250000Y-67520000D03*
G04 #@! TO.P,P1,A1*
G04 #@! TO.N,GND*
X75750000Y-67520000D03*
D20*
G04 #@! TO.P,P1,S1*
X74370000Y-65610000D03*
G04 #@! TD*
D21*
G04 #@! TO.N,ROW02*
X106000000Y-121500000D03*
X51500000Y-115500000D03*
X65500000Y-115500000D03*
X113000000Y-100500000D03*
X96500000Y-101000000D03*
X114000000Y-117500000D03*
X117105000Y-110500000D03*
X130000000Y-115500000D03*
X136500000Y-115500000D03*
X146000000Y-115500000D03*
X155000000Y-115500000D03*
X165500000Y-115500000D03*
X174000000Y-115500000D03*
X184000000Y-115500000D03*
X193500000Y-115500000D03*
X203000000Y-115500000D03*
X212000000Y-115500000D03*
X222500000Y-115500000D03*
X231000000Y-115500000D03*
X238500000Y-115500000D03*
X246500000Y-114000000D03*
G04 #@! TO.N,ROW00*
X52500000Y-77000000D03*
X63000000Y-77500000D03*
X71500000Y-77500000D03*
X84000000Y-77500000D03*
X91000000Y-77500000D03*
X103000000Y-77500000D03*
X110000000Y-77500000D03*
X122000000Y-77500000D03*
X107000000Y-121000000D03*
X129000000Y-77500000D03*
X141000000Y-77500000D03*
X148000000Y-77500000D03*
X160000000Y-77500000D03*
X167000000Y-77500000D03*
X179000000Y-77500000D03*
X186000000Y-77500000D03*
X198000000Y-77500000D03*
X205000000Y-77500000D03*
X217000000Y-77500000D03*
X224000000Y-77500000D03*
X236000000Y-77500000D03*
X241000000Y-77500000D03*
X250000000Y-75500000D03*
X115500000Y-107500000D03*
G04 #@! TO.N,ROW01*
X51500000Y-96500000D03*
X65000000Y-96500000D03*
X70000000Y-96500000D03*
X84000000Y-96500000D03*
X91499847Y-96500153D03*
X103000000Y-96500000D03*
X110000000Y-96500000D03*
X122000000Y-96500000D03*
X129500000Y-96500000D03*
X141500000Y-96500000D03*
X149000000Y-96500000D03*
X160000000Y-96500000D03*
X168000000Y-96500000D03*
X179000000Y-96500000D03*
X186500000Y-96500000D03*
X198000000Y-96500000D03*
X206000000Y-96500000D03*
X217000000Y-96500000D03*
X225000000Y-96500000D03*
X236000000Y-96500000D03*
X244000000Y-96500000D03*
X255000000Y-96500000D03*
X107500000Y-116000000D03*
X117500000Y-102500000D03*
G04 #@! TO.N,ROW03*
X105000000Y-122000000D03*
X102560001Y-130254999D03*
G04 #@! TO.N,COL03*
X111365001Y-105544667D03*
X96500000Y-102500000D03*
X88500000Y-99000000D03*
X78407180Y-100907180D03*
X63750000Y-102250000D03*
G04 #@! TO.N,COL04*
X106275000Y-122725000D03*
X127000000Y-122500000D03*
G04 #@! TO.N,COL05*
X108500000Y-122500000D03*
X151500000Y-119500000D03*
G04 #@! TO.N,COL00*
X95500000Y-115000000D03*
X61000000Y-124500000D03*
G04 #@! TO.N,COL06*
X110000000Y-123500000D03*
X170500000Y-122000000D03*
G04 #@! TO.N,COL02*
X91500000Y-124500000D03*
X94500000Y-108500000D03*
X84000000Y-91750000D03*
G04 #@! TO.N,COL01*
X96500000Y-115000000D03*
X79500000Y-124500000D03*
X73250000Y-101200000D03*
G04 #@! TO.N,COL09*
X116500000Y-116500000D03*
X225725001Y-102500000D03*
G04 #@! TO.N,COL10*
X116500000Y-118000000D03*
X244725001Y-103500000D03*
G04 #@! TO.N,COL11*
X115500000Y-119000000D03*
X260550000Y-114500000D03*
G04 #@! TO.N,COL08*
X107000000Y-101500000D03*
X206725001Y-101500000D03*
G04 #@! TO.N,COL07*
X109500000Y-99500000D03*
X187225001Y-99500000D03*
G04 #@! TO.N,Net-(P1-PadA6)*
X78000000Y-69000000D03*
X78000000Y-76500000D03*
G04 #@! TO.N,Net-(P1-PadA7)*
X79000000Y-69000000D03*
X79000000Y-76500000D03*
X78000000Y-64750000D03*
G04 #@! TO.N,VBUS*
X93000000Y-111500000D03*
X90000000Y-114500000D03*
X98000000Y-113000000D03*
X77500000Y-94500000D03*
X82500000Y-81500000D03*
G04 #@! TO.N,D-*
X86500000Y-102000000D03*
X83000000Y-101000000D03*
G04 #@! TO.N,D+*
X87500000Y-102000000D03*
X82000000Y-100000000D03*
G04 #@! TO.N,GND*
X92000000Y-110500000D03*
X97401525Y-115432732D03*
X91500000Y-123000000D03*
X91775000Y-104775000D03*
X90500000Y-99775000D03*
X90000000Y-97225000D03*
X81000000Y-69000000D03*
X95000000Y-83500000D03*
X66250000Y-116500000D03*
X83250000Y-115000000D03*
X73000000Y-116500000D03*
G04 #@! TO.N,X2*
X99500000Y-115500000D03*
X85000000Y-121000000D03*
G04 #@! TO.N,X1*
X100500000Y-115000000D03*
X86987347Y-122512653D03*
G04 #@! TO.N,RST*
X84000000Y-99000000D03*
X100500000Y-110000000D03*
X91000000Y-79500000D03*
X95250000Y-79500000D03*
X68250000Y-99000000D03*
X82000000Y-97480002D03*
G04 #@! TD*
D22*
G04 #@! TO.N,ROW02*
X105500178Y-121000178D02*
X106000000Y-121500000D01*
X102661880Y-120399138D02*
X103262920Y-121000178D01*
X103262920Y-121000178D02*
X105500178Y-121000178D01*
X46155000Y-115500000D02*
X51500000Y-115500000D01*
X43710000Y-113080000D02*
X43735000Y-113080000D01*
X43735000Y-113080000D02*
X46155000Y-115500000D01*
X63080000Y-113080000D02*
X62710000Y-113080000D01*
X65500000Y-115500000D02*
X63080000Y-113080000D01*
X113290000Y-106685000D02*
X113290000Y-102920000D01*
X119710000Y-113080000D02*
X119685000Y-113080000D01*
X113290000Y-102920000D02*
X113290000Y-100790000D01*
X113290000Y-100790000D02*
X113000000Y-100500000D01*
X94580000Y-102920000D02*
X94290000Y-102920000D01*
X96500000Y-101000000D02*
X94580000Y-102920000D01*
X109774999Y-121725001D02*
X114000000Y-117500000D01*
X106000000Y-121500000D02*
X106225001Y-121725001D01*
X106225001Y-121725001D02*
X109774999Y-121725001D01*
X119685000Y-113080000D02*
X117105000Y-110500000D01*
X117105000Y-110500000D02*
X113290000Y-106685000D01*
X122155000Y-115500000D02*
X130000000Y-115500000D01*
X119710000Y-113080000D02*
X119735000Y-113080000D01*
X119735000Y-113080000D02*
X122155000Y-115500000D01*
X138710000Y-113290000D02*
X138710000Y-113080000D01*
X136500000Y-115500000D02*
X138710000Y-113290000D01*
X136500000Y-115500000D02*
X146000000Y-115500000D01*
X157420000Y-113080000D02*
X157710000Y-113080000D01*
X155000000Y-115500000D02*
X157420000Y-113080000D01*
X155000000Y-115500000D02*
X165500000Y-115500000D01*
X176420000Y-113080000D02*
X176710000Y-113080000D01*
X174000000Y-115500000D02*
X176420000Y-113080000D01*
X174000000Y-115500000D02*
X184000000Y-115500000D01*
X193500000Y-115265000D02*
X193500000Y-115500000D01*
X195685000Y-113080000D02*
X193500000Y-115265000D01*
X195710000Y-113080000D02*
X195685000Y-113080000D01*
X193500000Y-115500000D02*
X203000000Y-115500000D01*
X214420000Y-113080000D02*
X214710000Y-113080000D01*
X212000000Y-115500000D02*
X214420000Y-113080000D01*
X212000000Y-115500000D02*
X222500000Y-115500000D01*
X233320000Y-113180000D02*
X233710000Y-113180000D01*
X231000000Y-115500000D02*
X233320000Y-113180000D01*
X231000000Y-115500000D02*
X238500000Y-115500000D01*
X247420000Y-113080000D02*
X252710000Y-113080000D01*
X246500000Y-114000000D02*
X247420000Y-113080000D01*
G04 #@! TO.N,Net-(D11-Pad2)*
X92475000Y-98500000D02*
X92475000Y-99525000D01*
X92475000Y-99525000D02*
X91500000Y-100500000D01*
X80465000Y-105460000D02*
X80440000Y-105460000D01*
X85425000Y-100500000D02*
X80465000Y-105460000D01*
X91500000Y-100500000D02*
X85425000Y-100500000D01*
G04 #@! TO.N,Net-(D37-Pad2)*
X228560000Y-84560000D02*
X228560000Y-91540000D01*
X225500000Y-81500000D02*
X228560000Y-84560000D01*
G04 #@! TO.N,ROW00*
X45655000Y-77000000D02*
X52500000Y-77000000D01*
X43710000Y-75080000D02*
X43735000Y-75080000D01*
X43735000Y-75080000D02*
X45655000Y-77000000D01*
X63000000Y-75370000D02*
X62710000Y-75080000D01*
X63000000Y-77500000D02*
X63000000Y-75370000D01*
X63000000Y-77500000D02*
X71500000Y-77500000D01*
X81710000Y-75210000D02*
X81710000Y-75080000D01*
X84000000Y-77500000D02*
X81710000Y-75210000D01*
X84000000Y-77500000D02*
X91000000Y-77500000D01*
X100710000Y-75210000D02*
X100710000Y-75080000D01*
X103000000Y-77500000D02*
X100710000Y-75210000D01*
X103000000Y-77500000D02*
X110000000Y-77500000D01*
X119710000Y-75210000D02*
X119710000Y-75080000D01*
X122000000Y-77500000D02*
X119710000Y-75210000D01*
X106500000Y-120500000D02*
X107000000Y-121000000D01*
X103227565Y-119833452D02*
X103894113Y-120500000D01*
X103894113Y-120500000D02*
X106500000Y-120500000D01*
X122000000Y-77500000D02*
X129000000Y-77500000D01*
X138710000Y-75210000D02*
X138710000Y-75080000D01*
X141000000Y-77500000D02*
X138710000Y-75210000D01*
X141000000Y-77500000D02*
X148000000Y-77500000D01*
X157710000Y-75210000D02*
X157710000Y-75080000D01*
X160000000Y-77500000D02*
X157710000Y-75210000D01*
X160000000Y-77500000D02*
X167000000Y-77500000D01*
X179000000Y-77345000D02*
X179000000Y-77500000D01*
X176735000Y-75080000D02*
X179000000Y-77345000D01*
X176710000Y-75080000D02*
X176735000Y-75080000D01*
X179000000Y-77500000D02*
X186000000Y-77500000D01*
X195710000Y-75210000D02*
X195710000Y-75080000D01*
X198000000Y-77500000D02*
X195710000Y-75210000D01*
X198000000Y-77500000D02*
X205000000Y-77500000D01*
X217000000Y-77345000D02*
X217000000Y-77500000D01*
X214735000Y-75080000D02*
X217000000Y-77345000D01*
X214710000Y-75080000D02*
X214735000Y-75080000D01*
X217000000Y-77500000D02*
X224000000Y-77500000D01*
X233710000Y-75210000D02*
X233710000Y-75080000D01*
X236000000Y-77500000D02*
X233710000Y-75210000D01*
X236000000Y-77500000D02*
X241000000Y-77500000D01*
X252290000Y-75500000D02*
X252710000Y-75080000D01*
X250000000Y-75500000D02*
X252290000Y-75500000D01*
X116160001Y-106839999D02*
X116160001Y-81160001D01*
X115500000Y-107500000D02*
X116160001Y-106839999D01*
X119820002Y-77500000D02*
X122000000Y-77500000D01*
X116160001Y-81160001D02*
X119820002Y-77500000D01*
G04 #@! TO.N,ROW01*
X46155000Y-96500000D02*
X51500000Y-96500000D01*
X43710000Y-94080000D02*
X43735000Y-94080000D01*
X43735000Y-94080000D02*
X46155000Y-96500000D01*
X62710000Y-94210000D02*
X62710000Y-94080000D01*
X65000000Y-96500000D02*
X62710000Y-94210000D01*
X65000000Y-96500000D02*
X70000000Y-96500000D01*
X81710000Y-94210000D02*
X81710000Y-94080000D01*
X84000000Y-96500000D02*
X81710000Y-94210000D01*
X84000000Y-96500000D02*
X91499694Y-96500000D01*
X91499694Y-96500000D02*
X91499847Y-96500153D01*
X100710000Y-94210000D02*
X100710000Y-94080000D01*
X103000000Y-96500000D02*
X100710000Y-94210000D01*
X103000000Y-96500000D02*
X110000000Y-96500000D01*
X122000000Y-96345000D02*
X122000000Y-96500000D01*
X119735000Y-94080000D02*
X122000000Y-96345000D01*
X119710000Y-94080000D02*
X119735000Y-94080000D01*
X122000000Y-96500000D02*
X129500000Y-96500000D01*
X141155000Y-96500000D02*
X141500000Y-96500000D01*
X138735000Y-94080000D02*
X141155000Y-96500000D01*
X138710000Y-94080000D02*
X138735000Y-94080000D01*
X141500000Y-96500000D02*
X149000000Y-96500000D01*
X157710000Y-94210000D02*
X157710000Y-94080000D01*
X160000000Y-96500000D02*
X157710000Y-94210000D01*
X160000000Y-96500000D02*
X168000000Y-96500000D01*
X179000000Y-96345000D02*
X179000000Y-96500000D01*
X176735000Y-94080000D02*
X179000000Y-96345000D01*
X176710000Y-94080000D02*
X176735000Y-94080000D01*
X179000000Y-96500000D02*
X186500000Y-96500000D01*
X198000000Y-96345000D02*
X198000000Y-96500000D01*
X195735000Y-94080000D02*
X198000000Y-96345000D01*
X195710000Y-94080000D02*
X195735000Y-94080000D01*
X198000000Y-96500000D02*
X206000000Y-96500000D01*
X214710000Y-94210000D02*
X214710000Y-94080000D01*
X217000000Y-96500000D02*
X214710000Y-94210000D01*
X217000000Y-96500000D02*
X225000000Y-96500000D01*
X233710000Y-94210000D02*
X233710000Y-94080000D01*
X236000000Y-96500000D02*
X233710000Y-94210000D01*
X236000000Y-96500000D02*
X244000000Y-96500000D01*
X252710000Y-94210000D02*
X252710000Y-94080000D01*
X255000000Y-96500000D02*
X252710000Y-94210000D01*
X104358936Y-116297918D02*
X105000000Y-115656854D01*
X105000000Y-115656854D02*
X107156854Y-115656854D01*
X107156854Y-115656854D02*
X107500000Y-116000000D01*
X122000000Y-98000000D02*
X122000000Y-96500000D01*
X117500000Y-102500000D02*
X122000000Y-98000000D01*
G04 #@! TO.N,Net-(D22-Pad2)*
X152560000Y-85360000D02*
X152560000Y-91540000D01*
X149500000Y-82300000D02*
X152560000Y-85360000D01*
X149500000Y-81500000D02*
X149500000Y-82300000D01*
G04 #@! TO.N,Net-(D21-Pad2)*
X152560000Y-74440000D02*
X149500000Y-77500000D01*
X152560000Y-72540000D02*
X152560000Y-74440000D01*
G04 #@! TO.N,ROW03*
X53648998Y-132080000D02*
X62710000Y-132080000D01*
X51823997Y-130254999D02*
X53648998Y-132080000D01*
X45560001Y-130254999D02*
X51823997Y-130254999D01*
X43735000Y-132080000D02*
X45560001Y-130254999D01*
X43710000Y-132080000D02*
X43735000Y-132080000D01*
X72648998Y-132080000D02*
X81710000Y-132080000D01*
X70823997Y-130254999D02*
X72648998Y-132080000D01*
X64560001Y-130254999D02*
X70823997Y-130254999D01*
X62735000Y-132080000D02*
X64560001Y-130254999D01*
X62710000Y-132080000D02*
X62735000Y-132080000D01*
X99185000Y-132080000D02*
X100710000Y-132080000D01*
X97739990Y-133525010D02*
X99185000Y-132080000D01*
X89823997Y-130254999D02*
X93094008Y-133525010D01*
X83560001Y-130254999D02*
X89823997Y-130254999D01*
X93094008Y-133525010D02*
X97739990Y-133525010D01*
X81735000Y-132080000D02*
X83560001Y-130254999D01*
X81710000Y-132080000D02*
X81735000Y-132080000D01*
X110648998Y-132080000D02*
X129210000Y-132080000D01*
X108823997Y-130254999D02*
X110648998Y-132080000D01*
X100710000Y-132080000D02*
X100735000Y-132080000D01*
X139148998Y-132080000D02*
X157710000Y-132080000D01*
X137323997Y-130254999D02*
X139148998Y-132080000D01*
X131060001Y-130254999D02*
X137323997Y-130254999D01*
X129235000Y-132080000D02*
X131060001Y-130254999D01*
X129210000Y-132080000D02*
X129235000Y-132080000D01*
X167648998Y-132080000D02*
X176710000Y-132080000D01*
X165823997Y-130254999D02*
X167648998Y-132080000D01*
X159560001Y-130254999D02*
X165823997Y-130254999D01*
X157735000Y-132080000D02*
X159560001Y-130254999D01*
X157710000Y-132080000D02*
X157735000Y-132080000D01*
X186648998Y-132080000D02*
X195710000Y-132080000D01*
X184823997Y-130254999D02*
X186648998Y-132080000D01*
X178560001Y-130254999D02*
X184823997Y-130254999D01*
X176735000Y-132080000D02*
X178560001Y-130254999D01*
X176710000Y-132080000D02*
X176735000Y-132080000D01*
X205648998Y-132080000D02*
X214710000Y-132080000D01*
X203823997Y-130254999D02*
X205648998Y-132080000D01*
X197560001Y-130254999D02*
X203823997Y-130254999D01*
X195735000Y-132080000D02*
X197560001Y-130254999D01*
X195710000Y-132080000D02*
X195735000Y-132080000D01*
X224648998Y-132080000D02*
X233710000Y-132080000D01*
X222823997Y-130254999D02*
X224648998Y-132080000D01*
X216560001Y-130254999D02*
X222823997Y-130254999D01*
X214735000Y-132080000D02*
X216560001Y-130254999D01*
X214710000Y-132080000D02*
X214735000Y-132080000D01*
X243648998Y-132080000D02*
X252710000Y-132080000D01*
X241823997Y-130254999D02*
X243648998Y-132080000D01*
X235560001Y-130254999D02*
X241823997Y-130254999D01*
X233735000Y-132080000D02*
X235560001Y-130254999D01*
X233710000Y-132080000D02*
X233735000Y-132080000D01*
X100735000Y-132080000D02*
X102560001Y-130254999D01*
X102096194Y-120964823D02*
X103131371Y-122000000D01*
X103131371Y-122000000D02*
X105000000Y-122000000D01*
X102560001Y-130254999D02*
X108823997Y-130254999D01*
G04 #@! TO.N,Net-(D20-Pad2)*
X143060000Y-126060000D02*
X136500000Y-119500000D01*
X143060000Y-129540000D02*
X143060000Y-126060000D01*
G04 #@! TO.N,Net-(D19-Pad2)*
X131975000Y-112100000D02*
X131975000Y-115500000D01*
X133535000Y-110540000D02*
X131975000Y-112100000D01*
X133560000Y-110540000D02*
X133535000Y-110540000D01*
G04 #@! TO.N,Net-(D18-Pad2)*
X133560000Y-85360000D02*
X133560000Y-91540000D01*
X130500000Y-82300000D02*
X133560000Y-85360000D01*
X130500000Y-81500000D02*
X130500000Y-82300000D01*
G04 #@! TO.N,Net-(D17-Pad2)*
X133560000Y-74415000D02*
X130475000Y-77500000D01*
X133560000Y-72540000D02*
X133560000Y-74415000D01*
G04 #@! TO.N,Net-(D16-Pad2)*
X114560000Y-127465000D02*
X114560000Y-129540000D01*
X115500000Y-126525000D02*
X114560000Y-127465000D01*
G04 #@! TO.N,Net-(D15-Pad2)*
X111500000Y-98500000D02*
X111500000Y-99500000D01*
X111500000Y-99500000D02*
X110500000Y-100500000D01*
X99465000Y-105460000D02*
X99440000Y-105460000D01*
X104425000Y-100500000D02*
X99465000Y-105460000D01*
X110500000Y-100500000D02*
X104425000Y-100500000D01*
G04 #@! TO.N,Net-(D14-Pad2)*
X114560000Y-85360000D02*
X114560000Y-91540000D01*
X111500000Y-82300000D02*
X114560000Y-85360000D01*
X111500000Y-81500000D02*
X111500000Y-82300000D01*
G04 #@! TO.N,Net-(D13-Pad2)*
X114560000Y-74440000D02*
X111500000Y-77500000D01*
X114560000Y-72540000D02*
X114560000Y-74440000D01*
G04 #@! TO.N,Net-(D25-Pad2)*
X171560000Y-84585000D02*
X171560000Y-91540000D01*
X168475000Y-81500000D02*
X171560000Y-84585000D01*
G04 #@! TO.N,Net-(D2-Pad2)*
X57560000Y-85500000D02*
X57560000Y-91540000D01*
X57560000Y-83310000D02*
X57560000Y-85500000D01*
X55500000Y-81250000D02*
X57560000Y-83310000D01*
X55500000Y-80500000D02*
X55500000Y-81250000D01*
X57560000Y-85260000D02*
X57560000Y-85500000D01*
G04 #@! TO.N,Net-(D3-Pad2)*
X57560000Y-110540000D02*
X57535000Y-110540000D01*
X54250000Y-113825000D02*
X57535000Y-110540000D01*
X54250000Y-116250000D02*
X54250000Y-113825000D01*
G04 #@! TO.N,Net-(D4-Pad2)*
X58500000Y-128600000D02*
X57560000Y-129540000D01*
X58500000Y-126550000D02*
X58500000Y-128600000D01*
G04 #@! TO.N,Net-(D5-Pad2)*
X73475000Y-75600000D02*
X73475000Y-77500000D01*
X76535000Y-72540000D02*
X73475000Y-75600000D01*
X76560000Y-72540000D02*
X76535000Y-72540000D01*
G04 #@! TO.N,Net-(D6-Pad2)*
X76560000Y-85385000D02*
X76560000Y-91540000D01*
X73475000Y-82300000D02*
X76560000Y-85385000D01*
X73475000Y-81500000D02*
X73475000Y-82300000D01*
G04 #@! TO.N,Net-(D7-Pad2)*
X77500000Y-109600000D02*
X76560000Y-110540000D01*
X77500000Y-107500000D02*
X77500000Y-109600000D01*
G04 #@! TO.N,Net-(D8-Pad2)*
X77500000Y-128600000D02*
X76560000Y-129540000D01*
X77500000Y-126550000D02*
X77500000Y-128600000D01*
G04 #@! TO.N,Net-(D9-Pad2)*
X95560000Y-74415000D02*
X92475000Y-77500000D01*
X95560000Y-72540000D02*
X95560000Y-74415000D01*
G04 #@! TO.N,Net-(D10-Pad2)*
X95560000Y-85385000D02*
X95560000Y-91540000D01*
X92475000Y-82300000D02*
X95560000Y-85385000D01*
X92475000Y-81500000D02*
X92475000Y-82300000D01*
G04 #@! TO.N,Net-(D36-Pad2)*
X228560000Y-74440000D02*
X225500000Y-77500000D01*
X228560000Y-72540000D02*
X228560000Y-74440000D01*
G04 #@! TO.N,Net-(D12-Pad2)*
X96525000Y-130505000D02*
X95560000Y-129540000D01*
X95850000Y-129250000D02*
X95560000Y-129540000D01*
X98500000Y-129250000D02*
X95850000Y-129250000D01*
G04 #@! TO.N,Net-(D1-Pad2)*
X57560000Y-72915000D02*
X57560000Y-72540000D01*
X55500000Y-78500000D02*
X55500000Y-74975000D01*
X55500000Y-74975000D02*
X57560000Y-72915000D01*
G04 #@! TO.N,Net-(D47-Pad2)*
X266560000Y-122560000D02*
X266560000Y-129540000D01*
X263500000Y-119500000D02*
X266560000Y-122560000D01*
G04 #@! TO.N,Net-(D46-Pad2)*
X266560000Y-112415000D02*
X263475000Y-115500000D01*
X266560000Y-110540000D02*
X266560000Y-112415000D01*
G04 #@! TO.N,Net-(D45-Pad2)*
X266560000Y-85310000D02*
X266560000Y-91540000D01*
X263250000Y-82000000D02*
X266560000Y-85310000D01*
X263250000Y-81250000D02*
X263250000Y-82000000D01*
G04 #@! TO.N,Net-(D44-Pad2)*
X266560000Y-72540000D02*
X266535000Y-72540000D01*
X263250000Y-75825000D02*
X263750000Y-75325000D01*
X263250000Y-77750000D02*
X263250000Y-75825000D01*
X266535000Y-72540000D02*
X263750000Y-75325000D01*
X263750000Y-75325000D02*
X263450000Y-75625000D01*
G04 #@! TO.N,Net-(D43-Pad2)*
X247560000Y-127085000D02*
X247560000Y-129540000D01*
X240750000Y-119250000D02*
X240750000Y-120275000D01*
X240750000Y-120275000D02*
X247560000Y-127085000D01*
G04 #@! TO.N,Net-(D42-Pad2)*
X241598372Y-115376628D02*
X240975000Y-116000000D01*
X242060182Y-115376628D02*
X241598372Y-115376628D01*
X246796810Y-110640000D02*
X242060182Y-115376628D01*
X247560000Y-110640000D02*
X246796810Y-110640000D01*
G04 #@! TO.N,Net-(D41-Pad2)*
X247560000Y-88585000D02*
X247560000Y-91540000D01*
X242750000Y-83775000D02*
X244500000Y-85525000D01*
X242750000Y-80750000D02*
X242750000Y-83775000D01*
X244475000Y-85500000D02*
X244500000Y-85525000D01*
X244500000Y-85525000D02*
X247560000Y-88585000D01*
G04 #@! TO.N,Net-(D40-Pad2)*
X245435000Y-74040000D02*
X242750000Y-76725000D01*
X246035000Y-74040000D02*
X245435000Y-74040000D01*
X247535000Y-72540000D02*
X246035000Y-74040000D01*
X247560000Y-72540000D02*
X247535000Y-72540000D01*
X242750000Y-78500000D02*
X242750000Y-76725000D01*
G04 #@! TO.N,Net-(D39-Pad2)*
X228560000Y-123385000D02*
X228560000Y-129540000D01*
X225475000Y-120300000D02*
X228560000Y-123385000D01*
X225475000Y-119500000D02*
X225475000Y-120300000D01*
G04 #@! TO.N,Net-(D38-Pad2)*
X228560000Y-112415000D02*
X225475000Y-115500000D01*
X228560000Y-110540000D02*
X228560000Y-112415000D01*
G04 #@! TO.N,Net-(D35-Pad2)*
X209560000Y-123360000D02*
X209560000Y-129540000D01*
X206500000Y-120300000D02*
X209560000Y-123360000D01*
X206500000Y-119500000D02*
X206500000Y-120300000D01*
G04 #@! TO.N,Net-(D23-Pad2)*
X149475000Y-113600000D02*
X149475000Y-115500000D01*
X152535000Y-110540000D02*
X149475000Y-113600000D01*
X152560000Y-110540000D02*
X152535000Y-110540000D01*
G04 #@! TO.N,Net-(D26-Pad2)*
X171560000Y-112440000D02*
X168500000Y-115500000D01*
X171560000Y-110540000D02*
X171560000Y-112440000D01*
G04 #@! TO.N,Net-(D27-Pad2)*
X171560000Y-124133002D02*
X171560000Y-129540000D01*
X168475000Y-121048002D02*
X171560000Y-124133002D01*
X168475000Y-119500000D02*
X168475000Y-121048002D01*
G04 #@! TO.N,Net-(D28-Pad2)*
X190560000Y-74415000D02*
X187475000Y-77500000D01*
X190560000Y-72540000D02*
X190560000Y-74415000D01*
G04 #@! TO.N,Net-(D29-Pad2)*
X190560000Y-84585000D02*
X190560000Y-91540000D01*
X187475000Y-81500000D02*
X190560000Y-84585000D01*
G04 #@! TO.N,Net-(D30-Pad2)*
X190560000Y-112415000D02*
X187475000Y-115500000D01*
X190560000Y-110540000D02*
X190560000Y-112415000D01*
G04 #@! TO.N,Net-(D31-Pad2)*
X190560000Y-123360000D02*
X190560000Y-129540000D01*
X187500000Y-120300000D02*
X190560000Y-123360000D01*
X187500000Y-119500000D02*
X187500000Y-120300000D01*
G04 #@! TO.N,Net-(D32-Pad2)*
X209560000Y-74415000D02*
X206475000Y-77500000D01*
X209560000Y-72540000D02*
X209560000Y-74415000D01*
G04 #@! TO.N,Net-(D33-Pad2)*
X209560000Y-85385000D02*
X209560000Y-91540000D01*
X206475000Y-82300000D02*
X209560000Y-85385000D01*
X206475000Y-81500000D02*
X206475000Y-82300000D01*
G04 #@! TO.N,Net-(D34-Pad2)*
X209560000Y-112415000D02*
X206475000Y-115500000D01*
X209560000Y-110540000D02*
X209560000Y-112415000D01*
G04 #@! TO.N,COL03*
X115500000Y-123800000D02*
X115500000Y-124475000D01*
X96297918Y-110641064D02*
X95500000Y-109843146D01*
X95500000Y-106000000D02*
X96500000Y-105000000D01*
X96500000Y-105000000D02*
X96500000Y-102500000D01*
X117500000Y-122475000D02*
X115500000Y-124475000D01*
X117500000Y-114000000D02*
X117500000Y-122475000D01*
X115500000Y-112000000D02*
X117500000Y-114000000D01*
X111365001Y-105544667D02*
X115500000Y-109679666D01*
X115500000Y-109679666D02*
X115500000Y-112000000D01*
X111365001Y-100684999D02*
X111365001Y-105544667D01*
X113550000Y-98500000D02*
X111365001Y-100684999D01*
X108984999Y-93934999D02*
X113550000Y-98500000D01*
X108984999Y-90663999D02*
X108984999Y-93934999D01*
X113550000Y-81500000D02*
X112524990Y-80474990D01*
X113550000Y-77500000D02*
X113550000Y-81500000D01*
X112524990Y-80474990D02*
X110525010Y-80474990D01*
X110525010Y-80474990D02*
X109933999Y-81066001D01*
X109933999Y-81066001D02*
X109933999Y-89714999D01*
X109933999Y-89714999D02*
X108984999Y-90663999D01*
X95500000Y-109843146D02*
X95500000Y-106000000D01*
X79225001Y-101725001D02*
X78407180Y-100907180D01*
X83348001Y-101725001D02*
X79225001Y-101725001D01*
X88500000Y-99000000D02*
X86073002Y-99000000D01*
X86073002Y-99000000D02*
X83348001Y-101725001D01*
X60750000Y-99250000D02*
X60750000Y-98750000D01*
X63750000Y-102250000D02*
X60750000Y-99250000D01*
G04 #@! TO.N,COL04*
X101530509Y-121530509D02*
X102725000Y-122725000D01*
X102725000Y-122725000D02*
X106275000Y-122725000D01*
X129450000Y-122500000D02*
X134450000Y-117500000D01*
X127000000Y-122500000D02*
X129450000Y-122500000D01*
X134450000Y-119500000D02*
X134450000Y-117500000D01*
X134450000Y-115925000D02*
X134450000Y-117500000D01*
X134025000Y-115500000D02*
X134450000Y-115925000D01*
X131500000Y-117000000D02*
X132525000Y-117000000D01*
X132525000Y-117000000D02*
X134025000Y-115500000D01*
X128318901Y-90181099D02*
X127984999Y-90515001D01*
X128318901Y-81281099D02*
X128318901Y-90181099D01*
X131524990Y-80474990D02*
X129125010Y-80474990D01*
X131959999Y-111478591D02*
X131074990Y-112363600D01*
X132525000Y-81475000D02*
X131524990Y-80474990D01*
X132255901Y-98182899D02*
X132255901Y-108734097D01*
X131959999Y-109029999D02*
X131959999Y-111478591D01*
X132525000Y-77500000D02*
X132525000Y-81475000D01*
X127984999Y-90515001D02*
X127984999Y-93911997D01*
X127984999Y-93911997D02*
X132255901Y-98182899D01*
X130725001Y-112674999D02*
X130725001Y-116225001D01*
X129125010Y-80474990D02*
X128318901Y-81281099D01*
X132255901Y-108734097D02*
X131959999Y-109029999D01*
X130725001Y-116225001D02*
X131500000Y-117000000D01*
X131074990Y-112363600D02*
X131036400Y-112363600D01*
X131036400Y-112363600D02*
X130725001Y-112674999D01*
G04 #@! TO.N,COL05*
X100964823Y-122096194D02*
X102368629Y-123500000D01*
X102368629Y-123500000D02*
X107500000Y-123500000D01*
X107500000Y-123500000D02*
X108500000Y-122500000D01*
X151500000Y-115525000D02*
X151500000Y-119500000D01*
X148611984Y-116525010D02*
X150499990Y-116525010D01*
X146984999Y-114898025D02*
X148611984Y-116525010D01*
X150000000Y-106339666D02*
X146984999Y-109354667D01*
X146500000Y-92926998D02*
X150000000Y-96426998D01*
X151550000Y-81500000D02*
X150524990Y-80474990D01*
X151550000Y-77500000D02*
X151550000Y-81500000D01*
X150524990Y-80474990D02*
X148125010Y-80474990D01*
X150499990Y-116525010D02*
X151500000Y-115525000D01*
X148125010Y-80474990D02*
X147318901Y-81281099D01*
X146984999Y-109354667D02*
X146984999Y-114898025D01*
X150000000Y-96426998D02*
X150000000Y-106339666D01*
X147318901Y-81281099D02*
X147318901Y-90181099D01*
X146500000Y-91000000D02*
X146500000Y-92926998D01*
X147318901Y-90181099D02*
X146500000Y-91000000D01*
G04 #@! TO.N,COL00*
X94600862Y-112338120D02*
X95500000Y-113237258D01*
X95500000Y-113237258D02*
X95500000Y-115000000D01*
X53000000Y-78500000D02*
X53000000Y-80500000D01*
X58500000Y-124500000D02*
X61000000Y-124500000D01*
X53000000Y-89339666D02*
X51984999Y-90354667D01*
X53000000Y-80500000D02*
X53000000Y-89339666D01*
X51984999Y-90354667D02*
X51984999Y-92484999D01*
X51984999Y-92484999D02*
X52500000Y-93000000D01*
X52500000Y-93000000D02*
X52500000Y-108818901D01*
X52500000Y-108818901D02*
X51000000Y-110318901D01*
X54250000Y-118750000D02*
X54250000Y-120250000D01*
X54250000Y-120250000D02*
X58500000Y-124500000D01*
X53500000Y-118750000D02*
X52750000Y-118000000D01*
X54250000Y-118750000D02*
X53500000Y-118750000D01*
X52750000Y-114750000D02*
X51000000Y-113000000D01*
X52750000Y-118000000D02*
X52750000Y-114750000D01*
X51000000Y-110318901D02*
X51000000Y-113000000D01*
G04 #@! TO.N,COL06*
X100399138Y-122661880D02*
X102237258Y-124500000D01*
X102237258Y-124500000D02*
X109000000Y-124500000D01*
X109000000Y-124500000D02*
X110000000Y-123500000D01*
X170550000Y-119475000D02*
X170500000Y-119525000D01*
X170550000Y-115500000D02*
X170550000Y-119475000D01*
X169250000Y-116800000D02*
X170550000Y-115500000D01*
X166318901Y-81281099D02*
X166318901Y-90113073D01*
X169499990Y-80474990D02*
X167125010Y-80474990D01*
X167125010Y-80474990D02*
X166318901Y-81281099D01*
X170550000Y-81475000D02*
X170525000Y-81500000D01*
X170525000Y-81500000D02*
X169499990Y-80474990D01*
X170550000Y-77500000D02*
X170550000Y-81475000D01*
X166318901Y-90113073D02*
X165500000Y-90931974D01*
X166400000Y-116000000D02*
X167200000Y-116800000D01*
X165500000Y-90931974D02*
X165500000Y-92926998D01*
X165500000Y-92926998D02*
X168725001Y-96151999D01*
X168725001Y-106614665D02*
X165984999Y-109354667D01*
X168725001Y-96151999D02*
X168725001Y-106614665D01*
X170500000Y-119525000D02*
X170500000Y-122000000D01*
X165984999Y-114573189D02*
X166400000Y-114988190D01*
X165984999Y-109354667D02*
X165984999Y-114573189D01*
X166400000Y-114988190D02*
X166400000Y-116000000D01*
X167200000Y-116800000D02*
X169250000Y-116800000D01*
G04 #@! TO.N,COL02*
X94500000Y-109974517D02*
X95732233Y-111206750D01*
X92320334Y-124500000D02*
X91500000Y-124500000D01*
X94500000Y-108500000D02*
X94500000Y-109974517D01*
X94500000Y-107500000D02*
X94500000Y-108500000D01*
X92500000Y-105500000D02*
X94500000Y-107500000D01*
X92500000Y-100525000D02*
X92500000Y-105500000D01*
X94525000Y-98500000D02*
X92500000Y-100525000D01*
X94525000Y-81500000D02*
X93499990Y-80474990D01*
X93499990Y-80474990D02*
X91325010Y-80474990D01*
X91325010Y-80474990D02*
X90500000Y-81300000D01*
X90500000Y-81300000D02*
X90500000Y-90148998D01*
X94525000Y-77500000D02*
X94525000Y-81500000D01*
X90500000Y-90148998D02*
X89984999Y-90663999D01*
X89984999Y-93765001D02*
X89984999Y-93250000D01*
X89984999Y-90663999D02*
X89984999Y-93250000D01*
X89984999Y-93250000D02*
X89984999Y-93959999D01*
X94570334Y-126750000D02*
X93820334Y-126000000D01*
X98500000Y-126750000D02*
X94570334Y-126750000D01*
X94255901Y-126435567D02*
X93820334Y-126000000D01*
X93820334Y-126000000D02*
X92320334Y-124500000D01*
X90000000Y-94000000D02*
X90025000Y-94000000D01*
X89984999Y-93959999D02*
X90025000Y-94000000D01*
X90025000Y-94000000D02*
X94525000Y-98500000D01*
X88898998Y-91750000D02*
X89984999Y-90663999D01*
X84000000Y-91750000D02*
X88898998Y-91750000D01*
G04 #@! TO.N,COL01*
X95166548Y-111772435D02*
X96500000Y-113105887D01*
X96500000Y-113105887D02*
X96500000Y-115000000D01*
X70984999Y-109354667D02*
X70984999Y-117984999D01*
X74889666Y-105450000D02*
X70984999Y-109354667D01*
X77500000Y-105450000D02*
X74889666Y-105450000D01*
X70984999Y-90446975D02*
X70984999Y-98934999D01*
X70984999Y-117984999D02*
X77500000Y-124500000D01*
X75525000Y-80700000D02*
X75299990Y-80474990D01*
X75299990Y-80474990D02*
X72325010Y-80474990D01*
X72325010Y-80474990D02*
X71318901Y-81481099D01*
X75525000Y-77500000D02*
X75525000Y-80700000D01*
X71318901Y-81481099D02*
X71318901Y-90113073D01*
X77500000Y-124500000D02*
X79500000Y-124500000D01*
X71318901Y-90113073D02*
X70984999Y-90446975D01*
X75525000Y-80700000D02*
X75525000Y-80875000D01*
X75750000Y-81100000D02*
X75750000Y-81500000D01*
X75525000Y-80875000D02*
X75750000Y-81100000D01*
X70984999Y-98934999D02*
X73250000Y-101200000D01*
X73250000Y-101200000D02*
X77500000Y-105450000D01*
G04 #@! TO.N,COL09*
X113999822Y-113999822D02*
X116500000Y-116500000D01*
X102661880Y-114600862D02*
X103262920Y-113999822D01*
X103262920Y-113999822D02*
X113999822Y-113999822D01*
X227525000Y-115500000D02*
X227525000Y-119500000D01*
X226225000Y-116800000D02*
X227525000Y-115500000D01*
X225725001Y-102500000D02*
X225725001Y-106614665D01*
X224300000Y-116800000D02*
X226225000Y-116800000D01*
X225725001Y-106614665D02*
X222984999Y-109354667D01*
X222984999Y-109354667D02*
X222984999Y-114911997D01*
X222984999Y-114911997D02*
X223400000Y-115326998D01*
X223400000Y-115326998D02*
X223400000Y-115900000D01*
X223400000Y-115900000D02*
X224300000Y-116800000D01*
X225725001Y-95156003D02*
X225725001Y-102500000D01*
X222500000Y-91931002D02*
X225725001Y-95156003D01*
X222500000Y-91148998D02*
X222500000Y-91931002D01*
X227550000Y-77500000D02*
X227550000Y-81500000D01*
X227550000Y-81500000D02*
X226524990Y-80474990D01*
X226524990Y-80474990D02*
X224425010Y-80474990D01*
X224425010Y-80474990D02*
X223318901Y-81581099D01*
X223318901Y-81581099D02*
X223318901Y-90330097D01*
X223318901Y-90330097D02*
X222500000Y-91148998D01*
G04 #@! TO.N,COL10*
X113065508Y-114565508D02*
X116500000Y-118000000D01*
X103227565Y-115166548D02*
X103828605Y-114565508D01*
X103828605Y-114565508D02*
X113065508Y-114565508D01*
X244725001Y-103500000D02*
X244725001Y-106714665D01*
X239500000Y-116800000D02*
X240000000Y-117300000D01*
X240000000Y-117300000D02*
X241725000Y-117300000D01*
X244725001Y-106714665D02*
X239500000Y-111939666D01*
X239500000Y-111939666D02*
X239500000Y-116800000D01*
X241725000Y-117300000D02*
X243025000Y-116000000D01*
X245250000Y-80750000D02*
X245250000Y-78500000D01*
X244250000Y-79500000D02*
X245250000Y-78500000D01*
X242000000Y-79500000D02*
X244250000Y-79500000D01*
X241250000Y-80250000D02*
X242000000Y-79500000D01*
X241250000Y-84275000D02*
X241250000Y-80250000D01*
X244725001Y-103500000D02*
X244725001Y-95225001D01*
X244725001Y-95225001D02*
X241984999Y-92484999D01*
X241984999Y-92484999D02*
X241984999Y-90663999D01*
X241984999Y-90663999D02*
X242500000Y-90148998D01*
X242500000Y-90148998D02*
X242500000Y-85525000D01*
X242500000Y-85525000D02*
X241250000Y-84275000D01*
X243250000Y-119250000D02*
X243250000Y-116000000D01*
G04 #@! TO.N,COL11*
X265525000Y-119475000D02*
X265550000Y-119500000D01*
X265525000Y-115500000D02*
X265525000Y-119475000D01*
X264499990Y-116525010D02*
X265525000Y-115500000D01*
X262575010Y-116525010D02*
X264499990Y-116525010D01*
X115500000Y-117926998D02*
X115500000Y-119000000D01*
X112704195Y-115131193D02*
X115500000Y-117926998D01*
X103793250Y-115732233D02*
X104394290Y-115131193D01*
X104394290Y-115131193D02*
X112704195Y-115131193D01*
X260550000Y-114500000D02*
X262575010Y-116525010D01*
X260500000Y-114450000D02*
X260550000Y-114500000D01*
X260500000Y-110148998D02*
X260500000Y-114450000D01*
X261318901Y-109330097D02*
X260500000Y-110148998D01*
X261318901Y-106318901D02*
X261318901Y-109330097D01*
X260500000Y-105500000D02*
X261318901Y-106318901D01*
X260500000Y-91214999D02*
X260500000Y-105500000D01*
X262000000Y-80250000D02*
X262000000Y-89714999D01*
X262000000Y-89714999D02*
X260500000Y-91214999D01*
X265750000Y-77750000D02*
X265750000Y-81250000D01*
X262000000Y-80250000D02*
X262750000Y-79500000D01*
X264000000Y-79500000D02*
X263000000Y-79500000D01*
X265750000Y-77750000D02*
X264000000Y-79500000D01*
X262750000Y-79500000D02*
X263000000Y-79500000D01*
X263000000Y-79500000D02*
X263250000Y-79500000D01*
G04 #@! TO.N,COL08*
X208525000Y-119475000D02*
X208550000Y-119500000D01*
X208525000Y-115500000D02*
X208525000Y-119475000D01*
X204318901Y-109330097D02*
X203500000Y-110148998D01*
X204318901Y-107181099D02*
X204318901Y-109330097D01*
X206725001Y-104774999D02*
X204318901Y-107181099D01*
X207499990Y-116525010D02*
X208525000Y-115500000D01*
X205113200Y-116525010D02*
X207499990Y-116525010D01*
X203500000Y-114911810D02*
X205113200Y-116525010D01*
X203500000Y-110148998D02*
X203500000Y-114911810D01*
X107000000Y-104351002D02*
X107000000Y-101500000D01*
X104066001Y-107285001D02*
X107000000Y-104351002D01*
X102096194Y-114035177D02*
X104066001Y-112065370D01*
X104066001Y-112065370D02*
X104066001Y-107285001D01*
X206725001Y-101500000D02*
X206725001Y-104774999D01*
X206725001Y-96151999D02*
X206725001Y-101500000D01*
X203500000Y-92926998D02*
X206725001Y-96151999D01*
X208525000Y-77500000D02*
X208525000Y-81500000D01*
X208525000Y-81500000D02*
X207499990Y-80474990D01*
X207499990Y-80474990D02*
X205125010Y-80474990D01*
X203500000Y-90931974D02*
X203500000Y-92926998D01*
X205125010Y-80474990D02*
X204318901Y-81281099D01*
X204318901Y-81281099D02*
X204318901Y-90113073D01*
X204318901Y-90113073D02*
X203500000Y-90931974D01*
G04 #@! TO.N,COL07*
X102289998Y-99500000D02*
X109500000Y-99500000D01*
X97839999Y-103949999D02*
X102289998Y-99500000D01*
X98702082Y-110641064D02*
X97839999Y-109778981D01*
X97839999Y-109778981D02*
X97839999Y-103949999D01*
X189550000Y-115525000D02*
X189550000Y-119500000D01*
X189525000Y-115500000D02*
X189550000Y-115525000D01*
X187225001Y-99500000D02*
X187225001Y-107114665D01*
X187225001Y-107114665D02*
X184984999Y-109354667D01*
X184984999Y-109354667D02*
X184984999Y-115484999D01*
X184984999Y-115484999D02*
X186300000Y-116800000D01*
X186300000Y-116800000D02*
X188225000Y-116800000D01*
X188225000Y-116800000D02*
X189525000Y-115500000D01*
X184984999Y-93911997D02*
X187225001Y-96151999D01*
X184984999Y-90663999D02*
X184984999Y-93911997D01*
X189525000Y-77500000D02*
X189525000Y-81500000D01*
X189525000Y-81500000D02*
X188499990Y-80474990D01*
X188499990Y-80474990D02*
X186425010Y-80474990D01*
X186425010Y-80474990D02*
X185318901Y-81581099D01*
X185318901Y-81581099D02*
X185318901Y-90330097D01*
X187225001Y-96151999D02*
X187225001Y-99500000D01*
X185318901Y-90330097D02*
X184984999Y-90663999D01*
G04 #@! TO.N,Net-(P1-PadA6)*
X78250000Y-67520000D02*
X78250000Y-68750000D01*
X78250000Y-68750000D02*
X78000000Y-69000000D01*
X78000000Y-76500000D02*
X78000000Y-78475000D01*
X78500000Y-66405002D02*
X78500000Y-65820000D01*
X78250000Y-66655002D02*
X78500000Y-66405002D01*
X78250000Y-67520000D02*
X78250000Y-66655002D01*
G04 #@! TO.N,Net-(P1-PadA7)*
X78750000Y-67520000D02*
X78750000Y-68750000D01*
X78750000Y-68750000D02*
X79000000Y-69000000D01*
X79000000Y-76500000D02*
X80000000Y-77500000D01*
X80000000Y-77500000D02*
X80000000Y-78475000D01*
X78000000Y-64750000D02*
X78000000Y-65820000D01*
G04 #@! TO.N,Net-(D24-Pad2)*
X171560000Y-74440000D02*
X168500000Y-77500000D01*
X171560000Y-72540000D02*
X171560000Y-74440000D01*
G04 #@! TO.N,VBUS*
X79500000Y-66405002D02*
X79500000Y-65820000D01*
X79750000Y-66655002D02*
X79500000Y-66405002D01*
X79750000Y-67520000D02*
X79750000Y-66655002D01*
X77250000Y-66670000D02*
X77250000Y-67520000D01*
X77000000Y-66420000D02*
X77250000Y-66670000D01*
X77000000Y-65820000D02*
X77000000Y-66420000D01*
X94035177Y-113035177D02*
X94035177Y-112903806D01*
X90641064Y-118702082D02*
X90641064Y-118454623D01*
X90641064Y-118454623D02*
X94520541Y-114575146D01*
X94520541Y-114575146D02*
X94520541Y-113520541D01*
X94520541Y-113520541D02*
X94035177Y-113035177D01*
X94035177Y-112903806D02*
X93000000Y-111868629D01*
X93000000Y-111868629D02*
X93000000Y-111500000D01*
X90000000Y-114525483D02*
X91206750Y-115732233D01*
X90000000Y-114500000D02*
X90000000Y-114525483D01*
X96898958Y-123439681D02*
X96898958Y-123757896D01*
X91459277Y-118000000D02*
X96898958Y-123439681D01*
X91343146Y-118000000D02*
X91459277Y-118000000D01*
X90641064Y-118702082D02*
X91343146Y-118000000D01*
X99833452Y-111772435D02*
X98605887Y-113000000D01*
X98605887Y-113000000D02*
X98000000Y-113000000D01*
X96898958Y-123757896D02*
X96297918Y-124358936D01*
X101990127Y-118666727D02*
X96898958Y-123757896D01*
X103192210Y-118666727D02*
X101990127Y-118666727D01*
X103793250Y-119267767D02*
X103192210Y-118666727D01*
X78839999Y-103949999D02*
X77500000Y-102610000D01*
X78839999Y-106970001D02*
X78839999Y-103949999D01*
X90000000Y-114500000D02*
X86369998Y-114500000D01*
X86369998Y-114500000D02*
X78839999Y-106970001D01*
X82000000Y-78500000D02*
X79750000Y-76250000D01*
X82000000Y-81000000D02*
X82000000Y-78500000D01*
X82500000Y-81500000D02*
X82000000Y-81000000D01*
X81475000Y-81500000D02*
X82500000Y-81500000D01*
X80000000Y-82975000D02*
X81475000Y-81500000D01*
X77500000Y-102610000D02*
X77500000Y-94500000D01*
X77250000Y-69323002D02*
X77676998Y-69750000D01*
X77250000Y-67520000D02*
X77250000Y-69323002D01*
X79750000Y-70250000D02*
X79750000Y-67520000D01*
X79250000Y-69750000D02*
X79750000Y-70250000D01*
X77676998Y-69750000D02*
X79250000Y-69750000D01*
X79750000Y-76250000D02*
X79750000Y-70250000D01*
X104444510Y-119919027D02*
X107830973Y-119919027D01*
X103793250Y-119267767D02*
X104444510Y-119919027D01*
X108275000Y-119475000D02*
X108275000Y-118250000D01*
X107830973Y-119919027D02*
X108275000Y-119475000D01*
G04 #@! TO.N,D-*
X91772435Y-115166548D02*
X90500000Y-113894113D01*
X86500000Y-102361411D02*
X86500000Y-102000000D01*
X90500000Y-113894113D02*
X90500000Y-106361411D01*
X90500000Y-106361411D02*
X86500000Y-102361411D01*
X78025000Y-82500000D02*
X80000000Y-80525000D01*
X83000000Y-99926998D02*
X79000000Y-95926998D01*
X83000000Y-101000000D02*
X83000000Y-99926998D01*
X79000000Y-95926998D02*
X78999999Y-87363589D01*
X78999999Y-87363589D02*
X78000000Y-86363590D01*
X78000000Y-86363590D02*
X78000000Y-82500000D01*
X78000000Y-82500000D02*
X78025000Y-82500000D01*
G04 #@! TO.N,D+*
X92338120Y-114600862D02*
X91274999Y-113537741D01*
X91274999Y-113537741D02*
X91274999Y-106500000D01*
X91274999Y-106500000D02*
X87500000Y-102725001D01*
X87500000Y-102725001D02*
X87500000Y-102000000D01*
X78000000Y-81200000D02*
X78000000Y-80525000D01*
X78000000Y-81500000D02*
X78000000Y-80525000D01*
X77500000Y-82000000D02*
X78000000Y-81500000D01*
X77500000Y-86500000D02*
X77500000Y-82000000D01*
X78549990Y-87549990D02*
X77500000Y-86500000D01*
X82000000Y-100000000D02*
X78549990Y-96549990D01*
X78549990Y-96549990D02*
X78549990Y-87549990D01*
G04 #@! TO.N,GND*
X82990000Y-65250000D02*
X82630000Y-65610000D01*
X82990000Y-59660000D02*
X82990000Y-65250000D01*
X82630000Y-65610000D02*
X82630000Y-65310000D01*
X74370000Y-65310000D02*
X74370000Y-65610000D01*
X89699301Y-120775216D02*
X88775216Y-120775216D01*
X91206750Y-119267767D02*
X89699301Y-120775216D01*
X88250216Y-120775216D02*
X88775216Y-120775216D01*
X86000000Y-118525000D02*
X88250216Y-120775216D01*
X84050000Y-118525000D02*
X84025000Y-118500000D01*
X86000000Y-118525000D02*
X84050000Y-118525000D01*
X84025000Y-116500000D02*
X84025000Y-118500000D01*
X75750000Y-66747998D02*
X75750000Y-67520000D01*
X75500000Y-66497998D02*
X75750000Y-66747998D01*
X75500000Y-65820000D02*
X75500000Y-66497998D01*
X81250000Y-66070000D02*
X81250000Y-67520000D01*
X81000000Y-65820000D02*
X81250000Y-66070000D01*
X92903806Y-114035177D02*
X92000000Y-113131371D01*
X92000000Y-113131371D02*
X92000000Y-110500000D01*
X99798098Y-112939160D02*
X100399138Y-112338120D01*
X98737258Y-114096999D02*
X97401525Y-115432732D01*
X98737258Y-114000000D02*
X98737258Y-114096999D01*
X100399138Y-112338120D02*
X98737258Y-114000000D01*
X99968793Y-118000000D02*
X97401525Y-115432732D01*
X104358936Y-118702082D02*
X103656854Y-118000000D01*
X103656854Y-118000000D02*
X99968793Y-118000000D01*
X95131193Y-124394290D02*
X95732233Y-123793250D01*
X92894290Y-124394290D02*
X95131193Y-124394290D01*
X91500000Y-123000000D02*
X92894290Y-124394290D01*
X90934315Y-123000000D02*
X91500000Y-123000000D01*
X90586513Y-123347802D02*
X90934315Y-123000000D01*
X89898218Y-123347802D02*
X90586513Y-123347802D01*
X88775216Y-122224800D02*
X89898218Y-123347802D01*
X91904099Y-109838414D02*
X91904099Y-104595901D01*
X92000000Y-110500000D02*
X92000000Y-109934315D01*
X92000000Y-109934315D02*
X91904099Y-109838414D01*
X91904099Y-104595901D02*
X91775000Y-104725000D01*
X91775000Y-104725000D02*
X91775000Y-104775000D01*
X90500000Y-99775000D02*
X90500000Y-97725000D01*
X90500000Y-97725000D02*
X90000000Y-97225000D01*
X81250000Y-68750000D02*
X81250000Y-67520000D01*
X81000000Y-69000000D02*
X81250000Y-68750000D01*
X103150000Y-83400000D02*
X96850000Y-83400000D01*
X96750000Y-83500000D02*
X96850000Y-83400000D01*
X95000000Y-83500000D02*
X96750000Y-83500000D01*
X88775216Y-121974784D02*
X88775216Y-121750000D01*
X88775216Y-120775216D02*
X88775216Y-121750000D01*
X88775216Y-121750000D02*
X88775216Y-122224800D01*
X58210000Y-103830000D02*
X59750000Y-105370000D01*
X63019998Y-116500000D02*
X66250000Y-116500000D01*
X59750000Y-105370000D02*
X59750000Y-113230002D01*
X59750000Y-113230002D02*
X63019998Y-116500000D01*
X84025000Y-116500000D02*
X84025000Y-115775000D01*
X84025000Y-115775000D02*
X83250000Y-115000000D01*
X74580000Y-65820000D02*
X74370000Y-65610000D01*
X75500000Y-65820000D02*
X74580000Y-65820000D01*
X82420000Y-65820000D02*
X82630000Y-65610000D01*
X74010000Y-65250000D02*
X74370000Y-65610000D01*
X74010000Y-59660000D02*
X74010000Y-65250000D01*
X81710000Y-65610000D02*
X81250000Y-66070000D01*
X82630000Y-65610000D02*
X81710000Y-65610000D01*
X82990000Y-59660000D02*
X74010000Y-59660000D01*
X105125871Y-119469017D02*
X104358936Y-118702082D01*
X105805983Y-119469017D02*
X105125871Y-119469017D01*
X106225000Y-119050000D02*
X105805983Y-119469017D01*
X106225000Y-118250000D02*
X106225000Y-119050000D01*
X97311018Y-125750000D02*
X98702082Y-124358936D01*
X95750000Y-125750000D02*
X97311018Y-125750000D01*
X95131193Y-124394290D02*
X95131193Y-125131193D01*
X95131193Y-125131193D02*
X95750000Y-125750000D01*
X77650000Y-118800000D02*
X77650000Y-118950000D01*
X75350000Y-116500000D02*
X77650000Y-118800000D01*
X75350000Y-116050000D02*
X75350000Y-116500000D01*
X73450000Y-116050000D02*
X73000000Y-116500000D01*
X75350000Y-116050000D02*
X73450000Y-116050000D01*
G04 #@! TO.N,UCAP*
X94070531Y-114070531D02*
X93469491Y-113469491D01*
X94070531Y-114388746D02*
X94070531Y-114070531D01*
X90959277Y-117500000D02*
X94070531Y-114388746D01*
X87025000Y-117500000D02*
X90959277Y-117500000D01*
X86000000Y-116475000D02*
X87025000Y-117500000D01*
G04 #@! TO.N,X2*
X99500000Y-114368629D02*
X99500000Y-115500000D01*
X100964823Y-112903806D02*
X99500000Y-114368629D01*
X81975000Y-120475000D02*
X81975000Y-118500000D01*
X85000000Y-121000000D02*
X82500000Y-121000000D01*
X82500000Y-121000000D02*
X81975000Y-120475000D01*
X80025000Y-118500000D02*
X80000000Y-118525000D01*
X81975000Y-118500000D02*
X80025000Y-118500000D01*
X75350000Y-119100000D02*
X75350000Y-118950000D01*
X76575001Y-120325001D02*
X75350000Y-119100000D01*
X78874999Y-120325001D02*
X76575001Y-120325001D01*
X80000000Y-119200000D02*
X78874999Y-120325001D01*
X80000000Y-118525000D02*
X80000000Y-119200000D01*
G04 #@! TO.N,X1*
X101530509Y-113469491D02*
X100500000Y-114500000D01*
X100500000Y-114500000D02*
X100500000Y-115000000D01*
X82598372Y-117123372D02*
X82623372Y-117123372D01*
X81975000Y-116500000D02*
X82598372Y-117123372D01*
X83124990Y-117624990D02*
X83124990Y-119624990D01*
X82623372Y-117123372D02*
X83124990Y-117624990D01*
X83124990Y-119624990D02*
X83500000Y-120000000D01*
X83500000Y-120000000D02*
X85500000Y-120000000D01*
X86987347Y-121487347D02*
X86987347Y-122512653D01*
X85500000Y-120000000D02*
X86987347Y-121487347D01*
X80025000Y-116500000D02*
X80000000Y-116475000D01*
X81975000Y-116500000D02*
X80025000Y-116500000D01*
X78075000Y-116475000D02*
X77650000Y-116050000D01*
X80000000Y-116475000D02*
X78075000Y-116475000D01*
G04 #@! TO.N,AREF*
X90790468Y-120815419D02*
X91772435Y-119833452D01*
X90790468Y-121659100D02*
X90790468Y-120815419D01*
X90224784Y-122224784D02*
X90790468Y-121659100D01*
G04 #@! TO.N,RST*
X96850000Y-79600000D02*
X103150000Y-79600000D01*
X80000000Y-85025000D02*
X80000000Y-95480002D01*
X83519998Y-99000000D02*
X84000000Y-99000000D01*
X100474517Y-110000000D02*
X99267767Y-111206750D01*
X100500000Y-110000000D02*
X100474517Y-110000000D01*
X80623372Y-84401628D02*
X86098372Y-84401628D01*
X80000000Y-85025000D02*
X80623372Y-84401628D01*
X86098372Y-84401628D02*
X91000000Y-79500000D01*
X96750000Y-79500000D02*
X96850000Y-79600000D01*
X95250000Y-79500000D02*
X96750000Y-79500000D01*
X80000000Y-95480002D02*
X82000000Y-97480002D01*
X82000000Y-97480002D02*
X83519998Y-99000000D01*
X60750000Y-103830000D02*
X63420000Y-103830000D01*
X63420000Y-103830000D02*
X68250000Y-99000000D01*
G04 #@! TD*
M02*
