G04 #@! TF.GenerationSoftware,KiCad,Pcbnew,(5.0.2)-1*
G04 #@! TF.CreationDate,2022-11-06T21:34:21-05:00*
G04 #@! TF.ProjectId,kurako_40,6b757261-6b6f-45f3-9430-2e6b69636164,rev?*
G04 #@! TF.SameCoordinates,Original*
G04 #@! TF.FileFunction,Legend,Bot*
G04 #@! TF.FilePolarity,Positive*
%FSLAX46Y46*%
G04 Gerber Fmt 4.6, Leading zero omitted, Abs format (unit mm)*
G04 Created by KiCad (PCBNEW (5.0.2)-1) date 11/6/2022 9:34:21 PM*
%MOMM*%
%LPD*%
G01*
G04 APERTURE LIST*
%ADD10C,0.300000*%
%ADD11C,0.120000*%
%ADD12C,0.150000*%
G04 APERTURE END LIST*
D10*
X66587857Y-101857142D02*
X66373571Y-101928571D01*
X66016428Y-101928571D01*
X65873571Y-101857142D01*
X65802142Y-101785714D01*
X65730714Y-101642857D01*
X65730714Y-101500000D01*
X65802142Y-101357142D01*
X65873571Y-101285714D01*
X66016428Y-101214285D01*
X66302142Y-101142857D01*
X66445000Y-101071428D01*
X66516428Y-101000000D01*
X66587857Y-100857142D01*
X66587857Y-100714285D01*
X66516428Y-100571428D01*
X66445000Y-100500000D01*
X66302142Y-100428571D01*
X65945000Y-100428571D01*
X65730714Y-100500000D01*
X64230714Y-101785714D02*
X64302142Y-101857142D01*
X64516428Y-101928571D01*
X64659285Y-101928571D01*
X64873571Y-101857142D01*
X65016428Y-101714285D01*
X65087857Y-101571428D01*
X65159285Y-101285714D01*
X65159285Y-101071428D01*
X65087857Y-100785714D01*
X65016428Y-100642857D01*
X64873571Y-100500000D01*
X64659285Y-100428571D01*
X64516428Y-100428571D01*
X64302142Y-100500000D01*
X64230714Y-100571428D01*
X63587857Y-101928571D02*
X63587857Y-100428571D01*
X62730714Y-101928571D02*
X63373571Y-101071428D01*
X62730714Y-100428571D02*
X63587857Y-101285714D01*
X56197857Y-101928571D02*
X56197857Y-100428571D01*
X55697857Y-101500000D01*
X55197857Y-100428571D01*
X55197857Y-101928571D01*
X54197857Y-100428571D02*
X53912142Y-100428571D01*
X53769285Y-100500000D01*
X53626428Y-100642857D01*
X53555000Y-100928571D01*
X53555000Y-101428571D01*
X53626428Y-101714285D01*
X53769285Y-101857142D01*
X53912142Y-101928571D01*
X54197857Y-101928571D01*
X54340714Y-101857142D01*
X54483571Y-101714285D01*
X54555000Y-101428571D01*
X54555000Y-100928571D01*
X54483571Y-100642857D01*
X54340714Y-100500000D01*
X54197857Y-100428571D01*
X52983571Y-101857142D02*
X52769285Y-101928571D01*
X52412142Y-101928571D01*
X52269285Y-101857142D01*
X52197857Y-101785714D01*
X52126428Y-101642857D01*
X52126428Y-101500000D01*
X52197857Y-101357142D01*
X52269285Y-101285714D01*
X52412142Y-101214285D01*
X52697857Y-101142857D01*
X52840714Y-101071428D01*
X52912142Y-101000000D01*
X52983571Y-100857142D01*
X52983571Y-100714285D01*
X52912142Y-100571428D01*
X52840714Y-100500000D01*
X52697857Y-100428571D01*
X52340714Y-100428571D01*
X52126428Y-100500000D01*
X51483571Y-101928571D02*
X51483571Y-100428571D01*
X67516428Y-99428571D02*
X67516428Y-97928571D01*
X67016428Y-99000000D01*
X66516428Y-97928571D01*
X66516428Y-99428571D01*
X65802142Y-99428571D02*
X65802142Y-97928571D01*
X65159285Y-99357142D02*
X64945000Y-99428571D01*
X64587857Y-99428571D01*
X64445000Y-99357142D01*
X64373571Y-99285714D01*
X64302142Y-99142857D01*
X64302142Y-99000000D01*
X64373571Y-98857142D01*
X64445000Y-98785714D01*
X64587857Y-98714285D01*
X64873571Y-98642857D01*
X65016428Y-98571428D01*
X65087857Y-98500000D01*
X65159285Y-98357142D01*
X65159285Y-98214285D01*
X65087857Y-98071428D01*
X65016428Y-98000000D01*
X64873571Y-97928571D01*
X64516428Y-97928571D01*
X64302142Y-98000000D01*
X63373571Y-97928571D02*
X63087857Y-97928571D01*
X62945000Y-98000000D01*
X62802142Y-98142857D01*
X62730714Y-98428571D01*
X62730714Y-98928571D01*
X62802142Y-99214285D01*
X62945000Y-99357142D01*
X63087857Y-99428571D01*
X63373571Y-99428571D01*
X63516428Y-99357142D01*
X63659285Y-99214285D01*
X63730714Y-98928571D01*
X63730714Y-98428571D01*
X63659285Y-98142857D01*
X63516428Y-98000000D01*
X63373571Y-97928571D01*
X56412142Y-97928571D02*
X55912142Y-99428571D01*
X55412142Y-97928571D01*
X54055000Y-99285714D02*
X54126428Y-99357142D01*
X54340714Y-99428571D01*
X54483571Y-99428571D01*
X54697857Y-99357142D01*
X54840714Y-99214285D01*
X54912142Y-99071428D01*
X54983571Y-98785714D01*
X54983571Y-98571428D01*
X54912142Y-98285714D01*
X54840714Y-98142857D01*
X54697857Y-98000000D01*
X54483571Y-97928571D01*
X54340714Y-97928571D01*
X54126428Y-98000000D01*
X54055000Y-98071428D01*
X52555000Y-99285714D02*
X52626428Y-99357142D01*
X52840714Y-99428571D01*
X52983571Y-99428571D01*
X53197857Y-99357142D01*
X53340714Y-99214285D01*
X53412142Y-99071428D01*
X53483571Y-98785714D01*
X53483571Y-98571428D01*
X53412142Y-98285714D01*
X53340714Y-98142857D01*
X53197857Y-98000000D01*
X52983571Y-97928571D01*
X52840714Y-97928571D01*
X52626428Y-98000000D01*
X52555000Y-98071428D01*
X65302142Y-104428571D02*
X65802142Y-103714285D01*
X66159285Y-104428571D02*
X66159285Y-102928571D01*
X65587857Y-102928571D01*
X65445000Y-103000000D01*
X65373571Y-103071428D01*
X65302142Y-103214285D01*
X65302142Y-103428571D01*
X65373571Y-103571428D01*
X65445000Y-103642857D01*
X65587857Y-103714285D01*
X66159285Y-103714285D01*
X64730714Y-104357142D02*
X64516428Y-104428571D01*
X64159285Y-104428571D01*
X64016428Y-104357142D01*
X63945000Y-104285714D01*
X63873571Y-104142857D01*
X63873571Y-104000000D01*
X63945000Y-103857142D01*
X64016428Y-103785714D01*
X64159285Y-103714285D01*
X64445000Y-103642857D01*
X64587857Y-103571428D01*
X64659285Y-103500000D01*
X64730714Y-103357142D01*
X64730714Y-103214285D01*
X64659285Y-103071428D01*
X64587857Y-103000000D01*
X64445000Y-102928571D01*
X64087857Y-102928571D01*
X63873571Y-103000000D01*
X63445000Y-102928571D02*
X62587857Y-102928571D01*
X63016428Y-104428571D02*
X63016428Y-102928571D01*
X55412142Y-103000000D02*
X55555000Y-102928571D01*
X55769285Y-102928571D01*
X55983571Y-103000000D01*
X56126428Y-103142857D01*
X56197857Y-103285714D01*
X56269285Y-103571428D01*
X56269285Y-103785714D01*
X56197857Y-104071428D01*
X56126428Y-104214285D01*
X55983571Y-104357142D01*
X55769285Y-104428571D01*
X55626428Y-104428571D01*
X55412142Y-104357142D01*
X55340714Y-104285714D01*
X55340714Y-103785714D01*
X55626428Y-103785714D01*
X54697857Y-104428571D02*
X54697857Y-102928571D01*
X53840714Y-104428571D01*
X53840714Y-102928571D01*
X53126428Y-104428571D02*
X53126428Y-102928571D01*
X52769285Y-102928571D01*
X52555000Y-103000000D01*
X52412142Y-103142857D01*
X52340714Y-103285714D01*
X52269285Y-103571428D01*
X52269285Y-103785714D01*
X52340714Y-104071428D01*
X52412142Y-104214285D01*
X52555000Y-104357142D01*
X52769285Y-104428571D01*
X53126428Y-104428571D01*
D11*
G04 #@! TO.C,C5*
X107511252Y-117540000D02*
X106988748Y-117540000D01*
X107511252Y-118960000D02*
X106988748Y-118960000D01*
G04 #@! TO.C,J1*
X56880000Y-97420000D02*
X59480000Y-97420000D01*
X56880000Y-97420000D02*
X56880000Y-105160000D01*
X56880000Y-105160000D02*
X62080000Y-105160000D01*
X62080000Y-100020000D02*
X62080000Y-105160000D01*
X59480000Y-100020000D02*
X62080000Y-100020000D01*
X59480000Y-97420000D02*
X59480000Y-100020000D01*
X62080000Y-97420000D02*
X62080000Y-98750000D01*
X60750000Y-97420000D02*
X62080000Y-97420000D01*
G04 #@! TO.C,D20*
X133575000Y-120350000D02*
X136725000Y-120350000D01*
X133575000Y-118650000D02*
X136725000Y-118650000D01*
X133575000Y-120350000D02*
X133575000Y-118650000D01*
G04 #@! TO.C,D2*
X52350000Y-81350000D02*
X55500000Y-81350000D01*
X52350000Y-79650000D02*
X55500000Y-79650000D01*
X52350000Y-81350000D02*
X52350000Y-79650000D01*
G04 #@! TO.C,D23*
X152400000Y-114650000D02*
X149250000Y-114650000D01*
X152400000Y-116350000D02*
X149250000Y-116350000D01*
X152400000Y-114650000D02*
X152400000Y-116350000D01*
G04 #@! TO.C,D22*
X152425000Y-80650000D02*
X149275000Y-80650000D01*
X152425000Y-82350000D02*
X149275000Y-82350000D01*
X152425000Y-80650000D02*
X152425000Y-82350000D01*
G04 #@! TO.C,D21*
X152425000Y-76650000D02*
X149275000Y-76650000D01*
X152425000Y-78350000D02*
X149275000Y-78350000D01*
X152425000Y-76650000D02*
X152425000Y-78350000D01*
G04 #@! TO.C,D19*
X134900000Y-114650000D02*
X131750000Y-114650000D01*
X134900000Y-116350000D02*
X131750000Y-116350000D01*
X134900000Y-114650000D02*
X134900000Y-116350000D01*
G04 #@! TO.C,D18*
X133425000Y-80650000D02*
X130275000Y-80650000D01*
X133425000Y-82350000D02*
X130275000Y-82350000D01*
X133425000Y-80650000D02*
X133425000Y-82350000D01*
G04 #@! TO.C,D17*
X133400000Y-76650000D02*
X130250000Y-76650000D01*
X133400000Y-78350000D02*
X130250000Y-78350000D01*
X133400000Y-76650000D02*
X133400000Y-78350000D01*
G04 #@! TO.C,D16*
X114650000Y-123600000D02*
X114650000Y-126750000D01*
X116350000Y-123600000D02*
X116350000Y-126750000D01*
X114650000Y-123600000D02*
X116350000Y-123600000D01*
G04 #@! TO.C,D15*
X114425000Y-97650000D02*
X111275000Y-97650000D01*
X114425000Y-99350000D02*
X111275000Y-99350000D01*
X114425000Y-97650000D02*
X114425000Y-99350000D01*
G04 #@! TO.C,D14*
X114425000Y-80650000D02*
X111275000Y-80650000D01*
X114425000Y-82350000D02*
X111275000Y-82350000D01*
X114425000Y-80650000D02*
X114425000Y-82350000D01*
G04 #@! TO.C,D13*
X114425000Y-76650000D02*
X111275000Y-76650000D01*
X114425000Y-78350000D02*
X111275000Y-78350000D01*
X114425000Y-76650000D02*
X114425000Y-78350000D01*
G04 #@! TO.C,D11*
X95400000Y-97650000D02*
X92250000Y-97650000D01*
X95400000Y-99350000D02*
X92250000Y-99350000D01*
X95400000Y-97650000D02*
X95400000Y-99350000D01*
G04 #@! TO.C,D1*
X52350000Y-79350000D02*
X55500000Y-79350000D01*
X52350000Y-77650000D02*
X55500000Y-77650000D01*
X52350000Y-79350000D02*
X52350000Y-77650000D01*
G04 #@! TO.C,D3*
X55100000Y-119400000D02*
X55100000Y-116250000D01*
X53400000Y-119400000D02*
X53400000Y-116250000D01*
X55100000Y-119400000D02*
X53400000Y-119400000D01*
G04 #@! TO.C,D4*
X57650000Y-123625000D02*
X57650000Y-126775000D01*
X59350000Y-123625000D02*
X59350000Y-126775000D01*
X57650000Y-123625000D02*
X59350000Y-123625000D01*
G04 #@! TO.C,D5*
X76400000Y-76650000D02*
X73250000Y-76650000D01*
X76400000Y-78350000D02*
X73250000Y-78350000D01*
X76400000Y-76650000D02*
X76400000Y-78350000D01*
G04 #@! TO.C,D6*
X76400000Y-80650000D02*
X73250000Y-80650000D01*
X76400000Y-82350000D02*
X73250000Y-82350000D01*
X76400000Y-80650000D02*
X76400000Y-82350000D01*
G04 #@! TO.C,D7*
X76650000Y-104575000D02*
X76650000Y-107725000D01*
X78350000Y-104575000D02*
X78350000Y-107725000D01*
X76650000Y-104575000D02*
X78350000Y-104575000D01*
G04 #@! TO.C,D8*
X76650000Y-123625000D02*
X76650000Y-126775000D01*
X78350000Y-123625000D02*
X78350000Y-126775000D01*
X76650000Y-123625000D02*
X78350000Y-123625000D01*
G04 #@! TO.C,D9*
X95400000Y-76650000D02*
X92250000Y-76650000D01*
X95400000Y-78350000D02*
X92250000Y-78350000D01*
X95400000Y-76650000D02*
X95400000Y-78350000D01*
G04 #@! TO.C,D10*
X95400000Y-80650000D02*
X92250000Y-80650000D01*
X95400000Y-82350000D02*
X92250000Y-82350000D01*
X95400000Y-80650000D02*
X95400000Y-82350000D01*
G04 #@! TO.C,D46*
X266400000Y-114650000D02*
X263250000Y-114650000D01*
X266400000Y-116350000D02*
X263250000Y-116350000D01*
X266400000Y-114650000D02*
X266400000Y-116350000D01*
G04 #@! TO.C,D25*
X171400000Y-80650000D02*
X168250000Y-80650000D01*
X171400000Y-82350000D02*
X168250000Y-82350000D01*
X171400000Y-80650000D02*
X171400000Y-82350000D01*
G04 #@! TO.C,D24*
X171425000Y-76650000D02*
X168275000Y-76650000D01*
X171425000Y-78350000D02*
X168275000Y-78350000D01*
X171425000Y-76650000D02*
X171425000Y-78350000D01*
G04 #@! TO.C,D47*
X266425000Y-118650000D02*
X263275000Y-118650000D01*
X266425000Y-120350000D02*
X263275000Y-120350000D01*
X266425000Y-118650000D02*
X266425000Y-120350000D01*
G04 #@! TO.C,D45*
X266400000Y-80650000D02*
X263250000Y-80650000D01*
X266400000Y-82350000D02*
X263250000Y-82350000D01*
X266400000Y-80650000D02*
X266400000Y-82350000D01*
G04 #@! TO.C,D44*
X266400000Y-76650000D02*
X263250000Y-76650000D01*
X266400000Y-78350000D02*
X263250000Y-78350000D01*
X266400000Y-76650000D02*
X266400000Y-78350000D01*
G04 #@! TO.C,D43*
X243900000Y-118400000D02*
X240750000Y-118400000D01*
X243900000Y-120100000D02*
X240750000Y-120100000D01*
X243900000Y-118400000D02*
X243900000Y-120100000D01*
G04 #@! TO.C,D42*
X243900000Y-115150000D02*
X240750000Y-115150000D01*
X243900000Y-116850000D02*
X240750000Y-116850000D01*
X243900000Y-115150000D02*
X243900000Y-116850000D01*
G04 #@! TO.C,D41*
X245900000Y-79900000D02*
X242750000Y-79900000D01*
X245900000Y-81600000D02*
X242750000Y-81600000D01*
X245900000Y-79900000D02*
X245900000Y-81600000D01*
G04 #@! TO.C,D40*
X245900000Y-77650000D02*
X242750000Y-77650000D01*
X245900000Y-79350000D02*
X242750000Y-79350000D01*
X245900000Y-77650000D02*
X245900000Y-79350000D01*
G04 #@! TO.C,D39*
X228400000Y-118650000D02*
X225250000Y-118650000D01*
X228400000Y-120350000D02*
X225250000Y-120350000D01*
X228400000Y-118650000D02*
X228400000Y-120350000D01*
G04 #@! TO.C,D38*
X228400000Y-114650000D02*
X225250000Y-114650000D01*
X228400000Y-116350000D02*
X225250000Y-116350000D01*
X228400000Y-114650000D02*
X228400000Y-116350000D01*
G04 #@! TO.C,D37*
X228425000Y-80650000D02*
X225275000Y-80650000D01*
X228425000Y-82350000D02*
X225275000Y-82350000D01*
X228425000Y-80650000D02*
X228425000Y-82350000D01*
G04 #@! TO.C,D36*
X228425000Y-76650000D02*
X225275000Y-76650000D01*
X228425000Y-78350000D02*
X225275000Y-78350000D01*
X228425000Y-76650000D02*
X228425000Y-78350000D01*
G04 #@! TO.C,D34*
X209400000Y-114650000D02*
X206250000Y-114650000D01*
X209400000Y-116350000D02*
X206250000Y-116350000D01*
X209400000Y-114650000D02*
X209400000Y-116350000D01*
G04 #@! TO.C,D12*
X97650000Y-126100000D02*
X97650000Y-129250000D01*
X99350000Y-126100000D02*
X99350000Y-129250000D01*
X97650000Y-126100000D02*
X99350000Y-126100000D01*
G04 #@! TO.C,D26*
X171425000Y-114650000D02*
X168275000Y-114650000D01*
X171425000Y-116350000D02*
X168275000Y-116350000D01*
X171425000Y-114650000D02*
X171425000Y-116350000D01*
G04 #@! TO.C,D27*
X171400000Y-118650000D02*
X168250000Y-118650000D01*
X171400000Y-120350000D02*
X168250000Y-120350000D01*
X171400000Y-118650000D02*
X171400000Y-120350000D01*
G04 #@! TO.C,D28*
X190400000Y-76650000D02*
X187250000Y-76650000D01*
X190400000Y-78350000D02*
X187250000Y-78350000D01*
X190400000Y-76650000D02*
X190400000Y-78350000D01*
G04 #@! TO.C,D29*
X190400000Y-80650000D02*
X187250000Y-80650000D01*
X190400000Y-82350000D02*
X187250000Y-82350000D01*
X190400000Y-80650000D02*
X190400000Y-82350000D01*
G04 #@! TO.C,D30*
X190400000Y-114650000D02*
X187250000Y-114650000D01*
X190400000Y-116350000D02*
X187250000Y-116350000D01*
X190400000Y-114650000D02*
X190400000Y-116350000D01*
G04 #@! TO.C,D31*
X190425000Y-118650000D02*
X187275000Y-118650000D01*
X190425000Y-120350000D02*
X187275000Y-120350000D01*
X190425000Y-118650000D02*
X190425000Y-120350000D01*
G04 #@! TO.C,D32*
X209400000Y-76650000D02*
X206250000Y-76650000D01*
X209400000Y-78350000D02*
X206250000Y-78350000D01*
X209400000Y-76650000D02*
X209400000Y-78350000D01*
G04 #@! TO.C,D33*
X209400000Y-80650000D02*
X206250000Y-80650000D01*
X209400000Y-82350000D02*
X206250000Y-82350000D01*
X209400000Y-80650000D02*
X209400000Y-82350000D01*
G04 #@! TO.C,D35*
X209425000Y-118650000D02*
X206275000Y-118650000D01*
X209425000Y-120350000D02*
X206275000Y-120350000D01*
X209425000Y-118650000D02*
X209425000Y-120350000D01*
G04 #@! TO.C,SW48*
X98750000Y-84250000D02*
X101250000Y-84250000D01*
X97250000Y-82500000D02*
X97250000Y-80500000D01*
X98750000Y-78750000D02*
X101250000Y-78750000D01*
X102750000Y-82500000D02*
X102750000Y-80500000D01*
X98300000Y-83800000D02*
X98750000Y-84250000D01*
X101700000Y-83800000D02*
X101250000Y-84250000D01*
X101700000Y-79200000D02*
X101250000Y-78750000D01*
X98300000Y-79200000D02*
X98750000Y-78750000D01*
D12*
G04 #@! TO.C,U1*
X90588031Y-117093414D02*
X89686470Y-116191852D01*
X97500000Y-124818555D02*
X97022703Y-124341258D01*
X104818555Y-117500000D02*
X104341258Y-117022703D01*
X97500000Y-110181445D02*
X97977297Y-110658742D01*
X90181445Y-117500000D02*
X90658742Y-117977297D01*
X97500000Y-110181445D02*
X97022703Y-110658742D01*
X104818555Y-117500000D02*
X104341258Y-117977297D01*
X97500000Y-124818555D02*
X97977297Y-124341258D01*
X90181445Y-117500000D02*
X90588031Y-117093414D01*
D11*
G04 #@! TO.C,Y1*
X78750000Y-114800000D02*
X78750000Y-120200000D01*
X74250000Y-114800000D02*
X78750000Y-114800000D01*
G04 #@! TO.C,C1*
X89182687Y-122186779D02*
X88813221Y-121817313D01*
X90186779Y-121182687D02*
X89817313Y-120813221D01*
G04 #@! TO.C,C2*
X86710000Y-117238748D02*
X86710000Y-117761252D01*
X85290000Y-117238748D02*
X85290000Y-117761252D01*
G04 #@! TO.C,C3*
X82738748Y-115790000D02*
X83261252Y-115790000D01*
X82738748Y-117210000D02*
X83261252Y-117210000D01*
G04 #@! TO.C,C4*
X82738748Y-117790000D02*
X83261252Y-117790000D01*
X82738748Y-119210000D02*
X83261252Y-119210000D01*
G04 #@! TO.C,R2*
X80710000Y-79238748D02*
X80710000Y-79761252D01*
X79290000Y-79238748D02*
X79290000Y-79761252D01*
G04 #@! TO.C,R1*
X78710000Y-79238748D02*
X78710000Y-79761252D01*
X77290000Y-79238748D02*
X77290000Y-79761252D01*
G04 #@! TO.C,R4*
X80710000Y-117238748D02*
X80710000Y-117761252D01*
X79290000Y-117238748D02*
X79290000Y-117761252D01*
G04 #@! TO.C,R3*
X80710000Y-83738748D02*
X80710000Y-84261252D01*
X79290000Y-83738748D02*
X79290000Y-84261252D01*
G04 #@! TO.C,P1*
X73750000Y-67870000D02*
X75250000Y-67870000D01*
X73750000Y-67870000D02*
X73750000Y-60610000D01*
X83250000Y-67870000D02*
X83250000Y-60610000D01*
X81750000Y-67870000D02*
X83250000Y-67870000D01*
G04 #@! TO.C,C5*
D12*
X107416666Y-116957142D02*
X107464285Y-117004761D01*
X107607142Y-117052380D01*
X107702380Y-117052380D01*
X107845238Y-117004761D01*
X107940476Y-116909523D01*
X107988095Y-116814285D01*
X108035714Y-116623809D01*
X108035714Y-116480952D01*
X107988095Y-116290476D01*
X107940476Y-116195238D01*
X107845238Y-116100000D01*
X107702380Y-116052380D01*
X107607142Y-116052380D01*
X107464285Y-116100000D01*
X107416666Y-116147619D01*
X106511904Y-116052380D02*
X106988095Y-116052380D01*
X107035714Y-116528571D01*
X106988095Y-116480952D01*
X106892857Y-116433333D01*
X106654761Y-116433333D01*
X106559523Y-116480952D01*
X106511904Y-116528571D01*
X106464285Y-116623809D01*
X106464285Y-116861904D01*
X106511904Y-116957142D01*
X106559523Y-117004761D01*
X106654761Y-117052380D01*
X106892857Y-117052380D01*
X106988095Y-117004761D01*
X107035714Y-116957142D01*
G04 #@! TO.C,J1*
X59833333Y-95952380D02*
X59833333Y-96666666D01*
X59880952Y-96809523D01*
X59976190Y-96904761D01*
X60119047Y-96952380D01*
X60214285Y-96952380D01*
X58833333Y-96952380D02*
X59404761Y-96952380D01*
X59119047Y-96952380D02*
X59119047Y-95952380D01*
X59214285Y-96095238D01*
X59309523Y-96190476D01*
X59404761Y-96238095D01*
G04 #@! TO.C,D20*
X136689285Y-121802380D02*
X136689285Y-120802380D01*
X136451190Y-120802380D01*
X136308333Y-120850000D01*
X136213095Y-120945238D01*
X136165476Y-121040476D01*
X136117857Y-121230952D01*
X136117857Y-121373809D01*
X136165476Y-121564285D01*
X136213095Y-121659523D01*
X136308333Y-121754761D01*
X136451190Y-121802380D01*
X136689285Y-121802380D01*
X135736904Y-120897619D02*
X135689285Y-120850000D01*
X135594047Y-120802380D01*
X135355952Y-120802380D01*
X135260714Y-120850000D01*
X135213095Y-120897619D01*
X135165476Y-120992857D01*
X135165476Y-121088095D01*
X135213095Y-121230952D01*
X135784523Y-121802380D01*
X135165476Y-121802380D01*
X134546428Y-120802380D02*
X134451190Y-120802380D01*
X134355952Y-120850000D01*
X134308333Y-120897619D01*
X134260714Y-120992857D01*
X134213095Y-121183333D01*
X134213095Y-121421428D01*
X134260714Y-121611904D01*
X134308333Y-121707142D01*
X134355952Y-121754761D01*
X134451190Y-121802380D01*
X134546428Y-121802380D01*
X134641666Y-121754761D01*
X134689285Y-121707142D01*
X134736904Y-121611904D01*
X134784523Y-121421428D01*
X134784523Y-121183333D01*
X134736904Y-120992857D01*
X134689285Y-120897619D01*
X134641666Y-120850000D01*
X134546428Y-120802380D01*
G04 #@! TO.C,D2*
X54988095Y-82802380D02*
X54988095Y-81802380D01*
X54750000Y-81802380D01*
X54607142Y-81850000D01*
X54511904Y-81945238D01*
X54464285Y-82040476D01*
X54416666Y-82230952D01*
X54416666Y-82373809D01*
X54464285Y-82564285D01*
X54511904Y-82659523D01*
X54607142Y-82754761D01*
X54750000Y-82802380D01*
X54988095Y-82802380D01*
X54035714Y-81897619D02*
X53988095Y-81850000D01*
X53892857Y-81802380D01*
X53654761Y-81802380D01*
X53559523Y-81850000D01*
X53511904Y-81897619D01*
X53464285Y-81992857D01*
X53464285Y-82088095D01*
X53511904Y-82230952D01*
X54083333Y-82802380D01*
X53464285Y-82802380D01*
G04 #@! TO.C,D23*
X151714285Y-114102380D02*
X151714285Y-113102380D01*
X151476190Y-113102380D01*
X151333333Y-113150000D01*
X151238095Y-113245238D01*
X151190476Y-113340476D01*
X151142857Y-113530952D01*
X151142857Y-113673809D01*
X151190476Y-113864285D01*
X151238095Y-113959523D01*
X151333333Y-114054761D01*
X151476190Y-114102380D01*
X151714285Y-114102380D01*
X150761904Y-113197619D02*
X150714285Y-113150000D01*
X150619047Y-113102380D01*
X150380952Y-113102380D01*
X150285714Y-113150000D01*
X150238095Y-113197619D01*
X150190476Y-113292857D01*
X150190476Y-113388095D01*
X150238095Y-113530952D01*
X150809523Y-114102380D01*
X150190476Y-114102380D01*
X149857142Y-113102380D02*
X149238095Y-113102380D01*
X149571428Y-113483333D01*
X149428571Y-113483333D01*
X149333333Y-113530952D01*
X149285714Y-113578571D01*
X149238095Y-113673809D01*
X149238095Y-113911904D01*
X149285714Y-114007142D01*
X149333333Y-114054761D01*
X149428571Y-114102380D01*
X149714285Y-114102380D01*
X149809523Y-114054761D01*
X149857142Y-114007142D01*
G04 #@! TO.C,D22*
X151739285Y-80102380D02*
X151739285Y-79102380D01*
X151501190Y-79102380D01*
X151358333Y-79150000D01*
X151263095Y-79245238D01*
X151215476Y-79340476D01*
X151167857Y-79530952D01*
X151167857Y-79673809D01*
X151215476Y-79864285D01*
X151263095Y-79959523D01*
X151358333Y-80054761D01*
X151501190Y-80102380D01*
X151739285Y-80102380D01*
X150786904Y-79197619D02*
X150739285Y-79150000D01*
X150644047Y-79102380D01*
X150405952Y-79102380D01*
X150310714Y-79150000D01*
X150263095Y-79197619D01*
X150215476Y-79292857D01*
X150215476Y-79388095D01*
X150263095Y-79530952D01*
X150834523Y-80102380D01*
X150215476Y-80102380D01*
X149834523Y-79197619D02*
X149786904Y-79150000D01*
X149691666Y-79102380D01*
X149453571Y-79102380D01*
X149358333Y-79150000D01*
X149310714Y-79197619D01*
X149263095Y-79292857D01*
X149263095Y-79388095D01*
X149310714Y-79530952D01*
X149882142Y-80102380D01*
X149263095Y-80102380D01*
G04 #@! TO.C,D21*
X151739285Y-76102380D02*
X151739285Y-75102380D01*
X151501190Y-75102380D01*
X151358333Y-75150000D01*
X151263095Y-75245238D01*
X151215476Y-75340476D01*
X151167857Y-75530952D01*
X151167857Y-75673809D01*
X151215476Y-75864285D01*
X151263095Y-75959523D01*
X151358333Y-76054761D01*
X151501190Y-76102380D01*
X151739285Y-76102380D01*
X150786904Y-75197619D02*
X150739285Y-75150000D01*
X150644047Y-75102380D01*
X150405952Y-75102380D01*
X150310714Y-75150000D01*
X150263095Y-75197619D01*
X150215476Y-75292857D01*
X150215476Y-75388095D01*
X150263095Y-75530952D01*
X150834523Y-76102380D01*
X150215476Y-76102380D01*
X149263095Y-76102380D02*
X149834523Y-76102380D01*
X149548809Y-76102380D02*
X149548809Y-75102380D01*
X149644047Y-75245238D01*
X149739285Y-75340476D01*
X149834523Y-75388095D01*
G04 #@! TO.C,D19*
X134214285Y-114102380D02*
X134214285Y-113102380D01*
X133976190Y-113102380D01*
X133833333Y-113150000D01*
X133738095Y-113245238D01*
X133690476Y-113340476D01*
X133642857Y-113530952D01*
X133642857Y-113673809D01*
X133690476Y-113864285D01*
X133738095Y-113959523D01*
X133833333Y-114054761D01*
X133976190Y-114102380D01*
X134214285Y-114102380D01*
X132690476Y-114102380D02*
X133261904Y-114102380D01*
X132976190Y-114102380D02*
X132976190Y-113102380D01*
X133071428Y-113245238D01*
X133166666Y-113340476D01*
X133261904Y-113388095D01*
X132214285Y-114102380D02*
X132023809Y-114102380D01*
X131928571Y-114054761D01*
X131880952Y-114007142D01*
X131785714Y-113864285D01*
X131738095Y-113673809D01*
X131738095Y-113292857D01*
X131785714Y-113197619D01*
X131833333Y-113150000D01*
X131928571Y-113102380D01*
X132119047Y-113102380D01*
X132214285Y-113150000D01*
X132261904Y-113197619D01*
X132309523Y-113292857D01*
X132309523Y-113530952D01*
X132261904Y-113626190D01*
X132214285Y-113673809D01*
X132119047Y-113721428D01*
X131928571Y-113721428D01*
X131833333Y-113673809D01*
X131785714Y-113626190D01*
X131738095Y-113530952D01*
G04 #@! TO.C,D18*
X132739285Y-80102380D02*
X132739285Y-79102380D01*
X132501190Y-79102380D01*
X132358333Y-79150000D01*
X132263095Y-79245238D01*
X132215476Y-79340476D01*
X132167857Y-79530952D01*
X132167857Y-79673809D01*
X132215476Y-79864285D01*
X132263095Y-79959523D01*
X132358333Y-80054761D01*
X132501190Y-80102380D01*
X132739285Y-80102380D01*
X131215476Y-80102380D02*
X131786904Y-80102380D01*
X131501190Y-80102380D02*
X131501190Y-79102380D01*
X131596428Y-79245238D01*
X131691666Y-79340476D01*
X131786904Y-79388095D01*
X130644047Y-79530952D02*
X130739285Y-79483333D01*
X130786904Y-79435714D01*
X130834523Y-79340476D01*
X130834523Y-79292857D01*
X130786904Y-79197619D01*
X130739285Y-79150000D01*
X130644047Y-79102380D01*
X130453571Y-79102380D01*
X130358333Y-79150000D01*
X130310714Y-79197619D01*
X130263095Y-79292857D01*
X130263095Y-79340476D01*
X130310714Y-79435714D01*
X130358333Y-79483333D01*
X130453571Y-79530952D01*
X130644047Y-79530952D01*
X130739285Y-79578571D01*
X130786904Y-79626190D01*
X130834523Y-79721428D01*
X130834523Y-79911904D01*
X130786904Y-80007142D01*
X130739285Y-80054761D01*
X130644047Y-80102380D01*
X130453571Y-80102380D01*
X130358333Y-80054761D01*
X130310714Y-80007142D01*
X130263095Y-79911904D01*
X130263095Y-79721428D01*
X130310714Y-79626190D01*
X130358333Y-79578571D01*
X130453571Y-79530952D01*
G04 #@! TO.C,D17*
X132714285Y-76102380D02*
X132714285Y-75102380D01*
X132476190Y-75102380D01*
X132333333Y-75150000D01*
X132238095Y-75245238D01*
X132190476Y-75340476D01*
X132142857Y-75530952D01*
X132142857Y-75673809D01*
X132190476Y-75864285D01*
X132238095Y-75959523D01*
X132333333Y-76054761D01*
X132476190Y-76102380D01*
X132714285Y-76102380D01*
X131190476Y-76102380D02*
X131761904Y-76102380D01*
X131476190Y-76102380D02*
X131476190Y-75102380D01*
X131571428Y-75245238D01*
X131666666Y-75340476D01*
X131761904Y-75388095D01*
X130857142Y-75102380D02*
X130190476Y-75102380D01*
X130619047Y-76102380D01*
G04 #@! TO.C,D16*
X114102380Y-124285714D02*
X113102380Y-124285714D01*
X113102380Y-124523809D01*
X113150000Y-124666666D01*
X113245238Y-124761904D01*
X113340476Y-124809523D01*
X113530952Y-124857142D01*
X113673809Y-124857142D01*
X113864285Y-124809523D01*
X113959523Y-124761904D01*
X114054761Y-124666666D01*
X114102380Y-124523809D01*
X114102380Y-124285714D01*
X114102380Y-125809523D02*
X114102380Y-125238095D01*
X114102380Y-125523809D02*
X113102380Y-125523809D01*
X113245238Y-125428571D01*
X113340476Y-125333333D01*
X113388095Y-125238095D01*
X113102380Y-126666666D02*
X113102380Y-126476190D01*
X113150000Y-126380952D01*
X113197619Y-126333333D01*
X113340476Y-126238095D01*
X113530952Y-126190476D01*
X113911904Y-126190476D01*
X114007142Y-126238095D01*
X114054761Y-126285714D01*
X114102380Y-126380952D01*
X114102380Y-126571428D01*
X114054761Y-126666666D01*
X114007142Y-126714285D01*
X113911904Y-126761904D01*
X113673809Y-126761904D01*
X113578571Y-126714285D01*
X113530952Y-126666666D01*
X113483333Y-126571428D01*
X113483333Y-126380952D01*
X113530952Y-126285714D01*
X113578571Y-126238095D01*
X113673809Y-126190476D01*
G04 #@! TO.C,D15*
X113739285Y-97102380D02*
X113739285Y-96102380D01*
X113501190Y-96102380D01*
X113358333Y-96150000D01*
X113263095Y-96245238D01*
X113215476Y-96340476D01*
X113167857Y-96530952D01*
X113167857Y-96673809D01*
X113215476Y-96864285D01*
X113263095Y-96959523D01*
X113358333Y-97054761D01*
X113501190Y-97102380D01*
X113739285Y-97102380D01*
X112215476Y-97102380D02*
X112786904Y-97102380D01*
X112501190Y-97102380D02*
X112501190Y-96102380D01*
X112596428Y-96245238D01*
X112691666Y-96340476D01*
X112786904Y-96388095D01*
X111310714Y-96102380D02*
X111786904Y-96102380D01*
X111834523Y-96578571D01*
X111786904Y-96530952D01*
X111691666Y-96483333D01*
X111453571Y-96483333D01*
X111358333Y-96530952D01*
X111310714Y-96578571D01*
X111263095Y-96673809D01*
X111263095Y-96911904D01*
X111310714Y-97007142D01*
X111358333Y-97054761D01*
X111453571Y-97102380D01*
X111691666Y-97102380D01*
X111786904Y-97054761D01*
X111834523Y-97007142D01*
G04 #@! TO.C,D14*
X113739285Y-80102380D02*
X113739285Y-79102380D01*
X113501190Y-79102380D01*
X113358333Y-79150000D01*
X113263095Y-79245238D01*
X113215476Y-79340476D01*
X113167857Y-79530952D01*
X113167857Y-79673809D01*
X113215476Y-79864285D01*
X113263095Y-79959523D01*
X113358333Y-80054761D01*
X113501190Y-80102380D01*
X113739285Y-80102380D01*
X112215476Y-80102380D02*
X112786904Y-80102380D01*
X112501190Y-80102380D02*
X112501190Y-79102380D01*
X112596428Y-79245238D01*
X112691666Y-79340476D01*
X112786904Y-79388095D01*
X111358333Y-79435714D02*
X111358333Y-80102380D01*
X111596428Y-79054761D02*
X111834523Y-79769047D01*
X111215476Y-79769047D01*
G04 #@! TO.C,D13*
X113739285Y-76102380D02*
X113739285Y-75102380D01*
X113501190Y-75102380D01*
X113358333Y-75150000D01*
X113263095Y-75245238D01*
X113215476Y-75340476D01*
X113167857Y-75530952D01*
X113167857Y-75673809D01*
X113215476Y-75864285D01*
X113263095Y-75959523D01*
X113358333Y-76054761D01*
X113501190Y-76102380D01*
X113739285Y-76102380D01*
X112215476Y-76102380D02*
X112786904Y-76102380D01*
X112501190Y-76102380D02*
X112501190Y-75102380D01*
X112596428Y-75245238D01*
X112691666Y-75340476D01*
X112786904Y-75388095D01*
X111882142Y-75102380D02*
X111263095Y-75102380D01*
X111596428Y-75483333D01*
X111453571Y-75483333D01*
X111358333Y-75530952D01*
X111310714Y-75578571D01*
X111263095Y-75673809D01*
X111263095Y-75911904D01*
X111310714Y-76007142D01*
X111358333Y-76054761D01*
X111453571Y-76102380D01*
X111739285Y-76102380D01*
X111834523Y-76054761D01*
X111882142Y-76007142D01*
G04 #@! TO.C,D11*
X94714285Y-97102380D02*
X94714285Y-96102380D01*
X94476190Y-96102380D01*
X94333333Y-96150000D01*
X94238095Y-96245238D01*
X94190476Y-96340476D01*
X94142857Y-96530952D01*
X94142857Y-96673809D01*
X94190476Y-96864285D01*
X94238095Y-96959523D01*
X94333333Y-97054761D01*
X94476190Y-97102380D01*
X94714285Y-97102380D01*
X93190476Y-97102380D02*
X93761904Y-97102380D01*
X93476190Y-97102380D02*
X93476190Y-96102380D01*
X93571428Y-96245238D01*
X93666666Y-96340476D01*
X93761904Y-96388095D01*
X92238095Y-97102380D02*
X92809523Y-97102380D01*
X92523809Y-97102380D02*
X92523809Y-96102380D01*
X92619047Y-96245238D01*
X92714285Y-96340476D01*
X92809523Y-96388095D01*
G04 #@! TO.C,D1*
X54988095Y-80802380D02*
X54988095Y-79802380D01*
X54750000Y-79802380D01*
X54607142Y-79850000D01*
X54511904Y-79945238D01*
X54464285Y-80040476D01*
X54416666Y-80230952D01*
X54416666Y-80373809D01*
X54464285Y-80564285D01*
X54511904Y-80659523D01*
X54607142Y-80754761D01*
X54750000Y-80802380D01*
X54988095Y-80802380D01*
X53464285Y-80802380D02*
X54035714Y-80802380D01*
X53750000Y-80802380D02*
X53750000Y-79802380D01*
X53845238Y-79945238D01*
X53940476Y-80040476D01*
X54035714Y-80088095D01*
G04 #@! TO.C,D3*
X56552380Y-116761904D02*
X55552380Y-116761904D01*
X55552380Y-117000000D01*
X55600000Y-117142857D01*
X55695238Y-117238095D01*
X55790476Y-117285714D01*
X55980952Y-117333333D01*
X56123809Y-117333333D01*
X56314285Y-117285714D01*
X56409523Y-117238095D01*
X56504761Y-117142857D01*
X56552380Y-117000000D01*
X56552380Y-116761904D01*
X55552380Y-117666666D02*
X55552380Y-118285714D01*
X55933333Y-117952380D01*
X55933333Y-118095238D01*
X55980952Y-118190476D01*
X56028571Y-118238095D01*
X56123809Y-118285714D01*
X56361904Y-118285714D01*
X56457142Y-118238095D01*
X56504761Y-118190476D01*
X56552380Y-118095238D01*
X56552380Y-117809523D01*
X56504761Y-117714285D01*
X56457142Y-117666666D01*
G04 #@! TO.C,D4*
X57102380Y-124786904D02*
X56102380Y-124786904D01*
X56102380Y-125025000D01*
X56150000Y-125167857D01*
X56245238Y-125263095D01*
X56340476Y-125310714D01*
X56530952Y-125358333D01*
X56673809Y-125358333D01*
X56864285Y-125310714D01*
X56959523Y-125263095D01*
X57054761Y-125167857D01*
X57102380Y-125025000D01*
X57102380Y-124786904D01*
X56435714Y-126215476D02*
X57102380Y-126215476D01*
X56054761Y-125977380D02*
X56769047Y-125739285D01*
X56769047Y-126358333D01*
G04 #@! TO.C,D5*
X75238095Y-76102380D02*
X75238095Y-75102380D01*
X75000000Y-75102380D01*
X74857142Y-75150000D01*
X74761904Y-75245238D01*
X74714285Y-75340476D01*
X74666666Y-75530952D01*
X74666666Y-75673809D01*
X74714285Y-75864285D01*
X74761904Y-75959523D01*
X74857142Y-76054761D01*
X75000000Y-76102380D01*
X75238095Y-76102380D01*
X73761904Y-75102380D02*
X74238095Y-75102380D01*
X74285714Y-75578571D01*
X74238095Y-75530952D01*
X74142857Y-75483333D01*
X73904761Y-75483333D01*
X73809523Y-75530952D01*
X73761904Y-75578571D01*
X73714285Y-75673809D01*
X73714285Y-75911904D01*
X73761904Y-76007142D01*
X73809523Y-76054761D01*
X73904761Y-76102380D01*
X74142857Y-76102380D01*
X74238095Y-76054761D01*
X74285714Y-76007142D01*
G04 #@! TO.C,D6*
X75238095Y-80102380D02*
X75238095Y-79102380D01*
X75000000Y-79102380D01*
X74857142Y-79150000D01*
X74761904Y-79245238D01*
X74714285Y-79340476D01*
X74666666Y-79530952D01*
X74666666Y-79673809D01*
X74714285Y-79864285D01*
X74761904Y-79959523D01*
X74857142Y-80054761D01*
X75000000Y-80102380D01*
X75238095Y-80102380D01*
X73809523Y-79102380D02*
X74000000Y-79102380D01*
X74095238Y-79150000D01*
X74142857Y-79197619D01*
X74238095Y-79340476D01*
X74285714Y-79530952D01*
X74285714Y-79911904D01*
X74238095Y-80007142D01*
X74190476Y-80054761D01*
X74095238Y-80102380D01*
X73904761Y-80102380D01*
X73809523Y-80054761D01*
X73761904Y-80007142D01*
X73714285Y-79911904D01*
X73714285Y-79673809D01*
X73761904Y-79578571D01*
X73809523Y-79530952D01*
X73904761Y-79483333D01*
X74095238Y-79483333D01*
X74190476Y-79530952D01*
X74238095Y-79578571D01*
X74285714Y-79673809D01*
G04 #@! TO.C,D7*
X76102380Y-105736904D02*
X75102380Y-105736904D01*
X75102380Y-105975000D01*
X75150000Y-106117857D01*
X75245238Y-106213095D01*
X75340476Y-106260714D01*
X75530952Y-106308333D01*
X75673809Y-106308333D01*
X75864285Y-106260714D01*
X75959523Y-106213095D01*
X76054761Y-106117857D01*
X76102380Y-105975000D01*
X76102380Y-105736904D01*
X75102380Y-106641666D02*
X75102380Y-107308333D01*
X76102380Y-106879761D01*
G04 #@! TO.C,D8*
X76102380Y-124786904D02*
X75102380Y-124786904D01*
X75102380Y-125025000D01*
X75150000Y-125167857D01*
X75245238Y-125263095D01*
X75340476Y-125310714D01*
X75530952Y-125358333D01*
X75673809Y-125358333D01*
X75864285Y-125310714D01*
X75959523Y-125263095D01*
X76054761Y-125167857D01*
X76102380Y-125025000D01*
X76102380Y-124786904D01*
X75530952Y-125929761D02*
X75483333Y-125834523D01*
X75435714Y-125786904D01*
X75340476Y-125739285D01*
X75292857Y-125739285D01*
X75197619Y-125786904D01*
X75150000Y-125834523D01*
X75102380Y-125929761D01*
X75102380Y-126120238D01*
X75150000Y-126215476D01*
X75197619Y-126263095D01*
X75292857Y-126310714D01*
X75340476Y-126310714D01*
X75435714Y-126263095D01*
X75483333Y-126215476D01*
X75530952Y-126120238D01*
X75530952Y-125929761D01*
X75578571Y-125834523D01*
X75626190Y-125786904D01*
X75721428Y-125739285D01*
X75911904Y-125739285D01*
X76007142Y-125786904D01*
X76054761Y-125834523D01*
X76102380Y-125929761D01*
X76102380Y-126120238D01*
X76054761Y-126215476D01*
X76007142Y-126263095D01*
X75911904Y-126310714D01*
X75721428Y-126310714D01*
X75626190Y-126263095D01*
X75578571Y-126215476D01*
X75530952Y-126120238D01*
G04 #@! TO.C,D9*
X94238095Y-76102380D02*
X94238095Y-75102380D01*
X94000000Y-75102380D01*
X93857142Y-75150000D01*
X93761904Y-75245238D01*
X93714285Y-75340476D01*
X93666666Y-75530952D01*
X93666666Y-75673809D01*
X93714285Y-75864285D01*
X93761904Y-75959523D01*
X93857142Y-76054761D01*
X94000000Y-76102380D01*
X94238095Y-76102380D01*
X93190476Y-76102380D02*
X93000000Y-76102380D01*
X92904761Y-76054761D01*
X92857142Y-76007142D01*
X92761904Y-75864285D01*
X92714285Y-75673809D01*
X92714285Y-75292857D01*
X92761904Y-75197619D01*
X92809523Y-75150000D01*
X92904761Y-75102380D01*
X93095238Y-75102380D01*
X93190476Y-75150000D01*
X93238095Y-75197619D01*
X93285714Y-75292857D01*
X93285714Y-75530952D01*
X93238095Y-75626190D01*
X93190476Y-75673809D01*
X93095238Y-75721428D01*
X92904761Y-75721428D01*
X92809523Y-75673809D01*
X92761904Y-75626190D01*
X92714285Y-75530952D01*
G04 #@! TO.C,D10*
X94714285Y-80102380D02*
X94714285Y-79102380D01*
X94476190Y-79102380D01*
X94333333Y-79150000D01*
X94238095Y-79245238D01*
X94190476Y-79340476D01*
X94142857Y-79530952D01*
X94142857Y-79673809D01*
X94190476Y-79864285D01*
X94238095Y-79959523D01*
X94333333Y-80054761D01*
X94476190Y-80102380D01*
X94714285Y-80102380D01*
X93190476Y-80102380D02*
X93761904Y-80102380D01*
X93476190Y-80102380D02*
X93476190Y-79102380D01*
X93571428Y-79245238D01*
X93666666Y-79340476D01*
X93761904Y-79388095D01*
X92571428Y-79102380D02*
X92476190Y-79102380D01*
X92380952Y-79150000D01*
X92333333Y-79197619D01*
X92285714Y-79292857D01*
X92238095Y-79483333D01*
X92238095Y-79721428D01*
X92285714Y-79911904D01*
X92333333Y-80007142D01*
X92380952Y-80054761D01*
X92476190Y-80102380D01*
X92571428Y-80102380D01*
X92666666Y-80054761D01*
X92714285Y-80007142D01*
X92761904Y-79911904D01*
X92809523Y-79721428D01*
X92809523Y-79483333D01*
X92761904Y-79292857D01*
X92714285Y-79197619D01*
X92666666Y-79150000D01*
X92571428Y-79102380D01*
G04 #@! TO.C,D46*
X265714285Y-114102380D02*
X265714285Y-113102380D01*
X265476190Y-113102380D01*
X265333333Y-113150000D01*
X265238095Y-113245238D01*
X265190476Y-113340476D01*
X265142857Y-113530952D01*
X265142857Y-113673809D01*
X265190476Y-113864285D01*
X265238095Y-113959523D01*
X265333333Y-114054761D01*
X265476190Y-114102380D01*
X265714285Y-114102380D01*
X264285714Y-113435714D02*
X264285714Y-114102380D01*
X264523809Y-113054761D02*
X264761904Y-113769047D01*
X264142857Y-113769047D01*
X263333333Y-113102380D02*
X263523809Y-113102380D01*
X263619047Y-113150000D01*
X263666666Y-113197619D01*
X263761904Y-113340476D01*
X263809523Y-113530952D01*
X263809523Y-113911904D01*
X263761904Y-114007142D01*
X263714285Y-114054761D01*
X263619047Y-114102380D01*
X263428571Y-114102380D01*
X263333333Y-114054761D01*
X263285714Y-114007142D01*
X263238095Y-113911904D01*
X263238095Y-113673809D01*
X263285714Y-113578571D01*
X263333333Y-113530952D01*
X263428571Y-113483333D01*
X263619047Y-113483333D01*
X263714285Y-113530952D01*
X263761904Y-113578571D01*
X263809523Y-113673809D01*
G04 #@! TO.C,D25*
X170714285Y-80102380D02*
X170714285Y-79102380D01*
X170476190Y-79102380D01*
X170333333Y-79150000D01*
X170238095Y-79245238D01*
X170190476Y-79340476D01*
X170142857Y-79530952D01*
X170142857Y-79673809D01*
X170190476Y-79864285D01*
X170238095Y-79959523D01*
X170333333Y-80054761D01*
X170476190Y-80102380D01*
X170714285Y-80102380D01*
X169761904Y-79197619D02*
X169714285Y-79150000D01*
X169619047Y-79102380D01*
X169380952Y-79102380D01*
X169285714Y-79150000D01*
X169238095Y-79197619D01*
X169190476Y-79292857D01*
X169190476Y-79388095D01*
X169238095Y-79530952D01*
X169809523Y-80102380D01*
X169190476Y-80102380D01*
X168285714Y-79102380D02*
X168761904Y-79102380D01*
X168809523Y-79578571D01*
X168761904Y-79530952D01*
X168666666Y-79483333D01*
X168428571Y-79483333D01*
X168333333Y-79530952D01*
X168285714Y-79578571D01*
X168238095Y-79673809D01*
X168238095Y-79911904D01*
X168285714Y-80007142D01*
X168333333Y-80054761D01*
X168428571Y-80102380D01*
X168666666Y-80102380D01*
X168761904Y-80054761D01*
X168809523Y-80007142D01*
G04 #@! TO.C,D24*
X170739285Y-76102380D02*
X170739285Y-75102380D01*
X170501190Y-75102380D01*
X170358333Y-75150000D01*
X170263095Y-75245238D01*
X170215476Y-75340476D01*
X170167857Y-75530952D01*
X170167857Y-75673809D01*
X170215476Y-75864285D01*
X170263095Y-75959523D01*
X170358333Y-76054761D01*
X170501190Y-76102380D01*
X170739285Y-76102380D01*
X169786904Y-75197619D02*
X169739285Y-75150000D01*
X169644047Y-75102380D01*
X169405952Y-75102380D01*
X169310714Y-75150000D01*
X169263095Y-75197619D01*
X169215476Y-75292857D01*
X169215476Y-75388095D01*
X169263095Y-75530952D01*
X169834523Y-76102380D01*
X169215476Y-76102380D01*
X168358333Y-75435714D02*
X168358333Y-76102380D01*
X168596428Y-75054761D02*
X168834523Y-75769047D01*
X168215476Y-75769047D01*
G04 #@! TO.C,D47*
X265739285Y-118102380D02*
X265739285Y-117102380D01*
X265501190Y-117102380D01*
X265358333Y-117150000D01*
X265263095Y-117245238D01*
X265215476Y-117340476D01*
X265167857Y-117530952D01*
X265167857Y-117673809D01*
X265215476Y-117864285D01*
X265263095Y-117959523D01*
X265358333Y-118054761D01*
X265501190Y-118102380D01*
X265739285Y-118102380D01*
X264310714Y-117435714D02*
X264310714Y-118102380D01*
X264548809Y-117054761D02*
X264786904Y-117769047D01*
X264167857Y-117769047D01*
X263882142Y-117102380D02*
X263215476Y-117102380D01*
X263644047Y-118102380D01*
G04 #@! TO.C,D45*
X265714285Y-80102380D02*
X265714285Y-79102380D01*
X265476190Y-79102380D01*
X265333333Y-79150000D01*
X265238095Y-79245238D01*
X265190476Y-79340476D01*
X265142857Y-79530952D01*
X265142857Y-79673809D01*
X265190476Y-79864285D01*
X265238095Y-79959523D01*
X265333333Y-80054761D01*
X265476190Y-80102380D01*
X265714285Y-80102380D01*
X264285714Y-79435714D02*
X264285714Y-80102380D01*
X264523809Y-79054761D02*
X264761904Y-79769047D01*
X264142857Y-79769047D01*
X263285714Y-79102380D02*
X263761904Y-79102380D01*
X263809523Y-79578571D01*
X263761904Y-79530952D01*
X263666666Y-79483333D01*
X263428571Y-79483333D01*
X263333333Y-79530952D01*
X263285714Y-79578571D01*
X263238095Y-79673809D01*
X263238095Y-79911904D01*
X263285714Y-80007142D01*
X263333333Y-80054761D01*
X263428571Y-80102380D01*
X263666666Y-80102380D01*
X263761904Y-80054761D01*
X263809523Y-80007142D01*
G04 #@! TO.C,D44*
X265714285Y-76102380D02*
X265714285Y-75102380D01*
X265476190Y-75102380D01*
X265333333Y-75150000D01*
X265238095Y-75245238D01*
X265190476Y-75340476D01*
X265142857Y-75530952D01*
X265142857Y-75673809D01*
X265190476Y-75864285D01*
X265238095Y-75959523D01*
X265333333Y-76054761D01*
X265476190Y-76102380D01*
X265714285Y-76102380D01*
X264285714Y-75435714D02*
X264285714Y-76102380D01*
X264523809Y-75054761D02*
X264761904Y-75769047D01*
X264142857Y-75769047D01*
X263333333Y-75435714D02*
X263333333Y-76102380D01*
X263571428Y-75054761D02*
X263809523Y-75769047D01*
X263190476Y-75769047D01*
G04 #@! TO.C,D43*
X243214285Y-117852380D02*
X243214285Y-116852380D01*
X242976190Y-116852380D01*
X242833333Y-116900000D01*
X242738095Y-116995238D01*
X242690476Y-117090476D01*
X242642857Y-117280952D01*
X242642857Y-117423809D01*
X242690476Y-117614285D01*
X242738095Y-117709523D01*
X242833333Y-117804761D01*
X242976190Y-117852380D01*
X243214285Y-117852380D01*
X241785714Y-117185714D02*
X241785714Y-117852380D01*
X242023809Y-116804761D02*
X242261904Y-117519047D01*
X241642857Y-117519047D01*
X241357142Y-116852380D02*
X240738095Y-116852380D01*
X241071428Y-117233333D01*
X240928571Y-117233333D01*
X240833333Y-117280952D01*
X240785714Y-117328571D01*
X240738095Y-117423809D01*
X240738095Y-117661904D01*
X240785714Y-117757142D01*
X240833333Y-117804761D01*
X240928571Y-117852380D01*
X241214285Y-117852380D01*
X241309523Y-117804761D01*
X241357142Y-117757142D01*
G04 #@! TO.C,D42*
X243214285Y-114602380D02*
X243214285Y-113602380D01*
X242976190Y-113602380D01*
X242833333Y-113650000D01*
X242738095Y-113745238D01*
X242690476Y-113840476D01*
X242642857Y-114030952D01*
X242642857Y-114173809D01*
X242690476Y-114364285D01*
X242738095Y-114459523D01*
X242833333Y-114554761D01*
X242976190Y-114602380D01*
X243214285Y-114602380D01*
X241785714Y-113935714D02*
X241785714Y-114602380D01*
X242023809Y-113554761D02*
X242261904Y-114269047D01*
X241642857Y-114269047D01*
X241309523Y-113697619D02*
X241261904Y-113650000D01*
X241166666Y-113602380D01*
X240928571Y-113602380D01*
X240833333Y-113650000D01*
X240785714Y-113697619D01*
X240738095Y-113792857D01*
X240738095Y-113888095D01*
X240785714Y-114030952D01*
X241357142Y-114602380D01*
X240738095Y-114602380D01*
G04 #@! TO.C,D41*
X245214285Y-79352380D02*
X245214285Y-78352380D01*
X244976190Y-78352380D01*
X244833333Y-78400000D01*
X244738095Y-78495238D01*
X244690476Y-78590476D01*
X244642857Y-78780952D01*
X244642857Y-78923809D01*
X244690476Y-79114285D01*
X244738095Y-79209523D01*
X244833333Y-79304761D01*
X244976190Y-79352380D01*
X245214285Y-79352380D01*
X243785714Y-78685714D02*
X243785714Y-79352380D01*
X244023809Y-78304761D02*
X244261904Y-79019047D01*
X243642857Y-79019047D01*
X242738095Y-79352380D02*
X243309523Y-79352380D01*
X243023809Y-79352380D02*
X243023809Y-78352380D01*
X243119047Y-78495238D01*
X243214285Y-78590476D01*
X243309523Y-78638095D01*
G04 #@! TO.C,D40*
X245214285Y-77102380D02*
X245214285Y-76102380D01*
X244976190Y-76102380D01*
X244833333Y-76150000D01*
X244738095Y-76245238D01*
X244690476Y-76340476D01*
X244642857Y-76530952D01*
X244642857Y-76673809D01*
X244690476Y-76864285D01*
X244738095Y-76959523D01*
X244833333Y-77054761D01*
X244976190Y-77102380D01*
X245214285Y-77102380D01*
X243785714Y-76435714D02*
X243785714Y-77102380D01*
X244023809Y-76054761D02*
X244261904Y-76769047D01*
X243642857Y-76769047D01*
X243071428Y-76102380D02*
X242976190Y-76102380D01*
X242880952Y-76150000D01*
X242833333Y-76197619D01*
X242785714Y-76292857D01*
X242738095Y-76483333D01*
X242738095Y-76721428D01*
X242785714Y-76911904D01*
X242833333Y-77007142D01*
X242880952Y-77054761D01*
X242976190Y-77102380D01*
X243071428Y-77102380D01*
X243166666Y-77054761D01*
X243214285Y-77007142D01*
X243261904Y-76911904D01*
X243309523Y-76721428D01*
X243309523Y-76483333D01*
X243261904Y-76292857D01*
X243214285Y-76197619D01*
X243166666Y-76150000D01*
X243071428Y-76102380D01*
G04 #@! TO.C,D39*
X227714285Y-118102380D02*
X227714285Y-117102380D01*
X227476190Y-117102380D01*
X227333333Y-117150000D01*
X227238095Y-117245238D01*
X227190476Y-117340476D01*
X227142857Y-117530952D01*
X227142857Y-117673809D01*
X227190476Y-117864285D01*
X227238095Y-117959523D01*
X227333333Y-118054761D01*
X227476190Y-118102380D01*
X227714285Y-118102380D01*
X226809523Y-117102380D02*
X226190476Y-117102380D01*
X226523809Y-117483333D01*
X226380952Y-117483333D01*
X226285714Y-117530952D01*
X226238095Y-117578571D01*
X226190476Y-117673809D01*
X226190476Y-117911904D01*
X226238095Y-118007142D01*
X226285714Y-118054761D01*
X226380952Y-118102380D01*
X226666666Y-118102380D01*
X226761904Y-118054761D01*
X226809523Y-118007142D01*
X225714285Y-118102380D02*
X225523809Y-118102380D01*
X225428571Y-118054761D01*
X225380952Y-118007142D01*
X225285714Y-117864285D01*
X225238095Y-117673809D01*
X225238095Y-117292857D01*
X225285714Y-117197619D01*
X225333333Y-117150000D01*
X225428571Y-117102380D01*
X225619047Y-117102380D01*
X225714285Y-117150000D01*
X225761904Y-117197619D01*
X225809523Y-117292857D01*
X225809523Y-117530952D01*
X225761904Y-117626190D01*
X225714285Y-117673809D01*
X225619047Y-117721428D01*
X225428571Y-117721428D01*
X225333333Y-117673809D01*
X225285714Y-117626190D01*
X225238095Y-117530952D01*
G04 #@! TO.C,D38*
X227714285Y-114102380D02*
X227714285Y-113102380D01*
X227476190Y-113102380D01*
X227333333Y-113150000D01*
X227238095Y-113245238D01*
X227190476Y-113340476D01*
X227142857Y-113530952D01*
X227142857Y-113673809D01*
X227190476Y-113864285D01*
X227238095Y-113959523D01*
X227333333Y-114054761D01*
X227476190Y-114102380D01*
X227714285Y-114102380D01*
X226809523Y-113102380D02*
X226190476Y-113102380D01*
X226523809Y-113483333D01*
X226380952Y-113483333D01*
X226285714Y-113530952D01*
X226238095Y-113578571D01*
X226190476Y-113673809D01*
X226190476Y-113911904D01*
X226238095Y-114007142D01*
X226285714Y-114054761D01*
X226380952Y-114102380D01*
X226666666Y-114102380D01*
X226761904Y-114054761D01*
X226809523Y-114007142D01*
X225619047Y-113530952D02*
X225714285Y-113483333D01*
X225761904Y-113435714D01*
X225809523Y-113340476D01*
X225809523Y-113292857D01*
X225761904Y-113197619D01*
X225714285Y-113150000D01*
X225619047Y-113102380D01*
X225428571Y-113102380D01*
X225333333Y-113150000D01*
X225285714Y-113197619D01*
X225238095Y-113292857D01*
X225238095Y-113340476D01*
X225285714Y-113435714D01*
X225333333Y-113483333D01*
X225428571Y-113530952D01*
X225619047Y-113530952D01*
X225714285Y-113578571D01*
X225761904Y-113626190D01*
X225809523Y-113721428D01*
X225809523Y-113911904D01*
X225761904Y-114007142D01*
X225714285Y-114054761D01*
X225619047Y-114102380D01*
X225428571Y-114102380D01*
X225333333Y-114054761D01*
X225285714Y-114007142D01*
X225238095Y-113911904D01*
X225238095Y-113721428D01*
X225285714Y-113626190D01*
X225333333Y-113578571D01*
X225428571Y-113530952D01*
G04 #@! TO.C,D37*
X227739285Y-80102380D02*
X227739285Y-79102380D01*
X227501190Y-79102380D01*
X227358333Y-79150000D01*
X227263095Y-79245238D01*
X227215476Y-79340476D01*
X227167857Y-79530952D01*
X227167857Y-79673809D01*
X227215476Y-79864285D01*
X227263095Y-79959523D01*
X227358333Y-80054761D01*
X227501190Y-80102380D01*
X227739285Y-80102380D01*
X226834523Y-79102380D02*
X226215476Y-79102380D01*
X226548809Y-79483333D01*
X226405952Y-79483333D01*
X226310714Y-79530952D01*
X226263095Y-79578571D01*
X226215476Y-79673809D01*
X226215476Y-79911904D01*
X226263095Y-80007142D01*
X226310714Y-80054761D01*
X226405952Y-80102380D01*
X226691666Y-80102380D01*
X226786904Y-80054761D01*
X226834523Y-80007142D01*
X225882142Y-79102380D02*
X225215476Y-79102380D01*
X225644047Y-80102380D01*
G04 #@! TO.C,D36*
X227739285Y-76102380D02*
X227739285Y-75102380D01*
X227501190Y-75102380D01*
X227358333Y-75150000D01*
X227263095Y-75245238D01*
X227215476Y-75340476D01*
X227167857Y-75530952D01*
X227167857Y-75673809D01*
X227215476Y-75864285D01*
X227263095Y-75959523D01*
X227358333Y-76054761D01*
X227501190Y-76102380D01*
X227739285Y-76102380D01*
X226834523Y-75102380D02*
X226215476Y-75102380D01*
X226548809Y-75483333D01*
X226405952Y-75483333D01*
X226310714Y-75530952D01*
X226263095Y-75578571D01*
X226215476Y-75673809D01*
X226215476Y-75911904D01*
X226263095Y-76007142D01*
X226310714Y-76054761D01*
X226405952Y-76102380D01*
X226691666Y-76102380D01*
X226786904Y-76054761D01*
X226834523Y-76007142D01*
X225358333Y-75102380D02*
X225548809Y-75102380D01*
X225644047Y-75150000D01*
X225691666Y-75197619D01*
X225786904Y-75340476D01*
X225834523Y-75530952D01*
X225834523Y-75911904D01*
X225786904Y-76007142D01*
X225739285Y-76054761D01*
X225644047Y-76102380D01*
X225453571Y-76102380D01*
X225358333Y-76054761D01*
X225310714Y-76007142D01*
X225263095Y-75911904D01*
X225263095Y-75673809D01*
X225310714Y-75578571D01*
X225358333Y-75530952D01*
X225453571Y-75483333D01*
X225644047Y-75483333D01*
X225739285Y-75530952D01*
X225786904Y-75578571D01*
X225834523Y-75673809D01*
G04 #@! TO.C,D34*
X208714285Y-114102380D02*
X208714285Y-113102380D01*
X208476190Y-113102380D01*
X208333333Y-113150000D01*
X208238095Y-113245238D01*
X208190476Y-113340476D01*
X208142857Y-113530952D01*
X208142857Y-113673809D01*
X208190476Y-113864285D01*
X208238095Y-113959523D01*
X208333333Y-114054761D01*
X208476190Y-114102380D01*
X208714285Y-114102380D01*
X207809523Y-113102380D02*
X207190476Y-113102380D01*
X207523809Y-113483333D01*
X207380952Y-113483333D01*
X207285714Y-113530952D01*
X207238095Y-113578571D01*
X207190476Y-113673809D01*
X207190476Y-113911904D01*
X207238095Y-114007142D01*
X207285714Y-114054761D01*
X207380952Y-114102380D01*
X207666666Y-114102380D01*
X207761904Y-114054761D01*
X207809523Y-114007142D01*
X206333333Y-113435714D02*
X206333333Y-114102380D01*
X206571428Y-113054761D02*
X206809523Y-113769047D01*
X206190476Y-113769047D01*
G04 #@! TO.C,D12*
X100702380Y-126785714D02*
X99702380Y-126785714D01*
X99702380Y-127023809D01*
X99750000Y-127166666D01*
X99845238Y-127261904D01*
X99940476Y-127309523D01*
X100130952Y-127357142D01*
X100273809Y-127357142D01*
X100464285Y-127309523D01*
X100559523Y-127261904D01*
X100654761Y-127166666D01*
X100702380Y-127023809D01*
X100702380Y-126785714D01*
X100702380Y-128309523D02*
X100702380Y-127738095D01*
X100702380Y-128023809D02*
X99702380Y-128023809D01*
X99845238Y-127928571D01*
X99940476Y-127833333D01*
X99988095Y-127738095D01*
X99797619Y-128690476D02*
X99750000Y-128738095D01*
X99702380Y-128833333D01*
X99702380Y-129071428D01*
X99750000Y-129166666D01*
X99797619Y-129214285D01*
X99892857Y-129261904D01*
X99988095Y-129261904D01*
X100130952Y-129214285D01*
X100702380Y-128642857D01*
X100702380Y-129261904D01*
G04 #@! TO.C,D26*
X170739285Y-114102380D02*
X170739285Y-113102380D01*
X170501190Y-113102380D01*
X170358333Y-113150000D01*
X170263095Y-113245238D01*
X170215476Y-113340476D01*
X170167857Y-113530952D01*
X170167857Y-113673809D01*
X170215476Y-113864285D01*
X170263095Y-113959523D01*
X170358333Y-114054761D01*
X170501190Y-114102380D01*
X170739285Y-114102380D01*
X169786904Y-113197619D02*
X169739285Y-113150000D01*
X169644047Y-113102380D01*
X169405952Y-113102380D01*
X169310714Y-113150000D01*
X169263095Y-113197619D01*
X169215476Y-113292857D01*
X169215476Y-113388095D01*
X169263095Y-113530952D01*
X169834523Y-114102380D01*
X169215476Y-114102380D01*
X168358333Y-113102380D02*
X168548809Y-113102380D01*
X168644047Y-113150000D01*
X168691666Y-113197619D01*
X168786904Y-113340476D01*
X168834523Y-113530952D01*
X168834523Y-113911904D01*
X168786904Y-114007142D01*
X168739285Y-114054761D01*
X168644047Y-114102380D01*
X168453571Y-114102380D01*
X168358333Y-114054761D01*
X168310714Y-114007142D01*
X168263095Y-113911904D01*
X168263095Y-113673809D01*
X168310714Y-113578571D01*
X168358333Y-113530952D01*
X168453571Y-113483333D01*
X168644047Y-113483333D01*
X168739285Y-113530952D01*
X168786904Y-113578571D01*
X168834523Y-113673809D01*
G04 #@! TO.C,D27*
X170714285Y-118102380D02*
X170714285Y-117102380D01*
X170476190Y-117102380D01*
X170333333Y-117150000D01*
X170238095Y-117245238D01*
X170190476Y-117340476D01*
X170142857Y-117530952D01*
X170142857Y-117673809D01*
X170190476Y-117864285D01*
X170238095Y-117959523D01*
X170333333Y-118054761D01*
X170476190Y-118102380D01*
X170714285Y-118102380D01*
X169761904Y-117197619D02*
X169714285Y-117150000D01*
X169619047Y-117102380D01*
X169380952Y-117102380D01*
X169285714Y-117150000D01*
X169238095Y-117197619D01*
X169190476Y-117292857D01*
X169190476Y-117388095D01*
X169238095Y-117530952D01*
X169809523Y-118102380D01*
X169190476Y-118102380D01*
X168857142Y-117102380D02*
X168190476Y-117102380D01*
X168619047Y-118102380D01*
G04 #@! TO.C,D28*
X189714285Y-76102380D02*
X189714285Y-75102380D01*
X189476190Y-75102380D01*
X189333333Y-75150000D01*
X189238095Y-75245238D01*
X189190476Y-75340476D01*
X189142857Y-75530952D01*
X189142857Y-75673809D01*
X189190476Y-75864285D01*
X189238095Y-75959523D01*
X189333333Y-76054761D01*
X189476190Y-76102380D01*
X189714285Y-76102380D01*
X188761904Y-75197619D02*
X188714285Y-75150000D01*
X188619047Y-75102380D01*
X188380952Y-75102380D01*
X188285714Y-75150000D01*
X188238095Y-75197619D01*
X188190476Y-75292857D01*
X188190476Y-75388095D01*
X188238095Y-75530952D01*
X188809523Y-76102380D01*
X188190476Y-76102380D01*
X187619047Y-75530952D02*
X187714285Y-75483333D01*
X187761904Y-75435714D01*
X187809523Y-75340476D01*
X187809523Y-75292857D01*
X187761904Y-75197619D01*
X187714285Y-75150000D01*
X187619047Y-75102380D01*
X187428571Y-75102380D01*
X187333333Y-75150000D01*
X187285714Y-75197619D01*
X187238095Y-75292857D01*
X187238095Y-75340476D01*
X187285714Y-75435714D01*
X187333333Y-75483333D01*
X187428571Y-75530952D01*
X187619047Y-75530952D01*
X187714285Y-75578571D01*
X187761904Y-75626190D01*
X187809523Y-75721428D01*
X187809523Y-75911904D01*
X187761904Y-76007142D01*
X187714285Y-76054761D01*
X187619047Y-76102380D01*
X187428571Y-76102380D01*
X187333333Y-76054761D01*
X187285714Y-76007142D01*
X187238095Y-75911904D01*
X187238095Y-75721428D01*
X187285714Y-75626190D01*
X187333333Y-75578571D01*
X187428571Y-75530952D01*
G04 #@! TO.C,D29*
X189714285Y-80102380D02*
X189714285Y-79102380D01*
X189476190Y-79102380D01*
X189333333Y-79150000D01*
X189238095Y-79245238D01*
X189190476Y-79340476D01*
X189142857Y-79530952D01*
X189142857Y-79673809D01*
X189190476Y-79864285D01*
X189238095Y-79959523D01*
X189333333Y-80054761D01*
X189476190Y-80102380D01*
X189714285Y-80102380D01*
X188761904Y-79197619D02*
X188714285Y-79150000D01*
X188619047Y-79102380D01*
X188380952Y-79102380D01*
X188285714Y-79150000D01*
X188238095Y-79197619D01*
X188190476Y-79292857D01*
X188190476Y-79388095D01*
X188238095Y-79530952D01*
X188809523Y-80102380D01*
X188190476Y-80102380D01*
X187714285Y-80102380D02*
X187523809Y-80102380D01*
X187428571Y-80054761D01*
X187380952Y-80007142D01*
X187285714Y-79864285D01*
X187238095Y-79673809D01*
X187238095Y-79292857D01*
X187285714Y-79197619D01*
X187333333Y-79150000D01*
X187428571Y-79102380D01*
X187619047Y-79102380D01*
X187714285Y-79150000D01*
X187761904Y-79197619D01*
X187809523Y-79292857D01*
X187809523Y-79530952D01*
X187761904Y-79626190D01*
X187714285Y-79673809D01*
X187619047Y-79721428D01*
X187428571Y-79721428D01*
X187333333Y-79673809D01*
X187285714Y-79626190D01*
X187238095Y-79530952D01*
G04 #@! TO.C,D30*
X189714285Y-114102380D02*
X189714285Y-113102380D01*
X189476190Y-113102380D01*
X189333333Y-113150000D01*
X189238095Y-113245238D01*
X189190476Y-113340476D01*
X189142857Y-113530952D01*
X189142857Y-113673809D01*
X189190476Y-113864285D01*
X189238095Y-113959523D01*
X189333333Y-114054761D01*
X189476190Y-114102380D01*
X189714285Y-114102380D01*
X188809523Y-113102380D02*
X188190476Y-113102380D01*
X188523809Y-113483333D01*
X188380952Y-113483333D01*
X188285714Y-113530952D01*
X188238095Y-113578571D01*
X188190476Y-113673809D01*
X188190476Y-113911904D01*
X188238095Y-114007142D01*
X188285714Y-114054761D01*
X188380952Y-114102380D01*
X188666666Y-114102380D01*
X188761904Y-114054761D01*
X188809523Y-114007142D01*
X187571428Y-113102380D02*
X187476190Y-113102380D01*
X187380952Y-113150000D01*
X187333333Y-113197619D01*
X187285714Y-113292857D01*
X187238095Y-113483333D01*
X187238095Y-113721428D01*
X187285714Y-113911904D01*
X187333333Y-114007142D01*
X187380952Y-114054761D01*
X187476190Y-114102380D01*
X187571428Y-114102380D01*
X187666666Y-114054761D01*
X187714285Y-114007142D01*
X187761904Y-113911904D01*
X187809523Y-113721428D01*
X187809523Y-113483333D01*
X187761904Y-113292857D01*
X187714285Y-113197619D01*
X187666666Y-113150000D01*
X187571428Y-113102380D01*
G04 #@! TO.C,D31*
X189739285Y-118102380D02*
X189739285Y-117102380D01*
X189501190Y-117102380D01*
X189358333Y-117150000D01*
X189263095Y-117245238D01*
X189215476Y-117340476D01*
X189167857Y-117530952D01*
X189167857Y-117673809D01*
X189215476Y-117864285D01*
X189263095Y-117959523D01*
X189358333Y-118054761D01*
X189501190Y-118102380D01*
X189739285Y-118102380D01*
X188834523Y-117102380D02*
X188215476Y-117102380D01*
X188548809Y-117483333D01*
X188405952Y-117483333D01*
X188310714Y-117530952D01*
X188263095Y-117578571D01*
X188215476Y-117673809D01*
X188215476Y-117911904D01*
X188263095Y-118007142D01*
X188310714Y-118054761D01*
X188405952Y-118102380D01*
X188691666Y-118102380D01*
X188786904Y-118054761D01*
X188834523Y-118007142D01*
X187263095Y-118102380D02*
X187834523Y-118102380D01*
X187548809Y-118102380D02*
X187548809Y-117102380D01*
X187644047Y-117245238D01*
X187739285Y-117340476D01*
X187834523Y-117388095D01*
G04 #@! TO.C,D32*
X208714285Y-76102380D02*
X208714285Y-75102380D01*
X208476190Y-75102380D01*
X208333333Y-75150000D01*
X208238095Y-75245238D01*
X208190476Y-75340476D01*
X208142857Y-75530952D01*
X208142857Y-75673809D01*
X208190476Y-75864285D01*
X208238095Y-75959523D01*
X208333333Y-76054761D01*
X208476190Y-76102380D01*
X208714285Y-76102380D01*
X207809523Y-75102380D02*
X207190476Y-75102380D01*
X207523809Y-75483333D01*
X207380952Y-75483333D01*
X207285714Y-75530952D01*
X207238095Y-75578571D01*
X207190476Y-75673809D01*
X207190476Y-75911904D01*
X207238095Y-76007142D01*
X207285714Y-76054761D01*
X207380952Y-76102380D01*
X207666666Y-76102380D01*
X207761904Y-76054761D01*
X207809523Y-76007142D01*
X206809523Y-75197619D02*
X206761904Y-75150000D01*
X206666666Y-75102380D01*
X206428571Y-75102380D01*
X206333333Y-75150000D01*
X206285714Y-75197619D01*
X206238095Y-75292857D01*
X206238095Y-75388095D01*
X206285714Y-75530952D01*
X206857142Y-76102380D01*
X206238095Y-76102380D01*
G04 #@! TO.C,D33*
X208714285Y-80102380D02*
X208714285Y-79102380D01*
X208476190Y-79102380D01*
X208333333Y-79150000D01*
X208238095Y-79245238D01*
X208190476Y-79340476D01*
X208142857Y-79530952D01*
X208142857Y-79673809D01*
X208190476Y-79864285D01*
X208238095Y-79959523D01*
X208333333Y-80054761D01*
X208476190Y-80102380D01*
X208714285Y-80102380D01*
X207809523Y-79102380D02*
X207190476Y-79102380D01*
X207523809Y-79483333D01*
X207380952Y-79483333D01*
X207285714Y-79530952D01*
X207238095Y-79578571D01*
X207190476Y-79673809D01*
X207190476Y-79911904D01*
X207238095Y-80007142D01*
X207285714Y-80054761D01*
X207380952Y-80102380D01*
X207666666Y-80102380D01*
X207761904Y-80054761D01*
X207809523Y-80007142D01*
X206857142Y-79102380D02*
X206238095Y-79102380D01*
X206571428Y-79483333D01*
X206428571Y-79483333D01*
X206333333Y-79530952D01*
X206285714Y-79578571D01*
X206238095Y-79673809D01*
X206238095Y-79911904D01*
X206285714Y-80007142D01*
X206333333Y-80054761D01*
X206428571Y-80102380D01*
X206714285Y-80102380D01*
X206809523Y-80054761D01*
X206857142Y-80007142D01*
G04 #@! TO.C,D35*
X208739285Y-118102380D02*
X208739285Y-117102380D01*
X208501190Y-117102380D01*
X208358333Y-117150000D01*
X208263095Y-117245238D01*
X208215476Y-117340476D01*
X208167857Y-117530952D01*
X208167857Y-117673809D01*
X208215476Y-117864285D01*
X208263095Y-117959523D01*
X208358333Y-118054761D01*
X208501190Y-118102380D01*
X208739285Y-118102380D01*
X207834523Y-117102380D02*
X207215476Y-117102380D01*
X207548809Y-117483333D01*
X207405952Y-117483333D01*
X207310714Y-117530952D01*
X207263095Y-117578571D01*
X207215476Y-117673809D01*
X207215476Y-117911904D01*
X207263095Y-118007142D01*
X207310714Y-118054761D01*
X207405952Y-118102380D01*
X207691666Y-118102380D01*
X207786904Y-118054761D01*
X207834523Y-118007142D01*
X206310714Y-117102380D02*
X206786904Y-117102380D01*
X206834523Y-117578571D01*
X206786904Y-117530952D01*
X206691666Y-117483333D01*
X206453571Y-117483333D01*
X206358333Y-117530952D01*
X206310714Y-117578571D01*
X206263095Y-117673809D01*
X206263095Y-117911904D01*
X206310714Y-118007142D01*
X206358333Y-118054761D01*
X206453571Y-118102380D01*
X206691666Y-118102380D01*
X206786904Y-118054761D01*
X206834523Y-118007142D01*
G04 #@! TO.C,SW48*
X101809523Y-85654761D02*
X101666666Y-85702380D01*
X101428571Y-85702380D01*
X101333333Y-85654761D01*
X101285714Y-85607142D01*
X101238095Y-85511904D01*
X101238095Y-85416666D01*
X101285714Y-85321428D01*
X101333333Y-85273809D01*
X101428571Y-85226190D01*
X101619047Y-85178571D01*
X101714285Y-85130952D01*
X101761904Y-85083333D01*
X101809523Y-84988095D01*
X101809523Y-84892857D01*
X101761904Y-84797619D01*
X101714285Y-84750000D01*
X101619047Y-84702380D01*
X101380952Y-84702380D01*
X101238095Y-84750000D01*
X100904761Y-84702380D02*
X100666666Y-85702380D01*
X100476190Y-84988095D01*
X100285714Y-85702380D01*
X100047619Y-84702380D01*
X99238095Y-85035714D02*
X99238095Y-85702380D01*
X99476190Y-84654761D02*
X99714285Y-85369047D01*
X99095238Y-85369047D01*
X98571428Y-85130952D02*
X98666666Y-85083333D01*
X98714285Y-85035714D01*
X98761904Y-84940476D01*
X98761904Y-84892857D01*
X98714285Y-84797619D01*
X98666666Y-84750000D01*
X98571428Y-84702380D01*
X98380952Y-84702380D01*
X98285714Y-84750000D01*
X98238095Y-84797619D01*
X98190476Y-84892857D01*
X98190476Y-84940476D01*
X98238095Y-85035714D01*
X98285714Y-85083333D01*
X98380952Y-85130952D01*
X98571428Y-85130952D01*
X98666666Y-85178571D01*
X98714285Y-85226190D01*
X98761904Y-85321428D01*
X98761904Y-85511904D01*
X98714285Y-85607142D01*
X98666666Y-85654761D01*
X98571428Y-85702380D01*
X98380952Y-85702380D01*
X98285714Y-85654761D01*
X98238095Y-85607142D01*
X98190476Y-85511904D01*
X98190476Y-85321428D01*
X98238095Y-85226190D01*
X98285714Y-85178571D01*
X98380952Y-85130952D01*
G04 #@! TO.C,U1*
X93158027Y-122919468D02*
X92585607Y-123491888D01*
X92484592Y-123525560D01*
X92417248Y-123525560D01*
X92316233Y-123491888D01*
X92181546Y-123357201D01*
X92147874Y-123256186D01*
X92147874Y-123188842D01*
X92181546Y-123087827D01*
X92753966Y-122515407D01*
X91339752Y-122515407D02*
X91743813Y-122919468D01*
X91541783Y-122717438D02*
X92248889Y-122010331D01*
X92215218Y-122178690D01*
X92215218Y-122313377D01*
X92248889Y-122414392D01*
G04 #@! TO.C,Y1*
X73426190Y-117023809D02*
X73902380Y-117023809D01*
X72902380Y-116690476D02*
X73426190Y-117023809D01*
X72902380Y-117357142D01*
X73902380Y-118214285D02*
X73902380Y-117642857D01*
X73902380Y-117928571D02*
X72902380Y-117928571D01*
X73045238Y-117833333D01*
X73140476Y-117738095D01*
X73188095Y-117642857D01*
G04 #@! TO.C,C1*
X90532038Y-120703663D02*
X90532038Y-120771006D01*
X90599382Y-120905693D01*
X90666726Y-120973037D01*
X90801413Y-121040380D01*
X90936100Y-121040380D01*
X91037115Y-121006709D01*
X91205474Y-120905693D01*
X91306489Y-120804678D01*
X91407504Y-120636319D01*
X91441176Y-120535304D01*
X91441176Y-120400617D01*
X91373832Y-120265930D01*
X91306489Y-120198586D01*
X91171802Y-120131243D01*
X91104458Y-120131243D01*
X89791260Y-120097571D02*
X90195321Y-120501632D01*
X89993290Y-120299602D02*
X90700397Y-119592495D01*
X90666726Y-119760854D01*
X90666726Y-119895541D01*
X90700397Y-119996556D01*
G04 #@! TO.C,C2*
X84707142Y-117333333D02*
X84754761Y-117285714D01*
X84802380Y-117142857D01*
X84802380Y-117047619D01*
X84754761Y-116904761D01*
X84659523Y-116809523D01*
X84564285Y-116761904D01*
X84373809Y-116714285D01*
X84230952Y-116714285D01*
X84040476Y-116761904D01*
X83945238Y-116809523D01*
X83850000Y-116904761D01*
X83802380Y-117047619D01*
X83802380Y-117142857D01*
X83850000Y-117285714D01*
X83897619Y-117333333D01*
X83897619Y-117714285D02*
X83850000Y-117761904D01*
X83802380Y-117857142D01*
X83802380Y-118095238D01*
X83850000Y-118190476D01*
X83897619Y-118238095D01*
X83992857Y-118285714D01*
X84088095Y-118285714D01*
X84230952Y-118238095D01*
X84802380Y-117666666D01*
X84802380Y-118285714D01*
G04 #@! TO.C,C3*
X83166666Y-118507142D02*
X83214285Y-118554761D01*
X83357142Y-118602380D01*
X83452380Y-118602380D01*
X83595238Y-118554761D01*
X83690476Y-118459523D01*
X83738095Y-118364285D01*
X83785714Y-118173809D01*
X83785714Y-118030952D01*
X83738095Y-117840476D01*
X83690476Y-117745238D01*
X83595238Y-117650000D01*
X83452380Y-117602380D01*
X83357142Y-117602380D01*
X83214285Y-117650000D01*
X83166666Y-117697619D01*
X82833333Y-117602380D02*
X82214285Y-117602380D01*
X82547619Y-117983333D01*
X82404761Y-117983333D01*
X82309523Y-118030952D01*
X82261904Y-118078571D01*
X82214285Y-118173809D01*
X82214285Y-118411904D01*
X82261904Y-118507142D01*
X82309523Y-118554761D01*
X82404761Y-118602380D01*
X82690476Y-118602380D01*
X82785714Y-118554761D01*
X82833333Y-118507142D01*
G04 #@! TO.C,C4*
X83166666Y-120507142D02*
X83214285Y-120554761D01*
X83357142Y-120602380D01*
X83452380Y-120602380D01*
X83595238Y-120554761D01*
X83690476Y-120459523D01*
X83738095Y-120364285D01*
X83785714Y-120173809D01*
X83785714Y-120030952D01*
X83738095Y-119840476D01*
X83690476Y-119745238D01*
X83595238Y-119650000D01*
X83452380Y-119602380D01*
X83357142Y-119602380D01*
X83214285Y-119650000D01*
X83166666Y-119697619D01*
X82309523Y-119935714D02*
X82309523Y-120602380D01*
X82547619Y-119554761D02*
X82785714Y-120269047D01*
X82166666Y-120269047D01*
G04 #@! TO.C,R2*
X78802380Y-79333333D02*
X78326190Y-79000000D01*
X78802380Y-78761904D02*
X77802380Y-78761904D01*
X77802380Y-79142857D01*
X77850000Y-79238095D01*
X77897619Y-79285714D01*
X77992857Y-79333333D01*
X78135714Y-79333333D01*
X78230952Y-79285714D01*
X78278571Y-79238095D01*
X78326190Y-79142857D01*
X78326190Y-78761904D01*
X77897619Y-79714285D02*
X77850000Y-79761904D01*
X77802380Y-79857142D01*
X77802380Y-80095238D01*
X77850000Y-80190476D01*
X77897619Y-80238095D01*
X77992857Y-80285714D01*
X78088095Y-80285714D01*
X78230952Y-80238095D01*
X78802380Y-79666666D01*
X78802380Y-80285714D01*
G04 #@! TO.C,R1*
X76802380Y-79333333D02*
X76326190Y-79000000D01*
X76802380Y-78761904D02*
X75802380Y-78761904D01*
X75802380Y-79142857D01*
X75850000Y-79238095D01*
X75897619Y-79285714D01*
X75992857Y-79333333D01*
X76135714Y-79333333D01*
X76230952Y-79285714D01*
X76278571Y-79238095D01*
X76326190Y-79142857D01*
X76326190Y-78761904D01*
X76802380Y-80285714D02*
X76802380Y-79714285D01*
X76802380Y-80000000D02*
X75802380Y-80000000D01*
X75945238Y-79904761D01*
X76040476Y-79809523D01*
X76088095Y-79714285D01*
G04 #@! TO.C,R4*
X78802380Y-117333333D02*
X78326190Y-117000000D01*
X78802380Y-116761904D02*
X77802380Y-116761904D01*
X77802380Y-117142857D01*
X77850000Y-117238095D01*
X77897619Y-117285714D01*
X77992857Y-117333333D01*
X78135714Y-117333333D01*
X78230952Y-117285714D01*
X78278571Y-117238095D01*
X78326190Y-117142857D01*
X78326190Y-116761904D01*
X78135714Y-118190476D02*
X78802380Y-118190476D01*
X77754761Y-117952380D02*
X78469047Y-117714285D01*
X78469047Y-118333333D01*
G04 #@! TO.C,R3*
X78802380Y-83833333D02*
X78326190Y-83500000D01*
X78802380Y-83261904D02*
X77802380Y-83261904D01*
X77802380Y-83642857D01*
X77850000Y-83738095D01*
X77897619Y-83785714D01*
X77992857Y-83833333D01*
X78135714Y-83833333D01*
X78230952Y-83785714D01*
X78278571Y-83738095D01*
X78326190Y-83642857D01*
X78326190Y-83261904D01*
X77802380Y-84166666D02*
X77802380Y-84785714D01*
X78183333Y-84452380D01*
X78183333Y-84595238D01*
X78230952Y-84690476D01*
X78278571Y-84738095D01*
X78373809Y-84785714D01*
X78611904Y-84785714D01*
X78707142Y-84738095D01*
X78754761Y-84690476D01*
X78802380Y-84595238D01*
X78802380Y-84309523D01*
X78754761Y-84214285D01*
X78707142Y-84166666D01*
G04 #@! TO.C,P1*
X79238095Y-69312380D02*
X79238095Y-68312380D01*
X78857142Y-68312380D01*
X78761904Y-68360000D01*
X78714285Y-68407619D01*
X78666666Y-68502857D01*
X78666666Y-68645714D01*
X78714285Y-68740952D01*
X78761904Y-68788571D01*
X78857142Y-68836190D01*
X79238095Y-68836190D01*
X77714285Y-69312380D02*
X78285714Y-69312380D01*
X78000000Y-69312380D02*
X78000000Y-68312380D01*
X78095238Y-68455238D01*
X78190476Y-68550476D01*
X78285714Y-68598095D01*
G04 #@! TD*
M02*
