M48
;DRILL file {KiCad (5.0.2)-1} date 11/6/2022 9:34:23 PM
;FORMAT={-:-/ absolute / inch / decimal}
FMAT,2
INCH,TZ
T1C0.0157
T2C0.0197
T3C0.0394
T4C0.0256
T5C0.0670
T6C0.1181
T7C0.1200
T8C0.1570
T9C0.1969
%
G90
G05
T1
X2.0276Y-3.7992
X2.0276Y-4.5472
X2.0669Y-3.0315
X2.4016Y-4.9016
X2.4803Y-3.0512
X2.5098Y-4.0256
X2.5591Y-3.7992
X2.5787Y-4.5472
X2.6083Y-4.5866
X2.687Y-3.8976
X2.7559Y-3.7992
X2.815Y-3.0512
X2.874Y-4.5866
X2.8839Y-3.9843
X3.0512Y-3.7205
X3.0709Y-2.5492
X3.0709Y-2.7165
X3.0709Y-3.0118
X3.0869Y-3.9727
X3.1102Y-2.7165
X3.1102Y-3.0118
X3.1299Y-4.9016
X3.189Y-2.7165
X3.2283Y-3.8378
X3.2283Y-3.937
X3.248Y-3.2087
X3.2677Y-3.9764
X3.2776Y-4.5276
X3.3071Y-3.0512
X3.3071Y-3.6122
X3.3071Y-3.7992
X3.3071Y-3.8976
X3.3465Y-4.7638
X3.4055Y-4.0157
X3.4247Y-4.8233
X3.4449Y-4.0157
X3.4843Y-3.8976
X3.5433Y-3.8278
X3.5433Y-4.5079
X3.563Y-3.9281
X3.5827Y-3.0512
X3.5827Y-3.1299
X3.6024Y-3.7992
X3.6024Y-4.8425
X3.6024Y-4.9016
X3.6132Y-4.125
X3.622Y-4.3504
X3.6614Y-4.3898
X3.7205Y-4.2717
X3.7402Y-3.2874
X3.75Y-3.1299
X3.7598Y-4.5276
X3.7992Y-3.9764
X3.7992Y-4.0354
X3.7992Y-4.5276
X3.8347Y-4.5446
X3.8583Y-4.4488
X3.9173Y-4.5472
X3.9567Y-4.3307
X3.9567Y-4.5276
X4.0378Y-5.1281
X4.0551Y-3.0512
X4.0551Y-3.7992
X4.1339Y-4.8031
X4.1732Y-4.7835
X4.1841Y-4.8317
X4.2126Y-3.9961
X4.2126Y-4.7638
X4.2323Y-4.5669
X4.2717Y-4.8228
X4.311Y-3.9173
X4.3307Y-3.0512
X4.3307Y-3.7992
X4.3307Y-4.8622
X4.3844Y-4.1553
X4.4488Y-3.9567
X4.4882Y-4.626
X4.5472Y-4.2323
X4.5472Y-4.685
X4.5866Y-4.5866
X4.5866Y-4.6457
X4.6104Y-4.3504
X4.626Y-4.0354
X4.8031Y-3.0512
X4.8031Y-3.7992
X5.Y-4.8228
X5.0787Y-3.0512
X5.0984Y-3.7992
X5.1181Y-4.5472
X5.374Y-4.5472
X5.5512Y-3.0512
X5.5709Y-3.7992
X5.748Y-4.5472
X5.8268Y-3.0512
X5.8661Y-3.7992
X5.9646Y-4.7047
X6.1024Y-4.5472
X6.2992Y-3.0512
X6.2992Y-3.7992
X6.5157Y-4.5472
X6.5748Y-3.0512
X6.6142Y-3.7992
X6.7126Y-4.8031
X6.8504Y-4.5472
X7.0472Y-3.0512
X7.0472Y-3.7992
X7.2441Y-4.5472
X7.3228Y-3.0512
X7.3425Y-3.7992
X7.3711Y-3.9173
X7.6181Y-4.5472
X7.7953Y-3.0512
X7.7953Y-3.7992
X7.9921Y-4.5472
X8.0709Y-3.0512
X8.1102Y-3.7992
X8.1388Y-3.9961
X8.3465Y-4.5472
X8.5433Y-3.0512
X8.5433Y-3.7992
X8.7598Y-4.5472
X8.8189Y-3.0512
X8.8583Y-3.7992
X8.8868Y-4.0354
X9.0945Y-4.5472
X9.2913Y-3.0512
X9.2913Y-3.7992
X9.3898Y-4.5472
X9.4882Y-3.0512
X9.6063Y-3.7992
X9.6348Y-4.0748
X9.7047Y-4.4882
X9.8425Y-2.9724
X10.0394Y-3.7992
X10.2579Y-4.5079
T3
X2.2917Y-3.8878
X2.2917Y-3.9878
X2.2917Y-4.0878
X2.3917Y-3.8878
X2.3917Y-3.9878
X2.3917Y-4.0878
T4
X2.9488Y-2.6323
T5
X2.5165Y-2.7559
X2.9165Y-2.7559
X7.7528Y-3.5039
X8.1528Y-3.5039
X1.7685Y-5.
X2.1685Y-5.
X9.9969Y-4.252
X10.3969Y-4.252
X9.2488Y-3.5039
X9.6488Y-3.5039
X7.0047Y-2.7559
X7.4047Y-2.7559
X4.7606Y-4.252
X5.1606Y-4.252
X4.0126Y-4.252
X4.4126Y-4.252
X7.7528Y-4.252
X8.1528Y-4.252
X3.2646Y-3.5039
X3.6646Y-3.5039
X6.2567Y-2.7559
X6.6567Y-2.7559
X6.2567Y-4.252
X6.6567Y-4.252
X9.2488Y-4.2559
X9.6488Y-4.2559
X7.7528Y-5.
X8.1528Y-5.
X1.7685Y-2.7559
X2.1685Y-2.7559
X3.2646Y-4.252
X3.6646Y-4.252
X5.5087Y-2.7559
X5.9087Y-2.7559
X1.7685Y-4.252
X2.1685Y-4.252
X4.0126Y-2.7559
X4.4126Y-2.7559
X9.9969Y-5.
X10.3969Y-5.
X5.5087Y-4.252
X5.9087Y-4.252
X7.0047Y-4.252
X7.4047Y-4.252
X5.5087Y-3.5039
X5.9087Y-3.5039
X6.2567Y-3.5039
X6.6567Y-3.5039
X3.2646Y-2.7559
X3.6646Y-2.7559
X4.7606Y-2.7559
X5.1606Y-2.7559
X2.5165Y-3.5039
X2.9165Y-3.5039
X9.9969Y-3.5039
X10.3969Y-3.5039
X6.2567Y-5.
X6.6567Y-5.
X4.0126Y-5.
X4.4126Y-5.
X5.1346Y-5.
X5.5346Y-5.
X2.5165Y-4.252
X2.9165Y-4.252
X9.9969Y-2.7559
X10.3969Y-2.7559
X8.5008Y-5.
X8.9008Y-5.
X8.5008Y-3.5039
X8.9008Y-3.5039
X1.7685Y-3.5039
X2.1685Y-3.5039
X4.7606Y-3.5039
X5.1606Y-3.5039
X8.5008Y-2.7559
X8.9008Y-2.7559
X9.2488Y-2.7559
X9.6488Y-2.7559
X7.0047Y-3.5039
X7.4047Y-3.5039
X2.5165Y-5.
X2.9165Y-5.
X7.7528Y-2.7559
X8.1528Y-2.7559
X4.0126Y-3.5039
X4.4126Y-3.5039
X7.0047Y-5.
X7.4047Y-5.
X3.2646Y-5.
X3.6646Y-5.
X9.2488Y-5.
X9.6488Y-5.
X8.5008Y-4.252
X8.9008Y-4.252
T6
X1.8685Y-3.7039
X2.1185Y-3.6039
X4.8606Y-3.7039
X5.1106Y-3.6039
X8.6008Y-2.9559
X8.8508Y-2.8559
X9.3488Y-2.9559
X9.5988Y-2.8559
X7.1047Y-3.7039
X7.3547Y-3.6039
X2.6165Y-5.2
X2.8665Y-5.1
X7.8528Y-2.9559
X8.1028Y-2.8559
X4.1126Y-3.7039
X4.3626Y-3.6039
X7.1047Y-5.2
X7.3547Y-5.1
X3.3646Y-5.2
X3.6146Y-5.1
X9.3488Y-5.2
X9.5988Y-5.1
X8.6008Y-4.452
X8.8508Y-4.352
X2.6165Y-2.9559
X2.8665Y-2.8559
X7.8528Y-3.7039
X8.1028Y-3.6039
X1.8685Y-5.2
X2.1185Y-5.1
X10.0969Y-4.452
X10.3469Y-4.352
X9.3488Y-3.7039
X9.5988Y-3.6039
X7.1047Y-2.9559
X7.3547Y-2.8559
X4.8606Y-4.452
X5.1106Y-4.352
X4.0626Y-4.152
X4.3126Y-4.052
X7.8528Y-4.452
X8.1028Y-4.352
X3.3646Y-3.7039
X3.6146Y-3.6039
X6.3567Y-2.9559
X6.6067Y-2.8559
X6.3567Y-4.452
X6.6067Y-4.352
X9.3488Y-4.4559
X9.5988Y-4.3559
X7.8528Y-5.2
X8.1028Y-5.1
X1.8685Y-2.9559
X2.1185Y-2.8559
X3.3146Y-4.152
X3.5646Y-4.052
X5.6087Y-2.9559
X5.8587Y-2.8559
X1.8685Y-4.452
X2.1185Y-4.352
X4.1126Y-2.9559
X4.3626Y-2.8559
X10.0969Y-5.2
X10.3469Y-5.1
X5.6087Y-4.452
X5.8587Y-4.352
X7.1047Y-4.452
X7.3547Y-4.352
X5.6087Y-3.7039
X5.8587Y-3.6039
X6.3567Y-3.7039
X6.6067Y-3.6039
X3.3646Y-2.9559
X3.6146Y-2.8559
X4.8606Y-2.9559
X5.1106Y-2.8559
X2.6165Y-3.7039
X2.8665Y-3.6039
X10.0969Y-3.7039
X10.3469Y-3.6039
X6.3567Y-5.2
X6.6067Y-5.1
X4.1126Y-5.2
X4.3626Y-5.1
X5.2346Y-5.2
X5.4846Y-5.1
X2.6165Y-4.452
X2.8665Y-4.352
X10.0969Y-2.9559
X10.3469Y-2.8559
X8.6008Y-5.2
X8.8508Y-5.1
X8.6008Y-3.7039
X8.8508Y-3.6039
T7
X4.8661Y-5.275
X5.8031Y-5.275
T8
X2.7165Y-5.
X7.9528Y-2.7559
X4.2126Y-3.5039
X7.2047Y-5.
X3.4646Y-5.
X9.4488Y-5.
X8.7008Y-4.252
X2.7165Y-2.7559
X7.9528Y-3.5039
X1.9685Y-5.
X10.1969Y-4.252
X9.4488Y-3.5039
X7.2047Y-2.7559
X4.9606Y-4.252
X4.2126Y-4.252
X7.9528Y-4.252
X3.4646Y-3.5039
X6.4567Y-2.7559
X6.4567Y-4.252
X9.4488Y-4.2559
X7.9528Y-5.
X1.9685Y-2.7559
X3.4646Y-4.252
X5.7087Y-2.7559
X1.9685Y-4.252
X4.8661Y-4.675
X5.8031Y-4.675
X4.2126Y-2.7559
X10.1969Y-5.
X5.7087Y-4.252
X7.2047Y-4.252
X5.7087Y-3.5039
X6.4567Y-3.5039
X3.4646Y-2.7559
X4.9606Y-2.7559
X2.7165Y-3.5039
X10.1969Y-3.5039
X6.4567Y-5.
X4.2126Y-5.
X5.3346Y-5.
X2.7165Y-4.252
X10.1969Y-2.7559
X8.7008Y-5.
X8.7008Y-3.5039
X1.9685Y-3.5039
X4.9606Y-3.5039
X8.7008Y-2.7559
X9.4488Y-2.7559
X7.2047Y-3.5039
T9
X2.3425Y-3.1299
X9.8228Y-3.1299
X6.0827Y-3.878
X9.8228Y-4.626
X2.3425Y-4.626
T2
X2.9138Y-2.337G85X2.9138Y-2.3606
G05
X2.928Y-2.5713G85X2.928Y-2.5949
G05
X3.2531Y-2.5713G85X3.2531Y-2.5949
G05
X3.2673Y-2.337G85X3.2673Y-2.3606
G05
T4
X3.2264Y-2.6323G85X3.2382Y-2.6323
G05
T0
M30
