M48
;DRILL file {KiCad (5.0.2)-1} date 11/29/2022 8:35:06 AM
;FORMAT={-:-/ absolute / inch / decimal}
FMAT,2
INCH,TZ
T1C0.0157
T2C0.0197
T3C0.0394
T4C0.1181
T5C0.0256
T6C0.0670
T7C0.1181
T8C0.1200
T9C0.1570
T10C0.1969
%
G90
G05
T1
X1.7224Y-3.0413
X1.7224Y-4.5374
X1.7815Y-3.878
X1.8406Y-3.3957
X1.9404Y-3.878
X2.4508Y-4.3307
X2.4705Y-3.0413
X2.4705Y-4.5374
X2.5394Y-3.1299
X2.5787Y-4.065
X2.6083Y-3.2579
X2.6252Y-3.6024
X2.6772Y-3.3268
X2.7953Y-3.7303
X2.7953Y-3.8287
X2.8445Y-3.4252
X2.8937Y-4.1339
X2.9134Y-3.5728
X2.9331Y-3.1201
X2.9331Y-4.0157
X2.9429Y-3.2283
X2.9658Y-4.0376
X2.9724Y-3.7598
X2.999Y-3.5039
X3.0217Y-4.1732
X3.0561Y-3.5039
X3.0615Y-4.1737
X3.0692Y-4.0517
X3.0709Y-2.5787
X3.0906Y-3.5236
X3.1009Y-3.5715
X3.1112Y-2.7264
X3.1299Y-3.937
X3.1398Y-3.2972
X3.1522Y-3.6043
X3.1693Y-3.5039
X3.1791Y-3.563
X3.1791Y-3.7303
X3.1791Y-4.0354
X3.1897Y-3.7682
X3.1988Y-4.2028
X3.2185Y-3.0413
X3.2185Y-3.2972
X3.2185Y-4.5374
X3.2673Y-3.5641
X3.2874Y-3.1299
X3.2972Y-3.2874
X3.3169Y-3.563
X3.3437Y-4.0768
X3.3661Y-3.8179
X3.3661Y-3.9075
X3.3725Y-3.2643
X3.376Y-3.7205
X3.376Y-4.1053
X3.3858Y-3.5925
X3.3957Y-3.937
X3.4055Y-3.6516
X3.4055Y-3.7805
X3.4154Y-3.7234
X3.4261Y-3.9678
X3.4473Y-3.2702
X3.4547Y-3.3465
X3.4547Y-3.9961
X3.4941Y-3.7894
X3.4941Y-3.9665
X3.5236Y-3.6417
X3.5236Y-3.7205
X3.6024Y-3.1299
X3.6024Y-3.563
X3.6811Y-3.1299
X3.6909Y-3.2283
X3.7402Y-3.7894
X3.7402Y-3.9665
X3.8189Y-3.6811
X3.8583Y-2.7559
X3.9173Y-4.311
X3.9665Y-3.0413
X3.9665Y-3.7894
X3.9665Y-4.5374
X4.0748Y-3.8976
X4.1213Y-3.6063
X4.1535Y-3.9872
X4.252Y-4.4094
X4.626Y-3.563
X4.7146Y-3.0413
X4.7146Y-3.7894
X4.7146Y-4.5374
X4.7441Y-5.2756
X4.872Y-4.1634
X4.9803Y-5.2756
X5.4626Y-3.0413
X5.4626Y-3.7894
X5.4626Y-4.5374
X5.689Y-5.2756
X5.9941Y-3.9864
X6.0236Y-4.5374
X6.1024Y-4.4587
X6.2106Y-3.0413
X6.2106Y-3.7894
X6.2106Y-4.5374
X6.2992Y-3.878
X6.4285Y-4.1339
X6.8307Y-3.878
X6.9587Y-3.0413
X6.9587Y-3.7894
X6.9587Y-4.5374
X7.1134Y-3.6063
X7.7067Y-3.0413
X7.7067Y-3.7894
X7.7067Y-4.5374
X7.9246Y-4.1043
X8.4547Y-3.0413
X8.4547Y-3.7894
X8.4547Y-4.5374
X8.6726Y-4.0748
X9.2028Y-3.0413
X9.2028Y-3.7894
X9.2028Y-4.5374
X9.4207Y-4.0443
X9.685Y-3.7894
X9.7835Y-2.9921
X9.7835Y-4.4882
X10.0394Y-3.878
X10.1687Y-4.0157
X10.2953Y-3.878
X10.3543Y-3.2283
X10.3543Y-4.7244
T2
X8.2382Y-4.626
X8.2641Y-4.5633
X8.2641Y-4.6886
X8.3268Y-4.5374
X8.3268Y-4.7146
X8.3894Y-4.5633
X8.3894Y-4.6886
X8.4154Y-4.626
X2.2539Y-3.878
X2.2799Y-3.8153
X2.2799Y-3.9406
X2.3425Y-3.7894
X2.3425Y-3.9665
X2.4052Y-3.8153
X2.4052Y-3.9406
X2.4311Y-3.878
X9.7343Y-3.878
X9.7602Y-3.8153
X9.7602Y-3.9406
X9.8228Y-3.7894
X9.8228Y-3.9665
X9.8855Y-3.8153
X9.8855Y-3.9406
X9.9114Y-3.878
X3.75Y-3.1299
X3.7759Y-3.0673
X3.7759Y-3.1926
X3.8386Y-3.0413
X3.8386Y-3.2185
X3.9012Y-3.0673
X3.9012Y-3.1926
X3.9272Y-3.1299
X8.2382Y-3.1299
X8.2641Y-3.0673
X8.2641Y-3.1926
X8.3268Y-3.0413
X8.3268Y-3.2185
X8.3894Y-3.0673
X8.3894Y-3.1926
X8.4154Y-3.1299
X3.75Y-4.626
X3.7759Y-4.5633
X3.7759Y-4.6886
X3.8386Y-4.5374
X3.8386Y-4.7146
X3.9012Y-4.5633
X3.9012Y-4.6886
X3.9272Y-4.626
T3
X2.2917Y-4.0453
X2.2917Y-4.1453
X2.2917Y-4.2453
X2.3917Y-4.0453
X2.3917Y-4.1453
X2.3917Y-4.2453
T4
X3.8386Y-4.626
X8.3268Y-4.626
X2.3425Y-3.878
X9.8228Y-3.878
X3.8386Y-3.1299
X8.3268Y-3.1299
T5
X2.9488Y-2.6618
T6
X2.5165Y-4.252
X2.9165Y-4.252
X3.2646Y-5.
X3.6646Y-5.
X7.7528Y-2.7559
X8.1528Y-2.7559
X6.2567Y-4.252
X6.6567Y-4.252
X7.0047Y-2.7559
X7.4047Y-2.7559
X9.2488Y-2.7559
X9.6488Y-2.7559
X5.1346Y-5.
X5.5346Y-5.
X3.2646Y-3.5039
X3.6646Y-3.5039
X4.0126Y-3.5039
X4.4126Y-3.5039
X4.7606Y-4.252
X5.1606Y-4.252
X7.0047Y-4.252
X7.4047Y-4.252
X7.7528Y-3.5039
X8.1528Y-3.5039
X9.9969Y-4.252
X10.3969Y-4.252
X9.9969Y-2.7559
X10.3969Y-2.7559
X3.2646Y-2.7559
X3.6646Y-2.7559
X1.7685Y-5.
X2.1685Y-5.
X7.0047Y-3.5039
X7.4047Y-3.5039
X4.7606Y-2.7559
X5.1606Y-2.7559
X9.2488Y-5.
X9.6488Y-5.
X9.2488Y-4.252
X9.6488Y-4.252
X6.2567Y-3.5039
X6.6567Y-3.5039
X4.7606Y-3.5039
X5.1606Y-3.5039
X8.5008Y-2.7559
X8.9008Y-2.7559
X6.2567Y-2.7559
X6.6567Y-2.7559
X7.7528Y-4.252
X8.1528Y-4.252
X8.5008Y-5.
X8.9008Y-5.
X1.7685Y-3.5039
X2.1685Y-3.5039
X2.5165Y-3.5039
X2.9165Y-3.5039
X9.9969Y-5.
X10.3969Y-5.
X7.7528Y-5.
X8.1528Y-5.
X8.5008Y-4.252
X8.9008Y-4.252
X3.2646Y-4.252
X3.6646Y-4.252
X1.7685Y-2.7559
X2.1685Y-2.7559
X2.5165Y-2.7559
X2.9165Y-2.7559
X4.0126Y-5.
X4.4126Y-5.
X2.5165Y-5.
X2.9165Y-5.
X7.0047Y-5.
X7.4047Y-5.
X6.2567Y-5.
X6.6567Y-5.
X9.2488Y-3.5039
X9.6488Y-3.5039
X5.5087Y-3.5039
X5.9087Y-3.5039
X8.5008Y-3.5039
X8.9008Y-3.5039
X1.7685Y-4.252
X2.1685Y-4.252
X4.0126Y-2.7559
X4.4126Y-2.7559
X4.0126Y-4.252
X4.4126Y-4.252
X5.5087Y-4.252
X5.9087Y-4.252
X9.9969Y-3.5039
X10.3969Y-3.5039
X5.5087Y-2.7559
X5.9087Y-2.7559
T7
X3.3646Y-2.9559
X3.6146Y-2.8559
X1.8685Y-5.2
X2.1185Y-5.1
X7.1047Y-3.7039
X7.3547Y-3.6039
X4.8606Y-2.9559
X5.1106Y-2.8559
X9.3488Y-5.2
X9.5988Y-5.1
X9.3488Y-4.452
X9.5988Y-4.352
X6.3567Y-3.7039
X6.6067Y-3.6039
X4.8606Y-3.7039
X5.1106Y-3.6039
X8.6008Y-2.9559
X8.8508Y-2.8559
X6.3567Y-2.9559
X6.6067Y-2.8559
X7.8528Y-4.452
X8.1028Y-4.352
X8.6008Y-5.2
X8.8508Y-5.1
X1.8685Y-3.7039
X2.1185Y-3.6039
X2.5665Y-3.4039
X2.8165Y-3.3039
X10.0969Y-5.2
X10.3469Y-5.1
X7.8528Y-5.2
X8.1028Y-5.1
X8.6008Y-4.452
X8.8508Y-4.352
X3.3646Y-4.452
X3.6146Y-4.352
X1.8685Y-2.9559
X2.1185Y-2.8559
X2.6165Y-2.9559
X2.8665Y-2.8559
X4.1126Y-5.2
X4.3626Y-5.1
X2.6165Y-5.2
X2.8665Y-5.1
X7.1047Y-5.2
X7.3547Y-5.1
X6.3567Y-5.2
X6.6067Y-5.1
X9.3488Y-3.7039
X9.5988Y-3.6039
X5.6087Y-3.7039
X5.8587Y-3.6039
X8.6008Y-3.7039
X8.8508Y-3.6039
X1.8685Y-4.452
X2.1185Y-4.352
X4.1126Y-2.9559
X4.3626Y-2.8559
X4.1126Y-4.452
X4.3626Y-4.352
X5.6087Y-4.452
X5.8587Y-4.352
X10.0969Y-3.7039
X10.3469Y-3.6039
X5.6087Y-2.9559
X5.8587Y-2.8559
X2.6165Y-4.452
X2.8665Y-4.352
X3.3646Y-5.2
X3.6146Y-5.1
X7.8528Y-2.9559
X8.1028Y-2.8559
X6.3567Y-4.452
X6.6067Y-4.352
X7.1047Y-2.9559
X7.3547Y-2.8559
X9.3488Y-2.9559
X9.5988Y-2.8559
X5.2346Y-5.2
X5.4846Y-5.1
X3.3146Y-3.4039
X3.5646Y-3.3039
X4.1126Y-3.7039
X4.3626Y-3.6039
X4.8606Y-4.452
X5.1106Y-4.352
X7.1047Y-4.452
X7.3547Y-4.352
X7.8528Y-3.7039
X8.1028Y-3.6039
X10.0969Y-4.452
X10.3469Y-4.352
X10.0969Y-2.9559
X10.3469Y-2.8559
T8
X4.8661Y-5.275
X5.8031Y-5.275
T9
X9.4488Y-2.7559
X5.3346Y-5.
X4.8661Y-4.675
X5.8031Y-4.675
X3.4646Y-3.5039
X4.2126Y-3.5039
X4.9606Y-4.252
X7.2047Y-4.252
X7.9528Y-3.5039
X10.1969Y-4.252
X10.1969Y-2.7559
X3.4646Y-2.7559
X1.9685Y-5.
X7.2047Y-3.5039
X4.9606Y-2.7559
X9.4488Y-5.
X9.4488Y-4.252
X6.4567Y-3.5039
X4.9606Y-3.5039
X8.7008Y-2.7559
X6.4567Y-2.7559
X7.9528Y-4.252
X8.7008Y-5.
X1.9685Y-3.5039
X2.7165Y-3.5039
X10.1969Y-5.
X7.9528Y-5.
X8.7008Y-4.252
X3.4646Y-4.252
X1.9685Y-2.7559
X2.7165Y-2.7559
X4.2126Y-5.
X2.7165Y-5.
X7.2047Y-5.
X6.4567Y-5.
X9.4488Y-3.5039
X5.7087Y-3.5039
X8.7008Y-3.5039
X1.9685Y-4.252
X4.2126Y-2.7559
X4.2126Y-4.252
X5.7087Y-4.252
X10.1969Y-3.5039
X5.7087Y-2.7559
X2.7165Y-4.252
X3.4646Y-5.
X7.9528Y-2.7559
X6.4567Y-4.252
X7.2047Y-2.7559
T10
X9.8228Y-3.1299
X9.8228Y-4.626
X2.3425Y-4.626
X2.3425Y-3.1299
X6.0827Y-3.878
T2
X2.9138Y-2.3665G85X2.9138Y-2.3902
G05
X2.928Y-2.6008G85X2.928Y-2.6244
G05
X3.2531Y-2.6008G85X3.2531Y-2.6244
G05
X3.2673Y-2.3665G85X3.2673Y-2.3902
G05
T5
X3.2264Y-2.6618G85X3.2382Y-2.6618
G05
T0
M30
